%TF.GenerationSoftware,KiCad,Pcbnew,(6.0.8)*%
%TF.CreationDate,2022-11-10T19:09:55+02:00*%
%TF.ProjectId,DCMotorDriver,44434d6f-746f-4724-9472-697665722e6b,1.0*%
%TF.SameCoordinates,Original*%
%TF.FileFunction,Legend,Bot*%
%TF.FilePolarity,Positive*%
%FSLAX46Y46*%
G04 Gerber Fmt 4.6, Leading zero omitted, Abs format (unit mm)*
G04 Created by KiCad (PCBNEW (6.0.8)) date 2022-11-10 19:09:55*
%MOMM*%
%LPD*%
G01*
G04 APERTURE LIST*
%ADD10C,0.200000*%
G04 APERTURE END LIST*
D10*
X196389047Y-80986380D02*
X196389047Y-81700666D01*
X196436666Y-81843523D01*
X196531904Y-81938761D01*
X196674761Y-81986380D01*
X196770000Y-81986380D01*
X195436666Y-81986380D02*
X195912857Y-81986380D01*
X195912857Y-80986380D01*
X194531904Y-81891142D02*
X194579523Y-81938761D01*
X194722380Y-81986380D01*
X194817619Y-81986380D01*
X194960476Y-81938761D01*
X195055714Y-81843523D01*
X195103333Y-81748285D01*
X195150952Y-81557809D01*
X195150952Y-81414952D01*
X195103333Y-81224476D01*
X195055714Y-81129238D01*
X194960476Y-81034000D01*
X194817619Y-80986380D01*
X194722380Y-80986380D01*
X194579523Y-81034000D01*
X194531904Y-81081619D01*
X193817619Y-80986380D02*
X193817619Y-81700666D01*
X193865238Y-81843523D01*
X193960476Y-81938761D01*
X194103333Y-81986380D01*
X194198571Y-81986380D01*
X192865238Y-81986380D02*
X193341428Y-81986380D01*
X193341428Y-80986380D01*
X191960476Y-81891142D02*
X192008095Y-81938761D01*
X192150952Y-81986380D01*
X192246190Y-81986380D01*
X192389047Y-81938761D01*
X192484285Y-81843523D01*
X192531904Y-81748285D01*
X192579523Y-81557809D01*
X192579523Y-81414952D01*
X192531904Y-81224476D01*
X192484285Y-81129238D01*
X192389047Y-81034000D01*
X192246190Y-80986380D01*
X192150952Y-80986380D01*
X192008095Y-81034000D01*
X191960476Y-81081619D01*
X191246190Y-80986380D02*
X191246190Y-81700666D01*
X191293809Y-81843523D01*
X191389047Y-81938761D01*
X191531904Y-81986380D01*
X191627142Y-81986380D01*
X190293809Y-81986380D02*
X190770000Y-81986380D01*
X190770000Y-80986380D01*
X189389047Y-81891142D02*
X189436666Y-81938761D01*
X189579523Y-81986380D01*
X189674761Y-81986380D01*
X189817619Y-81938761D01*
X189912857Y-81843523D01*
X189960476Y-81748285D01*
X190008095Y-81557809D01*
X190008095Y-81414952D01*
X189960476Y-81224476D01*
X189912857Y-81129238D01*
X189817619Y-81034000D01*
X189674761Y-80986380D01*
X189579523Y-80986380D01*
X189436666Y-81034000D01*
X189389047Y-81081619D01*
X188674761Y-80986380D02*
X188674761Y-81700666D01*
X188722380Y-81843523D01*
X188817619Y-81938761D01*
X188960476Y-81986380D01*
X189055714Y-81986380D01*
X187722380Y-81986380D02*
X188198571Y-81986380D01*
X188198571Y-80986380D01*
X186817619Y-81891142D02*
X186865238Y-81938761D01*
X187008095Y-81986380D01*
X187103333Y-81986380D01*
X187246190Y-81938761D01*
X187341428Y-81843523D01*
X187389047Y-81748285D01*
X187436666Y-81557809D01*
X187436666Y-81414952D01*
X187389047Y-81224476D01*
X187341428Y-81129238D01*
X187246190Y-81034000D01*
X187103333Y-80986380D01*
X187008095Y-80986380D01*
X186865238Y-81034000D01*
X186817619Y-81081619D01*
M02*
