%TF.GenerationSoftware,KiCad,Pcbnew,(6.0.8)*%
%TF.CreationDate,2022-11-10T19:09:55+02:00*%
%TF.ProjectId,DCMotorDriver,44434d6f-746f-4724-9472-697665722e6b,1.0*%
%TF.SameCoordinates,Original*%
%TF.FileFunction,Soldermask,Top*%
%TF.FilePolarity,Negative*%
%FSLAX46Y46*%
G04 Gerber Fmt 4.6, Leading zero omitted, Abs format (unit mm)*
G04 Created by KiCad (PCBNEW (6.0.8)) date 2022-11-10 19:09:55*
%MOMM*%
%LPD*%
G01*
G04 APERTURE LIST*
G04 Aperture macros list*
%AMRoundRect*
0 Rectangle with rounded corners*
0 $1 Rounding radius*
0 $2 $3 $4 $5 $6 $7 $8 $9 X,Y pos of 4 corners*
0 Add a 4 corners polygon primitive as box body*
4,1,4,$2,$3,$4,$5,$6,$7,$8,$9,$2,$3,0*
0 Add four circle primitives for the rounded corners*
1,1,$1+$1,$2,$3*
1,1,$1+$1,$4,$5*
1,1,$1+$1,$6,$7*
1,1,$1+$1,$8,$9*
0 Add four rect primitives between the rounded corners*
20,1,$1+$1,$2,$3,$4,$5,0*
20,1,$1+$1,$4,$5,$6,$7,0*
20,1,$1+$1,$6,$7,$8,$9,0*
20,1,$1+$1,$8,$9,$2,$3,0*%
G04 Aperture macros list end*
%ADD10C,1.400000*%
%ADD11O,1.400000X1.400000*%
%ADD12R,1.905000X3.000000*%
%ADD13O,1.905000X3.000000*%
%ADD14RoundRect,0.250001X-1.749999X1.099999X-1.749999X-1.099999X1.749999X-1.099999X1.749999X1.099999X0*%
%ADD15RoundRect,0.675000X-1.325000X0.675000X-1.325000X-0.675000X1.325000X-0.675000X1.325000X0.675000X0*%
%ADD16R,1.600000X1.600000*%
%ADD17O,1.600000X1.600000*%
%ADD18C,1.600000*%
%ADD19R,2.200000X2.200000*%
%ADD20O,2.200000X2.200000*%
%ADD21C,2.500000*%
%ADD22RoundRect,0.585000X-0.585000X1.415000X-0.585000X-1.415000X0.585000X-1.415000X0.585000X1.415000X0*%
%ADD23RoundRect,0.370372X-1.629628X1.629628X-1.629628X-1.629628X1.629628X-1.629628X1.629628X1.629628X0*%
%ADD24RoundRect,1.000000X-1.000000X1.000000X-1.000000X-1.000000X1.000000X-1.000000X1.000000X1.000000X0*%
%ADD25R,1.800000X1.800000*%
%ADD26C,1.800000*%
%ADD27RoundRect,0.750000X-1.250000X0.750000X-1.250000X-0.750000X1.250000X-0.750000X1.250000X0.750000X0*%
%ADD28C,4.000000*%
G04 APERTURE END LIST*
D10*
%TO.C,R4*%
X191770000Y-78740000D03*
D11*
X199390000Y-78740000D03*
%TD*%
D12*
%TO.C,Diode1\u002C2*%
X128270000Y-54610000D03*
D13*
X130810000Y-54610000D03*
X133350000Y-54610000D03*
%TD*%
D14*
%TO.C,J2*%
X115993000Y-87638500D03*
D15*
X115993000Y-92638500D03*
%TD*%
D12*
%TO.C,Q2*%
X189230000Y-50800000D03*
D13*
X191770000Y-50800000D03*
X194310000Y-50800000D03*
%TD*%
D16*
%TO.C,IC1*%
X191897000Y-70612000D03*
D17*
X194437000Y-70612000D03*
X196977000Y-70612000D03*
X199517000Y-70612000D03*
X199517000Y-62992000D03*
X196977000Y-62992000D03*
X194437000Y-62992000D03*
X191897000Y-62992000D03*
%TD*%
D18*
%TO.C,C3*%
X191810000Y-73787000D03*
X196810000Y-73787000D03*
%TD*%
D19*
%TO.C,D2*%
X171450000Y-95250000D03*
D20*
X171450000Y-85090000D03*
%TD*%
D18*
%TO.C,C5*%
X157480000Y-67310000D03*
X159980000Y-67310000D03*
%TD*%
D10*
%TO.C,R3*%
X176174400Y-61620400D03*
D11*
X168554400Y-61620400D03*
%TD*%
D10*
%TO.C,R5*%
X158750000Y-72390000D03*
D11*
X158750000Y-80010000D03*
%TD*%
D18*
%TO.C,R1*%
X189230000Y-61595000D03*
D17*
X179070000Y-61595000D03*
%TD*%
D21*
%TO.C,JP1*%
X139636500Y-85843500D03*
X139636500Y-80843500D03*
%TD*%
D22*
%TO.C,RV1*%
X181610000Y-92710000D03*
X186610000Y-92710000D03*
X191610000Y-92710000D03*
%TD*%
D18*
%TO.C,C4*%
X184912000Y-67056000D03*
X184912000Y-70556000D03*
%TD*%
D23*
%TO.C,J1*%
X119062500Y-60706000D03*
D24*
X119062500Y-67056000D03*
%TD*%
D19*
%TO.C,D3*%
X165074600Y-61620400D03*
D20*
X154914600Y-61620400D03*
%TD*%
D21*
%TO.C,SW1*%
X137541000Y-93091000D03*
X141605000Y-93091000D03*
%TD*%
D25*
%TO.C,D5*%
X147320000Y-94239000D03*
D26*
X147320000Y-91699000D03*
%TD*%
D18*
%TO.C,C6*%
X183047000Y-78740000D03*
X188047000Y-78740000D03*
%TD*%
D24*
%TO.C,F1*%
X130810000Y-60365000D03*
D27*
X130810000Y-67985000D03*
D28*
X130810000Y-94575000D03*
X130810000Y-86955000D03*
%TD*%
D18*
%TO.C,C8*%
X152400000Y-74930000D03*
X147400000Y-74930000D03*
%TD*%
D20*
%TO.C,D4*%
X175006000Y-95250000D03*
D19*
X175006000Y-85090000D03*
%TD*%
D18*
%TO.C,C2*%
X175210000Y-67300000D03*
X170210000Y-67300000D03*
%TD*%
%TO.C,C1*%
X165090000Y-72420000D03*
X165090000Y-77420000D03*
%TD*%
D12*
%TO.C,Q3*%
X168910000Y-50800000D03*
D13*
X171450000Y-50800000D03*
X173990000Y-50800000D03*
%TD*%
D16*
%TO.C,U1*%
X168910000Y-78720000D03*
D17*
X171450000Y-78720000D03*
X173990000Y-78720000D03*
X176530000Y-78720000D03*
X176530000Y-71100000D03*
X173990000Y-71100000D03*
X171450000Y-71100000D03*
X168910000Y-71100000D03*
%TD*%
D12*
%TO.C,Q1*%
X148590000Y-50800000D03*
D13*
X151130000Y-50800000D03*
X153670000Y-50800000D03*
%TD*%
D23*
%TO.C,J3*%
X118935500Y-74422000D03*
D24*
X118935500Y-80772000D03*
%TD*%
D10*
%TO.C,R2*%
X161290000Y-72390000D03*
D11*
X161290000Y-80010000D03*
%TD*%
M02*
