M48
; DRILL file {KiCad (6.0.8)} date Thu Nov 10 19:15:57 2022
; FORMAT={-:-/ absolute / metric / decimal}
; #@! TF.CreationDate,2022-11-10T19:15:57+02:00
; #@! TF.GenerationSoftware,Kicad,Pcbnew,(6.0.8)
; #@! TF.FileFunction,Plated,1,2,PTH
FMAT,2
METRIC
; #@! TA.AperFunction,Plated,PTH,ViaDrill
T1C0.400
; #@! TA.AperFunction,Plated,PTH,ComponentDrill
T2C0.700
; #@! TA.AperFunction,Plated,PTH,ComponentDrill
T3C0.800
; #@! TA.AperFunction,Plated,PTH,ComponentDrill
T4C0.900
; #@! TA.AperFunction,Plated,PTH,ComponentDrill
T5C1.100
; #@! TA.AperFunction,Plated,PTH,ViaDrill
T6C1.200
; #@! TA.AperFunction,Plated,PTH,ComponentDrill
T7C1.300
; #@! TA.AperFunction,Plated,PTH,ViaDrill
T8C1.500
; #@! TA.AperFunction,Plated,PTH,ComponentDrill
T9C1.500
; #@! TA.AperFunction,Plated,PTH,ComponentDrill
T10C1.700
; #@! TA.AperFunction,Plated,PTH,ComponentDrill
T11C1.980
; #@! TA.AperFunction,Plated,PTH,ViaDrill
T12C2.000
%
G90
G05
T1
X112.268Y-50.292
X112.268Y-53.34
X112.268Y-58.674
X112.268Y-61.722
X112.268Y-66.04
X112.268Y-68.58
X112.268Y-72.39
X112.268Y-74.168
X112.268Y-75.946
X113.919Y-50.292
X113.919Y-53.34
X113.919Y-58.674
X113.919Y-61.722
X113.919Y-66.04
X113.919Y-68.58
X114.046Y-72.39
X114.046Y-74.168
X114.046Y-75.946
X114.3Y-79.756
X114.3Y-81.534
X114.3Y-83.312
X115.57Y-50.292
X115.57Y-53.34
X115.57Y-58.674
X115.57Y-61.722
X115.57Y-66.04
X115.57Y-68.58
X115.57Y-72.39
X115.57Y-74.168
X115.57Y-75.946
X115.57Y-79.756
X115.57Y-81.534
X115.57Y-83.312
X123.698Y-84.709
X123.698Y-86.36
X123.698Y-88.011
X125.476Y-84.709
X125.476Y-86.36
X125.476Y-88.011
X127.762Y-61.976
X127.762Y-64.262
X133.858Y-61.976
X133.858Y-64.262
X133.858Y-66.548
X135.128Y-48.006
X135.128Y-50.038
X136.567Y-48.006
X136.567Y-50.038
X138.007Y-48.006
X138.007Y-50.038
X138.176Y-62.484
X138.43Y-75.438
X139.446Y-48.006
X139.446Y-50.038
X139.446Y-55.626
X139.446Y-57.15
X139.446Y-74.422
X140.335Y-62.484
X140.462Y-73.406
X140.885Y-48.006
X140.885Y-50.038
X141.478Y-72.39
X142.325Y-48.006
X142.325Y-50.038
X142.494Y-62.484
X142.494Y-71.374
X143.256Y-55.626
X143.256Y-57.15
X143.51Y-70.358
X143.764Y-48.006
X143.764Y-50.038
X144.526Y-69.342
X145.542Y-68.326
X147.066Y-55.626
X147.066Y-57.15
X147.32Y-96.266
X148.336Y-96.266
X155.448Y-69.596
X156.972Y-73.914
X156.972Y-77.978
X162.56Y-69.596
X166.116Y-65.278
X166.37Y-81.026
X168.148Y-95.25
X179.324Y-79.502
X179.629Y-85.192
X181.661Y-88.392
X182.372Y-74.676
X186.944Y-63.754
X188.849Y-64.389
X188.976Y-72.39
X191.516Y-88.138
X201.676Y-64.77
X201.676Y-68.326
T2
X158.75Y-72.39
X158.75Y-80.01
X161.29Y-72.39
X161.29Y-80.01
X168.554Y-61.62
X176.174Y-61.62
X191.77Y-78.74
X199.39Y-78.74
T3
X147.4Y-74.93
X152.4Y-74.93
X157.48Y-67.31
X159.98Y-67.31
X165.09Y-72.42
X165.09Y-77.42
X168.91Y-71.1
X168.91Y-78.72
X170.21Y-67.3
X171.45Y-71.1
X171.45Y-78.72
X173.99Y-71.1
X173.99Y-78.72
X175.21Y-67.3
X176.53Y-71.1
X176.53Y-78.72
X179.07Y-61.595
X183.047Y-78.74
X184.912Y-67.056
X184.912Y-70.556
X188.047Y-78.74
X189.23Y-61.595
X191.81Y-73.787
X191.897Y-62.992
X191.897Y-70.612
X194.437Y-62.992
X194.437Y-70.612
X196.81Y-73.787
X196.977Y-62.992
X196.977Y-70.612
X199.517Y-62.992
X199.517Y-70.612
T4
X147.32Y-91.699
X147.32Y-94.239
T5
X128.27Y-54.61
X130.81Y-54.61
X133.35Y-54.61
X148.59Y-50.8
X151.13Y-50.8
X153.67Y-50.8
X154.915Y-61.62
X165.075Y-61.62
X168.91Y-50.8
X171.45Y-50.8
X171.45Y-85.09
X171.45Y-95.25
X173.99Y-50.8
X175.006Y-85.09
X175.006Y-95.25
X189.23Y-50.8
X191.77Y-50.8
X194.31Y-50.8
T6
X130.81Y-49.632
T7
X181.61Y-92.71
X186.61Y-92.71
X191.61Y-92.71
T8
X151.13Y-44.704
X171.45Y-44.704
X191.77Y-44.704
T9
X137.541Y-93.091
X139.636Y-80.843
X139.636Y-85.843
X141.605Y-93.091
T10
X115.993Y-87.638
X115.993Y-92.638
X118.935Y-74.422
X118.935Y-80.772
X119.062Y-67.056
T11
X130.81Y-60.365
X130.81Y-67.985
X130.81Y-86.955
X130.81Y-94.575
T12
X114.046Y-45.72
X123.444Y-94.742
X199.39Y-93.98
X199.517Y-55.118
T10
X119.062Y-60.706G85X119.062Y-60.706
G05
T0
M30
