%TF.GenerationSoftware,KiCad,Pcbnew,(6.0.8)*%
%TF.CreationDate,2022-11-10T19:09:55+02:00*%
%TF.ProjectId,DCMotorDriver,44434d6f-746f-4724-9472-697665722e6b,1.0*%
%TF.SameCoordinates,Original*%
%TF.FileFunction,Legend,Top*%
%TF.FilePolarity,Positive*%
%FSLAX46Y46*%
G04 Gerber Fmt 4.6, Leading zero omitted, Abs format (unit mm)*
G04 Created by KiCad (PCBNEW (6.0.8)) date 2022-11-10 19:09:55*
%MOMM*%
%LPD*%
G01*
G04 APERTURE LIST*
%ADD10C,0.375000*%
%ADD11C,0.000000*%
%ADD12C,0.200000*%
%ADD13C,0.150000*%
%ADD14C,0.300000*%
%ADD15C,0.120000*%
G04 APERTURE END LIST*
D10*
X120650095Y-92598857D02*
X122173904Y-92598857D01*
D11*
G36*
X153869104Y-83129121D02*
G01*
X153890728Y-83132213D01*
X153915218Y-83137562D01*
X153943067Y-83145160D01*
X153974764Y-83154996D01*
X154010802Y-83167062D01*
X154097859Y-83197839D01*
X154145749Y-83217601D01*
X154193806Y-83244078D01*
X154241882Y-83277075D01*
X154289831Y-83316395D01*
X154337505Y-83361841D01*
X154384756Y-83413218D01*
X154431439Y-83470330D01*
X154477404Y-83532978D01*
X154522505Y-83600968D01*
X154566595Y-83674103D01*
X154609527Y-83752187D01*
X154651153Y-83835022D01*
X154691325Y-83922414D01*
X154729897Y-84014164D01*
X154766721Y-84110078D01*
X154801651Y-84209959D01*
X154844316Y-84351621D01*
X154877790Y-84501216D01*
X154903567Y-84683015D01*
X154923139Y-84921291D01*
X154937997Y-85240315D01*
X154949636Y-85664357D01*
X154969220Y-86924584D01*
X154977808Y-87673829D01*
X154980767Y-87978033D01*
X154982626Y-88239585D01*
X154983094Y-88355373D01*
X154983228Y-88461706D01*
X154983009Y-88558986D01*
X154982416Y-88647617D01*
X154981431Y-88727999D01*
X154980034Y-88800537D01*
X154978204Y-88865632D01*
X154975923Y-88923687D01*
X154973171Y-88975105D01*
X154969927Y-89020289D01*
X154966173Y-89059640D01*
X154964099Y-89077254D01*
X154961889Y-89093561D01*
X154959542Y-89108611D01*
X154957055Y-89122455D01*
X154954426Y-89135143D01*
X154951652Y-89146725D01*
X154948730Y-89157252D01*
X154945659Y-89166773D01*
X154942436Y-89175339D01*
X154939058Y-89183001D01*
X154935523Y-89189809D01*
X154931828Y-89195813D01*
X154927971Y-89201063D01*
X154923950Y-89205610D01*
X154919762Y-89209504D01*
X154915405Y-89212796D01*
X154910876Y-89215535D01*
X154906172Y-89217772D01*
X154901292Y-89219557D01*
X154896233Y-89220942D01*
X154890992Y-89221975D01*
X154885566Y-89222707D01*
X154874154Y-89223472D01*
X154861976Y-89223637D01*
X154743080Y-89222904D01*
X154695405Y-89216567D01*
X154654818Y-89201434D01*
X154620751Y-89173890D01*
X154592634Y-89130321D01*
X154569898Y-89067116D01*
X154551972Y-88980661D01*
X154538289Y-88867342D01*
X154528277Y-88723546D01*
X154516992Y-88330072D01*
X154513431Y-87018422D01*
X154511926Y-86586473D01*
X154507671Y-86171883D01*
X154501060Y-85784470D01*
X154492485Y-85434054D01*
X154482339Y-85130452D01*
X154471015Y-84883484D01*
X154458906Y-84702967D01*
X154446404Y-84598720D01*
X154422623Y-84498686D01*
X154396604Y-84402324D01*
X154368464Y-84309849D01*
X154338321Y-84221479D01*
X154306293Y-84137430D01*
X154272498Y-84057916D01*
X154237053Y-83983154D01*
X154200077Y-83913361D01*
X154161686Y-83848752D01*
X154141998Y-83818459D01*
X154122000Y-83789543D01*
X154101707Y-83762031D01*
X154081135Y-83735950D01*
X154060298Y-83711328D01*
X154039210Y-83688190D01*
X154017887Y-83666564D01*
X153996342Y-83646478D01*
X153974592Y-83627957D01*
X153952650Y-83611029D01*
X153930531Y-83595722D01*
X153908250Y-83582062D01*
X153885823Y-83570075D01*
X153863262Y-83559790D01*
X153842427Y-83550305D01*
X153822653Y-83540704D01*
X153803939Y-83530988D01*
X153786285Y-83521157D01*
X153769692Y-83511214D01*
X153754159Y-83501159D01*
X153739686Y-83490993D01*
X153726274Y-83480718D01*
X153713922Y-83470335D01*
X153702631Y-83459845D01*
X153692400Y-83449250D01*
X153683230Y-83438551D01*
X153675120Y-83427748D01*
X153668070Y-83416844D01*
X153662081Y-83405838D01*
X153657152Y-83394734D01*
X153653283Y-83383531D01*
X153650475Y-83372231D01*
X153648727Y-83360836D01*
X153648040Y-83349346D01*
X153648413Y-83337763D01*
X153649847Y-83326088D01*
X153652341Y-83314322D01*
X153655895Y-83302466D01*
X153660510Y-83290522D01*
X153666185Y-83278491D01*
X153672920Y-83266374D01*
X153680716Y-83254172D01*
X153689572Y-83241887D01*
X153699489Y-83229519D01*
X153710466Y-83217071D01*
X153722504Y-83204542D01*
X153740416Y-83186867D01*
X153756777Y-83171539D01*
X153772077Y-83158548D01*
X153786808Y-83147883D01*
X153801461Y-83139536D01*
X153808911Y-83136228D01*
X153816526Y-83133496D01*
X153824366Y-83131338D01*
X153832494Y-83129753D01*
X153840970Y-83128740D01*
X153849856Y-83128298D01*
X153869104Y-83129121D01*
G37*
G36*
X153274648Y-92915885D02*
G01*
X153275504Y-92877403D01*
X154347990Y-92877403D01*
X154351727Y-92990597D01*
X154362749Y-93103478D01*
X154381030Y-93215612D01*
X154406546Y-93326568D01*
X154439269Y-93435913D01*
X154479174Y-93543217D01*
X154526236Y-93648046D01*
X154580429Y-93749968D01*
X154641727Y-93848553D01*
X154710104Y-93943367D01*
X154785534Y-94033979D01*
X154867992Y-94119957D01*
X154957451Y-94200868D01*
X155053887Y-94276281D01*
X155157273Y-94345763D01*
X155267583Y-94408883D01*
X155384793Y-94465209D01*
X155440643Y-94487778D01*
X155498707Y-94507759D01*
X155558765Y-94525191D01*
X155620594Y-94540117D01*
X155683975Y-94552579D01*
X155748687Y-94562618D01*
X155814508Y-94570276D01*
X155881217Y-94575595D01*
X156016418Y-94579381D01*
X156152522Y-94574312D01*
X156287763Y-94560720D01*
X156420372Y-94538939D01*
X156548582Y-94509303D01*
X156670626Y-94472147D01*
X156728784Y-94450853D01*
X156784737Y-94427803D01*
X156838265Y-94403040D01*
X156889147Y-94376606D01*
X156937162Y-94348542D01*
X156982089Y-94318889D01*
X157023708Y-94287691D01*
X157061796Y-94254987D01*
X157096134Y-94220821D01*
X157126500Y-94185233D01*
X157152674Y-94148266D01*
X157174434Y-94109961D01*
X157194465Y-94059458D01*
X157211836Y-93990280D01*
X157226556Y-93905274D01*
X157238634Y-93807289D01*
X157248081Y-93699171D01*
X157254907Y-93583767D01*
X157259120Y-93463925D01*
X157260732Y-93342493D01*
X157259752Y-93222318D01*
X157256190Y-93106246D01*
X157250055Y-92997127D01*
X157241357Y-92897806D01*
X157230107Y-92811131D01*
X157216313Y-92739950D01*
X157199987Y-92687110D01*
X157190877Y-92668458D01*
X157181137Y-92655458D01*
X157168237Y-92645718D01*
X157149888Y-92636607D01*
X157098295Y-92620269D01*
X157029264Y-92606444D01*
X156945702Y-92595134D01*
X156850514Y-92586336D01*
X156746608Y-92580052D01*
X156636890Y-92576282D01*
X156524265Y-92575025D01*
X156411640Y-92576282D01*
X156301921Y-92580052D01*
X156198015Y-92586336D01*
X156102828Y-92595134D01*
X156019265Y-92606444D01*
X155950235Y-92620269D01*
X155898642Y-92636607D01*
X155880292Y-92645718D01*
X155867393Y-92655458D01*
X155858757Y-92665023D01*
X155850465Y-92676051D01*
X155842547Y-92688434D01*
X155835031Y-92702064D01*
X155827947Y-92716832D01*
X155821324Y-92732632D01*
X155815192Y-92749355D01*
X155809581Y-92766892D01*
X155804520Y-92785137D01*
X155800037Y-92803980D01*
X155796164Y-92823314D01*
X155792929Y-92843032D01*
X155790361Y-92863024D01*
X155788491Y-92883183D01*
X155787347Y-92903400D01*
X155786959Y-92923569D01*
X155787430Y-92943363D01*
X155788839Y-92962529D01*
X155791184Y-92981067D01*
X155794460Y-92998976D01*
X155798665Y-93016256D01*
X155803793Y-93032908D01*
X155809842Y-93048932D01*
X155816807Y-93064328D01*
X155824686Y-93079095D01*
X155833474Y-93093234D01*
X155843168Y-93106744D01*
X155853764Y-93119626D01*
X155865259Y-93131879D01*
X155877648Y-93143504D01*
X155890928Y-93154501D01*
X155905096Y-93164870D01*
X155920147Y-93174610D01*
X155936078Y-93183721D01*
X155952885Y-93192204D01*
X155970566Y-93200059D01*
X156008529Y-93213884D01*
X156049939Y-93225195D01*
X156094765Y-93233992D01*
X156142979Y-93240276D01*
X156194551Y-93244046D01*
X156249451Y-93245303D01*
X156283817Y-93245580D01*
X156314188Y-93246573D01*
X156340807Y-93248528D01*
X156363922Y-93251692D01*
X156374241Y-93253803D01*
X156383776Y-93256308D01*
X156392558Y-93259238D01*
X156400617Y-93262623D01*
X156407983Y-93266494D01*
X156414688Y-93270882D01*
X156420763Y-93275817D01*
X156426237Y-93281331D01*
X156431141Y-93287453D01*
X156435507Y-93294214D01*
X156439365Y-93301646D01*
X156442745Y-93309778D01*
X156445678Y-93318642D01*
X156448196Y-93328268D01*
X156450328Y-93338687D01*
X156452105Y-93349929D01*
X156454719Y-93375007D01*
X156456281Y-93403747D01*
X156457039Y-93436395D01*
X156457237Y-93473197D01*
X156456239Y-93518634D01*
X156453022Y-93559574D01*
X156447252Y-93596233D01*
X156443305Y-93613024D01*
X156438595Y-93628827D01*
X156433080Y-93643667D01*
X156426718Y-93657572D01*
X156419467Y-93670569D01*
X156411286Y-93682685D01*
X156402133Y-93693946D01*
X156391967Y-93704381D01*
X156380745Y-93714015D01*
X156368425Y-93722875D01*
X156354967Y-93730990D01*
X156340328Y-93738385D01*
X156324466Y-93745089D01*
X156307341Y-93751127D01*
X156269130Y-93761315D01*
X156225363Y-93769167D01*
X156175704Y-93774897D01*
X156119820Y-93778723D01*
X156057378Y-93780860D01*
X155988042Y-93781525D01*
X155948980Y-93780166D01*
X155909772Y-93776149D01*
X155870511Y-93769568D01*
X155831286Y-93760513D01*
X155792190Y-93749078D01*
X155753311Y-93735353D01*
X155714742Y-93719432D01*
X155676573Y-93701406D01*
X155638895Y-93681367D01*
X155601798Y-93659407D01*
X155565374Y-93635619D01*
X155529714Y-93610093D01*
X155461046Y-93554202D01*
X155396522Y-93492468D01*
X155336868Y-93425628D01*
X155282811Y-93354419D01*
X155258108Y-93317407D01*
X155235076Y-93279578D01*
X155213807Y-93241025D01*
X155194392Y-93201840D01*
X155176920Y-93162114D01*
X155161483Y-93121941D01*
X155148172Y-93081412D01*
X155137078Y-93040620D01*
X155128291Y-92999655D01*
X155121902Y-92958610D01*
X155118002Y-92917578D01*
X155116681Y-92876650D01*
X155117577Y-92842687D01*
X155120236Y-92808698D01*
X155124612Y-92774736D01*
X155130663Y-92740854D01*
X155138343Y-92707104D01*
X155147610Y-92673540D01*
X155158417Y-92640213D01*
X155170723Y-92607178D01*
X155184481Y-92574486D01*
X155199648Y-92542191D01*
X155216180Y-92510344D01*
X155234032Y-92479000D01*
X155273523Y-92418029D01*
X155317765Y-92359699D01*
X155366406Y-92304432D01*
X155419092Y-92252651D01*
X155475470Y-92204777D01*
X155504933Y-92182438D01*
X155535186Y-92161234D01*
X155566186Y-92141217D01*
X155597887Y-92122442D01*
X155630247Y-92104961D01*
X155663220Y-92088825D01*
X155696762Y-92074089D01*
X155730830Y-92060805D01*
X155765379Y-92049025D01*
X155800365Y-92038803D01*
X155839244Y-92028365D01*
X155875758Y-92019703D01*
X155910367Y-92012868D01*
X155943532Y-92007907D01*
X155975715Y-92004872D01*
X156007378Y-92003810D01*
X156038983Y-92004770D01*
X156070989Y-92007802D01*
X156103860Y-92012956D01*
X156138056Y-92020278D01*
X156174040Y-92029821D01*
X156212271Y-92041631D01*
X156253213Y-92055758D01*
X156297326Y-92072252D01*
X156396912Y-92112534D01*
X156465411Y-92141656D01*
X156527970Y-92166104D01*
X156557178Y-92176539D01*
X156585089Y-92185761D01*
X156611765Y-92193755D01*
X156637270Y-92200508D01*
X156661664Y-92206004D01*
X156685012Y-92210228D01*
X156707376Y-92213166D01*
X156728817Y-92214804D01*
X156749400Y-92215125D01*
X156769186Y-92214116D01*
X156788238Y-92211762D01*
X156806619Y-92208048D01*
X156824391Y-92202960D01*
X156841617Y-92196482D01*
X156858360Y-92188600D01*
X156874681Y-92179300D01*
X156890644Y-92168565D01*
X156906312Y-92156383D01*
X156921746Y-92142738D01*
X156937009Y-92127615D01*
X156952165Y-92110999D01*
X156967275Y-92092877D01*
X156982402Y-92073232D01*
X156997609Y-92052051D01*
X157012959Y-92029319D01*
X157028513Y-92005021D01*
X157060487Y-91951667D01*
X157071247Y-91931771D01*
X157080898Y-91912286D01*
X157089433Y-91893192D01*
X157096842Y-91874467D01*
X157103117Y-91856091D01*
X157108249Y-91838042D01*
X157112230Y-91820300D01*
X157115052Y-91802844D01*
X157116705Y-91785653D01*
X157117181Y-91768707D01*
X157116471Y-91751984D01*
X157114567Y-91735463D01*
X157111461Y-91719124D01*
X157107143Y-91702946D01*
X157101605Y-91686907D01*
X157094839Y-91670988D01*
X157086835Y-91655167D01*
X157077586Y-91639423D01*
X157067082Y-91623736D01*
X157055316Y-91608084D01*
X157042278Y-91592447D01*
X157027960Y-91576804D01*
X157012353Y-91561134D01*
X156995449Y-91545416D01*
X156977239Y-91529629D01*
X156957715Y-91513752D01*
X156914688Y-91481648D01*
X156866301Y-91448934D01*
X156812484Y-91415445D01*
X156724677Y-91368468D01*
X156632530Y-91328060D01*
X156536574Y-91294191D01*
X156437338Y-91266831D01*
X156335353Y-91245952D01*
X156231149Y-91231524D01*
X156125256Y-91223517D01*
X156018205Y-91221902D01*
X155910525Y-91226649D01*
X155802747Y-91237729D01*
X155695402Y-91255113D01*
X155589018Y-91278771D01*
X155484127Y-91308673D01*
X155381258Y-91344790D01*
X155280942Y-91387093D01*
X155183709Y-91435553D01*
X155075073Y-91501618D01*
X154974108Y-91573850D01*
X154880790Y-91651816D01*
X154795092Y-91735083D01*
X154716989Y-91823221D01*
X154646454Y-91915796D01*
X154583463Y-92012378D01*
X154527989Y-92112533D01*
X154480007Y-92215831D01*
X154439490Y-92321838D01*
X154406413Y-92430123D01*
X154380750Y-92540254D01*
X154362476Y-92651799D01*
X154351565Y-92764326D01*
X154347990Y-92877403D01*
X153275504Y-92877403D01*
X153276510Y-92832112D01*
X153279492Y-92756105D01*
X153283809Y-92686735D01*
X153289677Y-92622874D01*
X153297313Y-92563392D01*
X153306931Y-92507159D01*
X153318750Y-92453048D01*
X153332983Y-92399928D01*
X153349848Y-92346671D01*
X153369561Y-92292147D01*
X153392336Y-92235228D01*
X153418391Y-92174783D01*
X153481204Y-92038803D01*
X153507275Y-91985871D01*
X153535192Y-91932684D01*
X153564916Y-91879301D01*
X153596408Y-91825780D01*
X153629627Y-91772181D01*
X153664535Y-91718562D01*
X153701093Y-91664982D01*
X153739261Y-91611501D01*
X153778999Y-91558176D01*
X153820270Y-91505068D01*
X153863033Y-91452235D01*
X153907249Y-91399735D01*
X153952879Y-91347628D01*
X153999883Y-91295973D01*
X154048223Y-91244829D01*
X154097859Y-91194253D01*
X154513431Y-90785383D01*
X154513431Y-89625803D01*
X154975923Y-89625803D01*
X154996031Y-90074889D01*
X155016140Y-90530678D01*
X155820473Y-90530678D01*
X155992585Y-90529448D01*
X156150480Y-90525861D01*
X156291880Y-90520074D01*
X156355682Y-90516405D01*
X156414507Y-90512246D01*
X156468068Y-90507614D01*
X156516083Y-90502532D01*
X156558265Y-90497017D01*
X156594330Y-90491090D01*
X156623993Y-90484770D01*
X156646970Y-90478077D01*
X156655862Y-90474597D01*
X156662976Y-90471031D01*
X156668276Y-90467381D01*
X156671726Y-90463650D01*
X156676747Y-90455365D01*
X156681728Y-90443241D01*
X156686630Y-90427523D01*
X156691415Y-90408457D01*
X156700475Y-90361263D01*
X156708591Y-90303622D01*
X156715451Y-90237497D01*
X156720740Y-90164853D01*
X156724144Y-90087653D01*
X156725348Y-90007862D01*
X156725741Y-89881752D01*
X156726673Y-89830731D01*
X156728490Y-89786984D01*
X156729822Y-89767664D01*
X156731485Y-89749954D01*
X156733516Y-89733782D01*
X156735952Y-89719079D01*
X156738830Y-89705776D01*
X156742187Y-89693801D01*
X156746059Y-89683086D01*
X156750483Y-89673561D01*
X156755497Y-89665154D01*
X156761136Y-89657797D01*
X156767439Y-89651419D01*
X156774441Y-89645951D01*
X156782179Y-89641322D01*
X156790690Y-89637463D01*
X156800012Y-89634303D01*
X156810180Y-89631773D01*
X156821232Y-89629802D01*
X156833205Y-89628322D01*
X156846134Y-89627261D01*
X156860058Y-89626549D01*
X156891036Y-89625896D01*
X156926431Y-89625803D01*
X157127515Y-89625803D01*
X157127515Y-90758573D01*
X157616818Y-91247875D01*
X157754434Y-91390204D01*
X157814052Y-91454182D01*
X157868172Y-91514310D01*
X157917264Y-91571297D01*
X157961801Y-91625849D01*
X158002254Y-91678673D01*
X158039093Y-91730475D01*
X158072790Y-91781964D01*
X158103816Y-91833845D01*
X158132643Y-91886826D01*
X158159743Y-91941613D01*
X158185585Y-91998914D01*
X158210642Y-92059435D01*
X158235384Y-92123884D01*
X158260284Y-92192967D01*
X158305345Y-92327232D01*
X158324114Y-92388788D01*
X158340508Y-92447673D01*
X158354624Y-92504672D01*
X158366560Y-92560573D01*
X158376414Y-92616158D01*
X158384286Y-92672216D01*
X158390272Y-92729530D01*
X158394471Y-92788886D01*
X158396981Y-92851070D01*
X158397901Y-92916867D01*
X158395361Y-93062443D01*
X158387637Y-93231897D01*
X158374046Y-93417039D01*
X158350863Y-93595445D01*
X158335671Y-93682128D01*
X158318078Y-93767134D01*
X158298081Y-93850467D01*
X158275680Y-93932128D01*
X158250873Y-94012120D01*
X158223659Y-94090445D01*
X158194038Y-94167106D01*
X158162007Y-94242105D01*
X158127566Y-94315445D01*
X158090713Y-94387128D01*
X158051448Y-94457157D01*
X158009768Y-94525533D01*
X157965673Y-94592260D01*
X157919161Y-94657340D01*
X157870231Y-94720776D01*
X157818883Y-94782569D01*
X157765114Y-94842723D01*
X157708923Y-94901239D01*
X157650310Y-94958121D01*
X157589273Y-95013370D01*
X157525811Y-95066989D01*
X157459922Y-95118981D01*
X157391606Y-95169348D01*
X157320861Y-95218093D01*
X157247686Y-95265217D01*
X157172079Y-95310724D01*
X157013567Y-95396894D01*
X156868358Y-95468269D01*
X156805317Y-95497574D01*
X156746713Y-95522991D01*
X156691094Y-95544794D01*
X156637008Y-95563260D01*
X156582999Y-95578662D01*
X156527616Y-95591275D01*
X156469405Y-95601376D01*
X156406914Y-95609237D01*
X156338688Y-95615135D01*
X156263275Y-95619343D01*
X156085076Y-95623795D01*
X155860690Y-95624790D01*
X155646594Y-95623611D01*
X155554617Y-95621873D01*
X155471300Y-95619134D01*
X155395603Y-95615216D01*
X155326484Y-95609944D01*
X155262902Y-95603140D01*
X155203818Y-95594627D01*
X155148189Y-95584229D01*
X155094976Y-95571769D01*
X155043137Y-95557071D01*
X154991633Y-95539957D01*
X154939421Y-95520252D01*
X154885462Y-95497777D01*
X154828714Y-95472357D01*
X154768137Y-95443815D01*
X154668936Y-95395282D01*
X154572434Y-95342723D01*
X154478662Y-95286198D01*
X154387650Y-95225764D01*
X154299425Y-95161483D01*
X154214019Y-95093411D01*
X154131460Y-95021608D01*
X154051778Y-94946133D01*
X153975002Y-94867045D01*
X153901162Y-94784402D01*
X153830287Y-94698264D01*
X153762406Y-94608690D01*
X153697550Y-94515738D01*
X153635747Y-94419467D01*
X153577028Y-94319937D01*
X153521420Y-94217206D01*
X153445608Y-94067139D01*
X153414482Y-94001988D01*
X153387470Y-93941658D01*
X153364267Y-93884824D01*
X153344569Y-93830159D01*
X153328072Y-93776339D01*
X153314472Y-93722038D01*
X153303464Y-93665930D01*
X153294743Y-93606690D01*
X153288006Y-93542992D01*
X153282948Y-93473511D01*
X153279265Y-93396922D01*
X153276651Y-93311899D01*
X153274616Y-93185607D01*
X153712449Y-93185607D01*
X153713065Y-93241523D01*
X153716115Y-93303508D01*
X153721522Y-93371736D01*
X153729206Y-93446387D01*
X153739603Y-93520288D01*
X153753151Y-93593641D01*
X153769781Y-93666372D01*
X153789427Y-93738402D01*
X153812017Y-93809657D01*
X153837485Y-93880061D01*
X153896776Y-94018008D01*
X153966749Y-94151634D01*
X154046855Y-94280332D01*
X154136544Y-94403493D01*
X154235266Y-94520506D01*
X154342471Y-94630765D01*
X154457610Y-94733660D01*
X154580132Y-94828582D01*
X154709488Y-94914923D01*
X154845127Y-94992074D01*
X154986501Y-95059426D01*
X155059166Y-95089237D01*
X155133059Y-95116370D01*
X155208110Y-95140749D01*
X155284251Y-95162298D01*
X155373683Y-95185702D01*
X155456154Y-95205630D01*
X155494861Y-95214285D01*
X155531928Y-95222063D01*
X155567387Y-95228962D01*
X155601271Y-95234981D01*
X155633614Y-95240115D01*
X155664449Y-95244364D01*
X155693808Y-95247724D01*
X155721725Y-95250193D01*
X155748233Y-95251768D01*
X155773365Y-95252448D01*
X155797155Y-95252229D01*
X155819635Y-95251109D01*
X155840839Y-95249086D01*
X155860799Y-95246157D01*
X155879550Y-95242320D01*
X155897123Y-95237572D01*
X155913553Y-95231912D01*
X155928871Y-95225335D01*
X155943112Y-95217841D01*
X155956309Y-95209426D01*
X155968495Y-95200088D01*
X155979702Y-95189825D01*
X155989964Y-95178634D01*
X155999314Y-95166513D01*
X156007786Y-95153458D01*
X156015412Y-95139469D01*
X156022225Y-95124542D01*
X156028259Y-95108675D01*
X156032642Y-95091830D01*
X156035749Y-95075238D01*
X156037602Y-95058919D01*
X156038222Y-95042891D01*
X156037629Y-95027172D01*
X156035844Y-95011781D01*
X156032889Y-94996736D01*
X156028783Y-94982056D01*
X156023548Y-94967758D01*
X156017205Y-94953862D01*
X156009775Y-94940385D01*
X156001278Y-94927347D01*
X155991735Y-94914765D01*
X155981168Y-94902658D01*
X155969597Y-94891045D01*
X155957042Y-94879943D01*
X155943526Y-94869372D01*
X155929068Y-94859349D01*
X155913689Y-94849893D01*
X155897411Y-94841022D01*
X155880254Y-94832756D01*
X155862239Y-94825111D01*
X155843388Y-94818108D01*
X155823720Y-94811763D01*
X155782019Y-94801125D01*
X155737304Y-94793343D01*
X155689741Y-94788567D01*
X155639498Y-94786942D01*
X155574734Y-94784860D01*
X155509966Y-94778689D01*
X155445305Y-94768545D01*
X155380865Y-94754541D01*
X155316759Y-94736791D01*
X155253100Y-94715409D01*
X155190000Y-94690510D01*
X155127573Y-94662207D01*
X155065932Y-94630616D01*
X155005189Y-94595849D01*
X154945457Y-94558021D01*
X154886849Y-94517247D01*
X154773459Y-94427314D01*
X154665920Y-94326964D01*
X154565136Y-94217109D01*
X154472010Y-94098664D01*
X154387447Y-93972540D01*
X154312348Y-93839651D01*
X154247618Y-93700910D01*
X154219423Y-93629631D01*
X154194159Y-93557231D01*
X154171939Y-93483824D01*
X154152876Y-93409526D01*
X154137082Y-93334449D01*
X154124670Y-93258708D01*
X154117184Y-93212013D01*
X154109707Y-93169805D01*
X154102093Y-93131858D01*
X154094194Y-93097946D01*
X154090091Y-93082433D01*
X154085863Y-93067844D01*
X154081489Y-93054151D01*
X154076952Y-93041326D01*
X154072234Y-93029340D01*
X154067315Y-93018166D01*
X154062179Y-93007774D01*
X154056805Y-92998138D01*
X154051176Y-92989228D01*
X154045273Y-92981016D01*
X154039078Y-92973474D01*
X154032573Y-92966574D01*
X154025738Y-92960288D01*
X154018557Y-92954588D01*
X154011009Y-92949444D01*
X154003078Y-92944830D01*
X153994744Y-92940716D01*
X153985989Y-92937075D01*
X153976794Y-92933878D01*
X153967142Y-92931097D01*
X153957014Y-92928704D01*
X153946390Y-92926670D01*
X153935254Y-92924968D01*
X153923587Y-92923569D01*
X153888856Y-92920457D01*
X153857502Y-92921292D01*
X153843067Y-92923244D01*
X153829447Y-92926250D01*
X153816632Y-92930331D01*
X153804613Y-92935509D01*
X153793379Y-92941806D01*
X153782920Y-92949245D01*
X153773228Y-92957848D01*
X153764291Y-92967635D01*
X153756101Y-92978631D01*
X153748647Y-92990856D01*
X153741920Y-93004333D01*
X153735909Y-93019085D01*
X153725999Y-93052497D01*
X153718838Y-93091270D01*
X153714348Y-93135581D01*
X153712449Y-93185607D01*
X153274616Y-93185607D01*
X153273418Y-93111248D01*
X153274648Y-92915885D01*
G37*
G36*
X157794204Y-83129689D02*
G01*
X157812006Y-83131798D01*
X157829146Y-83135132D01*
X157845595Y-83139693D01*
X157861320Y-83145484D01*
X157876292Y-83152507D01*
X157890479Y-83160765D01*
X157903852Y-83170260D01*
X157916379Y-83180994D01*
X157928030Y-83192971D01*
X157938773Y-83206192D01*
X157948579Y-83220660D01*
X157957417Y-83236377D01*
X157965256Y-83253347D01*
X157972065Y-83271570D01*
X157975049Y-83281488D01*
X157977715Y-83291139D01*
X157980060Y-83300529D01*
X157982079Y-83309666D01*
X157983770Y-83318558D01*
X157985128Y-83327212D01*
X157986150Y-83335635D01*
X157986832Y-83343835D01*
X157987170Y-83351818D01*
X157987161Y-83359593D01*
X157986800Y-83367167D01*
X157986085Y-83374547D01*
X157985012Y-83381740D01*
X157983577Y-83388754D01*
X157981776Y-83395597D01*
X157979605Y-83402275D01*
X157977062Y-83408795D01*
X157974141Y-83415166D01*
X157970840Y-83421395D01*
X157967155Y-83427488D01*
X157963083Y-83433454D01*
X157958618Y-83439300D01*
X157953759Y-83445033D01*
X157948500Y-83450660D01*
X157942839Y-83456189D01*
X157936772Y-83461627D01*
X157930295Y-83466982D01*
X157923404Y-83472261D01*
X157916096Y-83477471D01*
X157908367Y-83482620D01*
X157900213Y-83487714D01*
X157891631Y-83492762D01*
X157840821Y-83523070D01*
X157791483Y-83556137D01*
X157743676Y-83591895D01*
X157697460Y-83630274D01*
X157652894Y-83671205D01*
X157610036Y-83714621D01*
X157568946Y-83760452D01*
X157529681Y-83808630D01*
X157492302Y-83859086D01*
X157456867Y-83911751D01*
X157423435Y-83966556D01*
X157392065Y-84023433D01*
X157362815Y-84082313D01*
X157335746Y-84143127D01*
X157310915Y-84205807D01*
X157288381Y-84270284D01*
X157254278Y-84392047D01*
X157226695Y-84538081D01*
X157204610Y-84726374D01*
X157187002Y-84974914D01*
X157172850Y-85301687D01*
X157161133Y-85724682D01*
X157140920Y-86931287D01*
X157120812Y-89223637D01*
X156919729Y-89210230D01*
X156725348Y-89196825D01*
X156725348Y-87011720D01*
X156726644Y-86428487D01*
X156730689Y-85938962D01*
X156737719Y-85533169D01*
X156747970Y-85201132D01*
X156761677Y-84932877D01*
X156769900Y-84819550D01*
X156779075Y-84718427D01*
X156789232Y-84628262D01*
X156800401Y-84547808D01*
X156812610Y-84475817D01*
X156825890Y-84411042D01*
X156850403Y-84312610D01*
X156876213Y-84218351D01*
X156903358Y-84128195D01*
X156931877Y-84042075D01*
X156961811Y-83959922D01*
X156993197Y-83881667D01*
X157026076Y-83807241D01*
X157060487Y-83736575D01*
X157096469Y-83669601D01*
X157134060Y-83606251D01*
X157173302Y-83546454D01*
X157214232Y-83490143D01*
X157256890Y-83437249D01*
X157301316Y-83387703D01*
X157347548Y-83341437D01*
X157395626Y-83298381D01*
X157420089Y-83278862D01*
X157444442Y-83260524D01*
X157468655Y-83243369D01*
X157492698Y-83227400D01*
X157516540Y-83212618D01*
X157540150Y-83199027D01*
X157563497Y-83186630D01*
X157586550Y-83175427D01*
X157609280Y-83165422D01*
X157631655Y-83156618D01*
X157653645Y-83149016D01*
X157675218Y-83142620D01*
X157696345Y-83137431D01*
X157716994Y-83133453D01*
X157737136Y-83130687D01*
X157756738Y-83129136D01*
X157775771Y-83128803D01*
X157794204Y-83129689D01*
G37*
G36*
X160378361Y-85403054D02*
G01*
X160414134Y-85367944D01*
X160446175Y-85335201D01*
X160474681Y-85304362D01*
X160499849Y-85274967D01*
X160521876Y-85246554D01*
X160540956Y-85218661D01*
X160557288Y-85190828D01*
X160571066Y-85162591D01*
X160582489Y-85133491D01*
X160591751Y-85103065D01*
X160599049Y-85070852D01*
X160604580Y-85036391D01*
X160608540Y-84999219D01*
X160611126Y-84958877D01*
X160612533Y-84914901D01*
X160612959Y-84866831D01*
X160612541Y-84820979D01*
X160611191Y-84778700D01*
X160608761Y-84739642D01*
X160605104Y-84703451D01*
X160600072Y-84669774D01*
X160593518Y-84638256D01*
X160589624Y-84623197D01*
X160585295Y-84608545D01*
X160580512Y-84594257D01*
X160575256Y-84580287D01*
X160569509Y-84566593D01*
X160563252Y-84553129D01*
X160556468Y-84539852D01*
X160549138Y-84526718D01*
X160541244Y-84513681D01*
X160532766Y-84500699D01*
X160513988Y-84474719D01*
X160492657Y-84448425D01*
X160483235Y-84437853D01*
X161015126Y-84437853D01*
X161015554Y-84467579D01*
X161016824Y-84496416D01*
X161018914Y-84524336D01*
X161021802Y-84551316D01*
X161025466Y-84577328D01*
X161029883Y-84602348D01*
X161035032Y-84626349D01*
X161040890Y-84649305D01*
X161047435Y-84671191D01*
X161054645Y-84691981D01*
X161062499Y-84711650D01*
X161070974Y-84730170D01*
X161080047Y-84747518D01*
X161089697Y-84763666D01*
X161099903Y-84778590D01*
X161110640Y-84792263D01*
X161121889Y-84804659D01*
X161133625Y-84815754D01*
X161145829Y-84825520D01*
X161158476Y-84833933D01*
X161171546Y-84840966D01*
X161185016Y-84846594D01*
X161198863Y-84850791D01*
X161213067Y-84853531D01*
X161227605Y-84854788D01*
X161242454Y-84854537D01*
X161257593Y-84852752D01*
X161272999Y-84849407D01*
X161288651Y-84844476D01*
X161304527Y-84837934D01*
X161320603Y-84829755D01*
X161336859Y-84819912D01*
X161349778Y-84811139D01*
X161362135Y-84799998D01*
X161373918Y-84786636D01*
X161385114Y-84771199D01*
X161395711Y-84753832D01*
X161405697Y-84734682D01*
X161423786Y-84691616D01*
X161439282Y-84643170D01*
X161452089Y-84590512D01*
X161462107Y-84534810D01*
X161469239Y-84477232D01*
X161473385Y-84418948D01*
X161474449Y-84361125D01*
X161472332Y-84304932D01*
X161466935Y-84251537D01*
X161458160Y-84202109D01*
X161445910Y-84157816D01*
X161438451Y-84137960D01*
X161430086Y-84119826D01*
X161420803Y-84103561D01*
X161410589Y-84089309D01*
X161392942Y-84069155D01*
X161375220Y-84051396D01*
X161357462Y-84035994D01*
X161339713Y-84022910D01*
X161322012Y-84012103D01*
X161304402Y-84003534D01*
X161286925Y-83997165D01*
X161269621Y-83992957D01*
X161252534Y-83990869D01*
X161235705Y-83990862D01*
X161219175Y-83992898D01*
X161202986Y-83996937D01*
X161187181Y-84002939D01*
X161171800Y-84010866D01*
X161156885Y-84020678D01*
X161142478Y-84032336D01*
X161128622Y-84045800D01*
X161115356Y-84061032D01*
X161102724Y-84077992D01*
X161090767Y-84096640D01*
X161079527Y-84116938D01*
X161069046Y-84138847D01*
X161059364Y-84162326D01*
X161050525Y-84187337D01*
X161042569Y-84213841D01*
X161035538Y-84241797D01*
X161029475Y-84271168D01*
X161024421Y-84301913D01*
X161020417Y-84333993D01*
X161017505Y-84367369D01*
X161015728Y-84402002D01*
X161015126Y-84437853D01*
X160483235Y-84437853D01*
X160468626Y-84421463D01*
X160441748Y-84393480D01*
X160411875Y-84364123D01*
X160382948Y-84335184D01*
X160356484Y-84306202D01*
X160332472Y-84277213D01*
X160310902Y-84248251D01*
X160291761Y-84219354D01*
X160275040Y-84190556D01*
X160260726Y-84161893D01*
X160248810Y-84133401D01*
X160239279Y-84105115D01*
X160232123Y-84077070D01*
X160227331Y-84049303D01*
X160224892Y-84021849D01*
X160224794Y-83994744D01*
X160227027Y-83968022D01*
X160231580Y-83941721D01*
X160238441Y-83915874D01*
X160247600Y-83890519D01*
X160259046Y-83865690D01*
X160272766Y-83841424D01*
X160288752Y-83817755D01*
X160306990Y-83794719D01*
X160327471Y-83772352D01*
X160350183Y-83750690D01*
X160375115Y-83729768D01*
X160402257Y-83709621D01*
X160431596Y-83690286D01*
X160463123Y-83671797D01*
X160496825Y-83654191D01*
X160532693Y-83637503D01*
X160570715Y-83621769D01*
X160610879Y-83607024D01*
X160653175Y-83593304D01*
X160732129Y-83583014D01*
X160882641Y-83572567D01*
X161362832Y-83553087D01*
X162022741Y-83538634D01*
X162791361Y-83532978D01*
X163371020Y-83531551D01*
X163829244Y-83532874D01*
X164018071Y-83534836D01*
X164182842Y-83537809D01*
X164325659Y-83541902D01*
X164448623Y-83547222D01*
X164553835Y-83553877D01*
X164643396Y-83561976D01*
X164719408Y-83571626D01*
X164783971Y-83582935D01*
X164812616Y-83589246D01*
X164839187Y-83596012D01*
X164863947Y-83603247D01*
X164887157Y-83610964D01*
X164929983Y-83627899D01*
X164969764Y-83646926D01*
X164993773Y-83658998D01*
X165017940Y-83672493D01*
X165042107Y-83687265D01*
X165066116Y-83703166D01*
X165089812Y-83720049D01*
X165113036Y-83737767D01*
X165135631Y-83756171D01*
X165157442Y-83775116D01*
X165178309Y-83794454D01*
X165198077Y-83814037D01*
X165216588Y-83833718D01*
X165233685Y-83853350D01*
X165249212Y-83872786D01*
X165263010Y-83891878D01*
X165274923Y-83910479D01*
X165284793Y-83928443D01*
X165297577Y-83954897D01*
X165308201Y-83979211D01*
X165316547Y-84001757D01*
X165319829Y-84012485D01*
X165322497Y-84022910D01*
X165324537Y-84033080D01*
X165325934Y-84043041D01*
X165326673Y-84052840D01*
X165326739Y-84062524D01*
X165326118Y-84072139D01*
X165324795Y-84081733D01*
X165322755Y-84091350D01*
X165319984Y-84101039D01*
X165316466Y-84110846D01*
X165312188Y-84120817D01*
X165307134Y-84130999D01*
X165301290Y-84141439D01*
X165294640Y-84152183D01*
X165287170Y-84163279D01*
X165269713Y-84186709D01*
X165248800Y-84212103D01*
X165224312Y-84239833D01*
X165196133Y-84270274D01*
X165164144Y-84303798D01*
X165139637Y-84329393D01*
X165116387Y-84355862D01*
X165094394Y-84383136D01*
X165073657Y-84411147D01*
X165054177Y-84439825D01*
X165035954Y-84469102D01*
X165018987Y-84498910D01*
X165003278Y-84529179D01*
X164988825Y-84559840D01*
X164975629Y-84590826D01*
X164963689Y-84622067D01*
X164953007Y-84653494D01*
X164943581Y-84685040D01*
X164935412Y-84716634D01*
X164928500Y-84748209D01*
X164922844Y-84779695D01*
X164918477Y-84819601D01*
X164915553Y-84856698D01*
X164914258Y-84891479D01*
X164914780Y-84924433D01*
X164917305Y-84956052D01*
X164922020Y-84986827D01*
X164929110Y-85017248D01*
X164938764Y-85047806D01*
X164951166Y-85078993D01*
X164966504Y-85111299D01*
X164984965Y-85145216D01*
X165006734Y-85181234D01*
X165031999Y-85219843D01*
X165060945Y-85261536D01*
X165093761Y-85306803D01*
X165130631Y-85356134D01*
X165371929Y-85671165D01*
X165371929Y-87514428D01*
X165371823Y-87826755D01*
X165371393Y-88101812D01*
X165370472Y-88342071D01*
X165368892Y-88550007D01*
X165367804Y-88642628D01*
X165366489Y-88728096D01*
X165364925Y-88806720D01*
X165363093Y-88878810D01*
X165360971Y-88944675D01*
X165358539Y-89004625D01*
X165355775Y-89058968D01*
X165352660Y-89108014D01*
X165349171Y-89152072D01*
X165345288Y-89191451D01*
X165340990Y-89226462D01*
X165336256Y-89257412D01*
X165333720Y-89271462D01*
X165331066Y-89284612D01*
X165328293Y-89296902D01*
X165325399Y-89308370D01*
X165322379Y-89319056D01*
X165319233Y-89328997D01*
X165315957Y-89338232D01*
X165312548Y-89346800D01*
X165309004Y-89354740D01*
X165305323Y-89362090D01*
X165301501Y-89368889D01*
X165297537Y-89375176D01*
X165293427Y-89380988D01*
X165289169Y-89386366D01*
X165284761Y-89391348D01*
X165280199Y-89395971D01*
X165275482Y-89400276D01*
X165270605Y-89404300D01*
X165260367Y-89411661D01*
X165249464Y-89418365D01*
X165237875Y-89424720D01*
X165223677Y-89433257D01*
X165208812Y-89443689D01*
X165193397Y-89455869D01*
X165177550Y-89469649D01*
X165161389Y-89484883D01*
X165145031Y-89501422D01*
X165128595Y-89519120D01*
X165112198Y-89537829D01*
X165095958Y-89557402D01*
X165079993Y-89577692D01*
X165064421Y-89598552D01*
X165049359Y-89619834D01*
X165034926Y-89641390D01*
X165021239Y-89663074D01*
X165008416Y-89684739D01*
X164996575Y-89706236D01*
X164983379Y-89733410D01*
X164971437Y-89760876D01*
X164960746Y-89788613D01*
X164951305Y-89816597D01*
X164943111Y-89844806D01*
X164936162Y-89873220D01*
X164930454Y-89901815D01*
X164925986Y-89930570D01*
X164922755Y-89959462D01*
X164920759Y-89988470D01*
X164920461Y-90046743D01*
X164925073Y-90105212D01*
X164934574Y-90163701D01*
X164948945Y-90222033D01*
X164968166Y-90280031D01*
X164992218Y-90337518D01*
X165021081Y-90394319D01*
X165054736Y-90450255D01*
X165093163Y-90505150D01*
X165136341Y-90558828D01*
X165184252Y-90611111D01*
X165398742Y-90832303D01*
X165257983Y-91013278D01*
X165169250Y-91128613D01*
X165122988Y-91175490D01*
X165070934Y-91215828D01*
X165009689Y-91250117D01*
X164935857Y-91278849D01*
X164846041Y-91302515D01*
X164736842Y-91321606D01*
X164604865Y-91336612D01*
X164446711Y-91348024D01*
X164038287Y-91362032D01*
X163484392Y-91367557D01*
X162757847Y-91368525D01*
X162370934Y-91368295D01*
X162029981Y-91367308D01*
X161731777Y-91365123D01*
X161473113Y-91361299D01*
X161357605Y-91358634D01*
X161250778Y-91355393D01*
X161152230Y-91351522D01*
X161061560Y-91346964D01*
X160978367Y-91341665D01*
X160902250Y-91335569D01*
X160832807Y-91328622D01*
X160769636Y-91320768D01*
X160712337Y-91311952D01*
X160660508Y-91302118D01*
X160613748Y-91291211D01*
X160571655Y-91279177D01*
X160533829Y-91265959D01*
X160499867Y-91251503D01*
X160469369Y-91235754D01*
X160441933Y-91218655D01*
X160417158Y-91200153D01*
X160394642Y-91180191D01*
X160373985Y-91158715D01*
X160354784Y-91135669D01*
X160336639Y-91110998D01*
X160319148Y-91084647D01*
X160301909Y-91056561D01*
X160284523Y-91026684D01*
X160268129Y-90996824D01*
X160254229Y-90969723D01*
X160242961Y-90944841D01*
X160234462Y-90921639D01*
X160231293Y-90910498D01*
X160228868Y-90899575D01*
X160227204Y-90888801D01*
X160226319Y-90878110D01*
X160226228Y-90867433D01*
X160226950Y-90856704D01*
X160228502Y-90845854D01*
X160230901Y-90834817D01*
X160234163Y-90823524D01*
X160238307Y-90811908D01*
X160243349Y-90799902D01*
X160249307Y-90787439D01*
X160264038Y-90760868D01*
X160282638Y-90731656D01*
X160305243Y-90699263D01*
X160331992Y-90663149D01*
X160398470Y-90577597D01*
X160452590Y-90506419D01*
X160476881Y-90471160D01*
X160499326Y-90436106D01*
X160519925Y-90401248D01*
X160538679Y-90366578D01*
X160555586Y-90332084D01*
X160570648Y-90297756D01*
X160583863Y-90263586D01*
X160595233Y-90229564D01*
X160604757Y-90195678D01*
X160612435Y-90161921D01*
X160618267Y-90128281D01*
X160622254Y-90094749D01*
X160624394Y-90061315D01*
X160624689Y-90027970D01*
X160623137Y-89994703D01*
X160619740Y-89961505D01*
X160614497Y-89928366D01*
X160607408Y-89895276D01*
X160598473Y-89862225D01*
X160587693Y-89829204D01*
X160575066Y-89796202D01*
X160560594Y-89763210D01*
X160544275Y-89730218D01*
X160526111Y-89697217D01*
X160506101Y-89664195D01*
X160484245Y-89631145D01*
X160460543Y-89598055D01*
X160434995Y-89564915D01*
X160378361Y-89498451D01*
X160143764Y-89243745D01*
X160143764Y-87018422D01*
X161015126Y-87018422D01*
X161015885Y-87479710D01*
X161016981Y-87673927D01*
X161018687Y-87845797D01*
X161021099Y-87996773D01*
X161024316Y-88128309D01*
X161028436Y-88241856D01*
X161033558Y-88338870D01*
X161039780Y-88420802D01*
X161043334Y-88456567D01*
X161047200Y-88489107D01*
X161051389Y-88518602D01*
X161055915Y-88545236D01*
X161060790Y-88569189D01*
X161066025Y-88590643D01*
X161071633Y-88609780D01*
X161077627Y-88626782D01*
X161084018Y-88641830D01*
X161090820Y-88655105D01*
X161098043Y-88666790D01*
X161105701Y-88677066D01*
X161113806Y-88686114D01*
X161122370Y-88694117D01*
X161136045Y-88704798D01*
X161149456Y-88714212D01*
X161162650Y-88722350D01*
X161175678Y-88729202D01*
X161182144Y-88732142D01*
X161188588Y-88734758D01*
X161195014Y-88737046D01*
X161201429Y-88739007D01*
X161207839Y-88740640D01*
X161214250Y-88741942D01*
X161220669Y-88742912D01*
X161227101Y-88743550D01*
X161233552Y-88743854D01*
X161240030Y-88743823D01*
X161246540Y-88743456D01*
X161253087Y-88742751D01*
X161259679Y-88741708D01*
X161266321Y-88740325D01*
X161273019Y-88738600D01*
X161279780Y-88736533D01*
X161286610Y-88734122D01*
X161293515Y-88731367D01*
X161307573Y-88724816D01*
X161322005Y-88716871D01*
X161336859Y-88707522D01*
X161354712Y-88694303D01*
X161370661Y-88676234D01*
X161384842Y-88651763D01*
X161397393Y-88619339D01*
X161408452Y-88577411D01*
X161418156Y-88524427D01*
X161434049Y-88379087D01*
X161446172Y-88170908D01*
X161455624Y-87887480D01*
X161465560Y-87340156D01*
X161953514Y-87340156D01*
X161954548Y-87701608D01*
X161955944Y-87855245D01*
X161958017Y-87992210D01*
X161960837Y-88113544D01*
X161964471Y-88220288D01*
X161968990Y-88313482D01*
X161974460Y-88394168D01*
X161980952Y-88463385D01*
X161988533Y-88522175D01*
X161992754Y-88547985D01*
X161997274Y-88571579D01*
X162002100Y-88593086D01*
X162007241Y-88612636D01*
X162012706Y-88630361D01*
X162018504Y-88646389D01*
X162024644Y-88660852D01*
X162031133Y-88673878D01*
X162037980Y-88685598D01*
X162045194Y-88696143D01*
X162052784Y-88705642D01*
X162060758Y-88714226D01*
X162073255Y-88725830D01*
X162086814Y-88736764D01*
X162101359Y-88747022D01*
X162116816Y-88756602D01*
X162133107Y-88765500D01*
X162150156Y-88773711D01*
X162167888Y-88781233D01*
X162186226Y-88788061D01*
X162224417Y-88799622D01*
X162264120Y-88808365D01*
X162304726Y-88814261D01*
X162345626Y-88817281D01*
X162386213Y-88817394D01*
X162425876Y-88814571D01*
X162464008Y-88808783D01*
X162482309Y-88804768D01*
X162500000Y-88800000D01*
X162517002Y-88794477D01*
X162533242Y-88788193D01*
X162548642Y-88781147D01*
X162563126Y-88773333D01*
X162576619Y-88764749D01*
X162589044Y-88755390D01*
X162600325Y-88745253D01*
X162610386Y-88734334D01*
X162617994Y-88721604D01*
X162625690Y-88701304D01*
X162633406Y-88673876D01*
X162641073Y-88639762D01*
X162655984Y-88553241D01*
X162669874Y-88445276D01*
X162682193Y-88319403D01*
X162692391Y-88179155D01*
X162699918Y-88028068D01*
X162704225Y-87869675D01*
X162724333Y-87098856D01*
X163361097Y-87943406D01*
X163462486Y-88076609D01*
X163553566Y-88195271D01*
X163635181Y-88300246D01*
X163708175Y-88392388D01*
X163773393Y-88472551D01*
X163831679Y-88541590D01*
X163883878Y-88600359D01*
X163907958Y-88626159D01*
X163930834Y-88649711D01*
X163952609Y-88671124D01*
X163973390Y-88690502D01*
X163993283Y-88707954D01*
X164012393Y-88723586D01*
X164030825Y-88737504D01*
X164048685Y-88749816D01*
X164066079Y-88760628D01*
X164083112Y-88770047D01*
X164099890Y-88778180D01*
X164116518Y-88785133D01*
X164133102Y-88791014D01*
X164149747Y-88795929D01*
X164166559Y-88799984D01*
X164183644Y-88803287D01*
X164201107Y-88805945D01*
X164219053Y-88808064D01*
X164291100Y-88814402D01*
X164354300Y-88816979D01*
X164409233Y-88813764D01*
X164456478Y-88802723D01*
X164477399Y-88793633D01*
X164496614Y-88781824D01*
X164514198Y-88767043D01*
X164530222Y-88749036D01*
X164544758Y-88727547D01*
X164557879Y-88702324D01*
X164580165Y-88639657D01*
X164597660Y-88559003D01*
X164610943Y-88458329D01*
X164620593Y-88335602D01*
X164627189Y-88188791D01*
X164633538Y-87814783D01*
X164634625Y-87320047D01*
X164633420Y-87048951D01*
X164630017Y-86792623D01*
X164624728Y-86557031D01*
X164617868Y-86348145D01*
X164609751Y-86171935D01*
X164600692Y-86034371D01*
X164591004Y-85941422D01*
X164586023Y-85913544D01*
X164581003Y-85899059D01*
X164574235Y-85889202D01*
X164566528Y-85879744D01*
X164557926Y-85870691D01*
X164548470Y-85862050D01*
X164527172Y-85846024D01*
X164502978Y-85831717D01*
X164476231Y-85819177D01*
X164447274Y-85808454D01*
X164416452Y-85799596D01*
X164384108Y-85792652D01*
X164350586Y-85787673D01*
X164316230Y-85784706D01*
X164281382Y-85783801D01*
X164246387Y-85785007D01*
X164211589Y-85788373D01*
X164177330Y-85793948D01*
X164143956Y-85801782D01*
X164111808Y-85811922D01*
X164079644Y-85825424D01*
X164050868Y-85841391D01*
X164025253Y-85860715D01*
X164002574Y-85884291D01*
X163982605Y-85913012D01*
X163965120Y-85947771D01*
X163949893Y-85989462D01*
X163936698Y-86038979D01*
X163925310Y-86097214D01*
X163915503Y-86165062D01*
X163907051Y-86243415D01*
X163899728Y-86333168D01*
X163887566Y-86550446D01*
X163877211Y-86824042D01*
X163863805Y-87474211D01*
X163247150Y-86636364D01*
X163042807Y-86363946D01*
X162958913Y-86253515D01*
X162885514Y-86158686D01*
X162821345Y-86078271D01*
X162792326Y-86043097D01*
X162765139Y-86011081D01*
X162739627Y-85982075D01*
X162715629Y-85955929D01*
X162692990Y-85932496D01*
X162671549Y-85911626D01*
X162651149Y-85893172D01*
X162631632Y-85876985D01*
X162612839Y-85862916D01*
X162594611Y-85850817D01*
X162576791Y-85840539D01*
X162559220Y-85831935D01*
X162541740Y-85824854D01*
X162524193Y-85819149D01*
X162506419Y-85814672D01*
X162488262Y-85811273D01*
X162469562Y-85808805D01*
X162450161Y-85807118D01*
X162408624Y-85805497D01*
X162362384Y-85805220D01*
X162325996Y-85805619D01*
X162292162Y-85806844D01*
X162260762Y-85808932D01*
X162245938Y-85810312D01*
X162231679Y-85811923D01*
X162217970Y-85813770D01*
X162204796Y-85815857D01*
X162192143Y-85818190D01*
X162179995Y-85820773D01*
X162168338Y-85823611D01*
X162157157Y-85826710D01*
X162146437Y-85830073D01*
X162136165Y-85833707D01*
X162126324Y-85837616D01*
X162116901Y-85841804D01*
X162107880Y-85846277D01*
X162099247Y-85851040D01*
X162090987Y-85856097D01*
X162083086Y-85861454D01*
X162075528Y-85867115D01*
X162068299Y-85873086D01*
X162061384Y-85879370D01*
X162054769Y-85885974D01*
X162048438Y-85892902D01*
X162042378Y-85900158D01*
X162036573Y-85907749D01*
X162031008Y-85915678D01*
X162025669Y-85923951D01*
X162020541Y-85932573D01*
X162013161Y-85953388D01*
X162006115Y-85985357D01*
X161993102Y-86080871D01*
X161981660Y-86215346D01*
X161971947Y-86385010D01*
X161964118Y-86586093D01*
X161958332Y-86814826D01*
X161953514Y-87340156D01*
X161465560Y-87340156D01*
X161470914Y-87045234D01*
X161474371Y-86654038D01*
X161474685Y-86318611D01*
X161471857Y-86036911D01*
X161465887Y-85806896D01*
X161461724Y-85710632D01*
X161456776Y-85626523D01*
X161451042Y-85554314D01*
X161444522Y-85493751D01*
X161437217Y-85444576D01*
X161429127Y-85406536D01*
X161420251Y-85379374D01*
X161415518Y-85369793D01*
X161410589Y-85362837D01*
X161402672Y-85352946D01*
X161394068Y-85343409D01*
X161384875Y-85334265D01*
X161375190Y-85325552D01*
X161365113Y-85317311D01*
X161354742Y-85309581D01*
X161344174Y-85302400D01*
X161333507Y-85295809D01*
X161322841Y-85289846D01*
X161312273Y-85284550D01*
X161301902Y-85279962D01*
X161291824Y-85276120D01*
X161282140Y-85273063D01*
X161272947Y-85270831D01*
X161264342Y-85269463D01*
X161256425Y-85268998D01*
X161217264Y-85271193D01*
X161182551Y-85279013D01*
X161152020Y-85294315D01*
X161125407Y-85318955D01*
X161102446Y-85354787D01*
X161082873Y-85403669D01*
X161066422Y-85467455D01*
X161052829Y-85548001D01*
X161041827Y-85647163D01*
X161033152Y-85766797D01*
X161021724Y-86074902D01*
X161016422Y-86487162D01*
X161015126Y-87018422D01*
X160143764Y-87018422D01*
X160143764Y-85630948D01*
X160378361Y-85403054D01*
G37*
G36*
X164332673Y-91770970D02*
G01*
X164362010Y-91771975D01*
X164387735Y-91773961D01*
X164410082Y-91777185D01*
X164420062Y-91779341D01*
X164429287Y-91781901D01*
X164437785Y-91784899D01*
X164445586Y-91788365D01*
X164452719Y-91792332D01*
X164459214Y-91796832D01*
X164465100Y-91801896D01*
X164470407Y-91807557D01*
X164475164Y-91813846D01*
X164479401Y-91820795D01*
X164483146Y-91828437D01*
X164486431Y-91836803D01*
X164489283Y-91845925D01*
X164491733Y-91855835D01*
X164493809Y-91866564D01*
X164495542Y-91878145D01*
X164498095Y-91903991D01*
X164499627Y-91933627D01*
X164500373Y-91967308D01*
X164500569Y-92005289D01*
X164500373Y-92043270D01*
X164499627Y-92076951D01*
X164498095Y-92106587D01*
X164495542Y-92132432D01*
X164493809Y-92144013D01*
X164491733Y-92154743D01*
X164489283Y-92164653D01*
X164486431Y-92173775D01*
X164483146Y-92182140D01*
X164479401Y-92189782D01*
X164475164Y-92196732D01*
X164470407Y-92203021D01*
X164465100Y-92208682D01*
X164459214Y-92213746D01*
X164452719Y-92218246D01*
X164445586Y-92222213D01*
X164437785Y-92225679D01*
X164429287Y-92228677D01*
X164420062Y-92231237D01*
X164410082Y-92233393D01*
X164399316Y-92235175D01*
X164387735Y-92236617D01*
X164362010Y-92238603D01*
X164332673Y-92239608D01*
X164299486Y-92239886D01*
X164266299Y-92239608D01*
X164236962Y-92238603D01*
X164211237Y-92236617D01*
X164188890Y-92233393D01*
X164178910Y-92231237D01*
X164169685Y-92228677D01*
X164161187Y-92225679D01*
X164153386Y-92222213D01*
X164146253Y-92218246D01*
X164139758Y-92213746D01*
X164133872Y-92208682D01*
X164128565Y-92203021D01*
X164123808Y-92196732D01*
X164119571Y-92189782D01*
X164115825Y-92182140D01*
X164112541Y-92173775D01*
X164109689Y-92164653D01*
X164107239Y-92154743D01*
X164105162Y-92144013D01*
X164103429Y-92132432D01*
X164100877Y-92106587D01*
X164099345Y-92076951D01*
X164098599Y-92043270D01*
X164098402Y-92005289D01*
X164098599Y-91967308D01*
X164099345Y-91933627D01*
X164100877Y-91903991D01*
X164103429Y-91878145D01*
X164105162Y-91866564D01*
X164107239Y-91855835D01*
X164109689Y-91845925D01*
X164112541Y-91836803D01*
X164115825Y-91828437D01*
X164119571Y-91820795D01*
X164123808Y-91813846D01*
X164128565Y-91807557D01*
X164133872Y-91801896D01*
X164139758Y-91796832D01*
X164146253Y-91792332D01*
X164153386Y-91788365D01*
X164161187Y-91784899D01*
X164169685Y-91781901D01*
X164178910Y-91779341D01*
X164188890Y-91777185D01*
X164199656Y-91775403D01*
X164211237Y-91773961D01*
X164236962Y-91771975D01*
X164266299Y-91770970D01*
X164299486Y-91770692D01*
X164332673Y-91770970D01*
G37*
G36*
X161470914Y-94324450D02*
G01*
X161467198Y-94598670D01*
X161463491Y-94841991D01*
X161459648Y-95056347D01*
X161455519Y-95243673D01*
X161450958Y-95405903D01*
X161445818Y-95544971D01*
X161442985Y-95606423D01*
X161439952Y-95662811D01*
X161436700Y-95714375D01*
X161433211Y-95761358D01*
X161429467Y-95804001D01*
X161425450Y-95842545D01*
X161421140Y-95877234D01*
X161416520Y-95908308D01*
X161411571Y-95936010D01*
X161406274Y-95960580D01*
X161400612Y-95982262D01*
X161394566Y-96001296D01*
X161388117Y-96017925D01*
X161381247Y-96032389D01*
X161373938Y-96044932D01*
X161366170Y-96055795D01*
X161357927Y-96065219D01*
X161349189Y-96073447D01*
X161339938Y-96080720D01*
X161330156Y-96087280D01*
X161311987Y-96097723D01*
X161303386Y-96102291D01*
X161295084Y-96106419D01*
X161287062Y-96110106D01*
X161279301Y-96113348D01*
X161271783Y-96116144D01*
X161264490Y-96118490D01*
X161257403Y-96120385D01*
X161250503Y-96121825D01*
X161243773Y-96122809D01*
X161237194Y-96123334D01*
X161230748Y-96123397D01*
X161224415Y-96122997D01*
X161218179Y-96122130D01*
X161212020Y-96120794D01*
X161205919Y-96118987D01*
X161199859Y-96116706D01*
X161193822Y-96113949D01*
X161187788Y-96110714D01*
X161181739Y-96106997D01*
X161175657Y-96102797D01*
X161169523Y-96098111D01*
X161163320Y-96092936D01*
X161157028Y-96087270D01*
X161150629Y-96081111D01*
X161137438Y-96067303D01*
X161123599Y-96051492D01*
X161108965Y-96033658D01*
X161095760Y-96010620D01*
X161083764Y-95981005D01*
X161063197Y-95897717D01*
X161046872Y-95775156D01*
X161034396Y-95604680D01*
X161025376Y-95377650D01*
X161019420Y-95085425D01*
X161015126Y-94270828D01*
X161015126Y-92642053D01*
X161484320Y-92642053D01*
X161470914Y-94324450D01*
G37*
G36*
X161288809Y-91770896D02*
G01*
X161323309Y-91771700D01*
X161353510Y-91773387D01*
X161379694Y-91776243D01*
X161391369Y-91778197D01*
X161402147Y-91780551D01*
X161412064Y-91783339D01*
X161421154Y-91786598D01*
X161429454Y-91790362D01*
X161437000Y-91794667D01*
X161443826Y-91799549D01*
X161449968Y-91805044D01*
X161455463Y-91811186D01*
X161460345Y-91818012D01*
X161464650Y-91825558D01*
X161468414Y-91833858D01*
X161471672Y-91842948D01*
X161474461Y-91852865D01*
X161476814Y-91863643D01*
X161478769Y-91875318D01*
X161481625Y-91901502D01*
X161483312Y-91931702D01*
X161484116Y-91966203D01*
X161484320Y-92005289D01*
X161484116Y-92044375D01*
X161483312Y-92078876D01*
X161481625Y-92109076D01*
X161478769Y-92135260D01*
X161476814Y-92146935D01*
X161474461Y-92157714D01*
X161471672Y-92167630D01*
X161468414Y-92176721D01*
X161464650Y-92185021D01*
X161460345Y-92192566D01*
X161455463Y-92199392D01*
X161449968Y-92205535D01*
X161443826Y-92211029D01*
X161437000Y-92215911D01*
X161429454Y-92220216D01*
X161421154Y-92223980D01*
X161412064Y-92227239D01*
X161402147Y-92230027D01*
X161391369Y-92232381D01*
X161379694Y-92234335D01*
X161353510Y-92237191D01*
X161323309Y-92238878D01*
X161288809Y-92239682D01*
X161249723Y-92239886D01*
X161210637Y-92239682D01*
X161176136Y-92238878D01*
X161145936Y-92237191D01*
X161119752Y-92234335D01*
X161108077Y-92232381D01*
X161097299Y-92230027D01*
X161087382Y-92227239D01*
X161078292Y-92223980D01*
X161069992Y-92220216D01*
X161062446Y-92215911D01*
X161055620Y-92211029D01*
X161049478Y-92205535D01*
X161043983Y-92199392D01*
X161039101Y-92192566D01*
X161034796Y-92185021D01*
X161031032Y-92176721D01*
X161027773Y-92167630D01*
X161024985Y-92157714D01*
X161022631Y-92146935D01*
X161020676Y-92135260D01*
X161017821Y-92109076D01*
X161016134Y-92078876D01*
X161015330Y-92044375D01*
X161015126Y-92005289D01*
X161015330Y-91966203D01*
X161016134Y-91931702D01*
X161017821Y-91901502D01*
X161020676Y-91875318D01*
X161022631Y-91863643D01*
X161024985Y-91852865D01*
X161027773Y-91842948D01*
X161031032Y-91833858D01*
X161034796Y-91825558D01*
X161039101Y-91818012D01*
X161043983Y-91811186D01*
X161049478Y-91805044D01*
X161055620Y-91799549D01*
X161062446Y-91794667D01*
X161069992Y-91790362D01*
X161078292Y-91786598D01*
X161087382Y-91783339D01*
X161097299Y-91780551D01*
X161108077Y-91778197D01*
X161119752Y-91776243D01*
X161145936Y-91773387D01*
X161176136Y-91771700D01*
X161210637Y-91770896D01*
X161249723Y-91770692D01*
X161288809Y-91770896D01*
G37*
G36*
X164500569Y-94344558D02*
G01*
X164499823Y-94833743D01*
X164498758Y-95040137D01*
X164497113Y-95222936D01*
X164494801Y-95383546D01*
X164491733Y-95523370D01*
X164487820Y-95643812D01*
X164482975Y-95746277D01*
X164477108Y-95832167D01*
X164473764Y-95869336D01*
X164470132Y-95902889D01*
X164466200Y-95932999D01*
X164461958Y-95959844D01*
X164457394Y-95983599D01*
X164452498Y-96004438D01*
X164447258Y-96022538D01*
X164441663Y-96038075D01*
X164435703Y-96051223D01*
X164429365Y-96062158D01*
X164422640Y-96071055D01*
X164415516Y-96078091D01*
X164407982Y-96083441D01*
X164400028Y-96087280D01*
X164389522Y-96090814D01*
X164378191Y-96093878D01*
X164366154Y-96096470D01*
X164353527Y-96098591D01*
X164340429Y-96100240D01*
X164326978Y-96101419D01*
X164313291Y-96102125D01*
X164299486Y-96102361D01*
X164285681Y-96102125D01*
X164271994Y-96101419D01*
X164258543Y-96100240D01*
X164245445Y-96098591D01*
X164232818Y-96096470D01*
X164220781Y-96093878D01*
X164209450Y-96090814D01*
X164198944Y-96087280D01*
X164183455Y-96078091D01*
X164169606Y-96062158D01*
X164157309Y-96038075D01*
X164146474Y-96004438D01*
X164128840Y-95902889D01*
X164115997Y-95746277D01*
X164107239Y-95523370D01*
X164101859Y-95222936D01*
X164098402Y-94344558D01*
X164098402Y-92642053D01*
X164500569Y-92642053D01*
X164500569Y-94344558D01*
G37*
D10*
X124587095Y-67198857D02*
X126110904Y-67198857D01*
X125349000Y-67960761D02*
X125349000Y-66436952D01*
D12*
X137690761Y-58591380D02*
X137601476Y-59305666D01*
X137536000Y-59448523D01*
X137428857Y-59543761D01*
X137280047Y-59591380D01*
X137184809Y-59591380D01*
X138107428Y-58686619D02*
X138161000Y-58639000D01*
X138262190Y-58591380D01*
X138500285Y-58591380D01*
X138589571Y-58639000D01*
X138631238Y-58686619D01*
X138666952Y-58781857D01*
X138655047Y-58877095D01*
X138589571Y-59019952D01*
X137946714Y-59591380D01*
X138565761Y-59591380D01*
X139006238Y-59496142D02*
X139047904Y-59543761D01*
X138994333Y-59591380D01*
X138952666Y-59543761D01*
X139006238Y-59496142D01*
X138994333Y-59591380D01*
X139071714Y-58972333D02*
X139113380Y-59019952D01*
X139059809Y-59067571D01*
X139018142Y-59019952D01*
X139071714Y-58972333D01*
X139059809Y-59067571D01*
X139470523Y-59591380D02*
X139595523Y-58591380D01*
X139839571Y-59305666D01*
X140262190Y-58591380D01*
X140137190Y-59591380D01*
X140613380Y-59591380D02*
X140738380Y-58591380D01*
X141089571Y-59591380D02*
X141214571Y-58591380D01*
X141661000Y-59591380D01*
X141786000Y-58591380D01*
X143422904Y-59591380D02*
X142851476Y-59591380D01*
X143137190Y-59591380D02*
X143262190Y-58591380D01*
X143149095Y-58734238D01*
X143041952Y-58829476D01*
X142940761Y-58877095D01*
X143916952Y-58686619D02*
X143970523Y-58639000D01*
X144071714Y-58591380D01*
X144309809Y-58591380D01*
X144399095Y-58639000D01*
X144440761Y-58686619D01*
X144476476Y-58781857D01*
X144464571Y-58877095D01*
X144399095Y-59019952D01*
X143756238Y-59591380D01*
X144375285Y-59591380D01*
X144786000Y-58591380D02*
X144994333Y-59591380D01*
X145452666Y-58591380D01*
X145714571Y-59543761D02*
X145708619Y-59591380D01*
X145649095Y-59686619D01*
X145595523Y-59734238D01*
X146899095Y-59591380D02*
X147024095Y-58591380D01*
X147268142Y-59305666D01*
X147690761Y-58591380D01*
X147565761Y-59591380D01*
X148030047Y-59305666D02*
X148506238Y-59305666D01*
X147899095Y-59591380D02*
X148357428Y-58591380D01*
X148565761Y-59591380D01*
X148928857Y-58591380D02*
X149470523Y-59591380D01*
X149595523Y-58591380D02*
X148803857Y-59591380D01*
X151137190Y-59591380D02*
X150565761Y-59591380D01*
X150851476Y-59591380D02*
X150976476Y-58591380D01*
X150863380Y-58734238D01*
X150756238Y-58829476D01*
X150655047Y-58877095D01*
X152166952Y-58591380D02*
X151690761Y-58591380D01*
X151583619Y-59067571D01*
X151637190Y-59019952D01*
X151738380Y-58972333D01*
X151976476Y-58972333D01*
X152065761Y-59019952D01*
X152107428Y-59067571D01*
X152143142Y-59162809D01*
X152113380Y-59400904D01*
X152053857Y-59496142D01*
X152000285Y-59543761D01*
X151899095Y-59591380D01*
X151661000Y-59591380D01*
X151571714Y-59543761D01*
X151530047Y-59496142D01*
X152500285Y-58591380D02*
X152708619Y-59591380D01*
X153166952Y-58591380D01*
X137690761Y-60201380D02*
X137601476Y-60915666D01*
X137536000Y-61058523D01*
X137428857Y-61153761D01*
X137280047Y-61201380D01*
X137184809Y-61201380D01*
X138071714Y-60201380D02*
X138690761Y-60201380D01*
X138309809Y-60582333D01*
X138452666Y-60582333D01*
X138541952Y-60629952D01*
X138583619Y-60677571D01*
X138619333Y-60772809D01*
X138589571Y-61010904D01*
X138530047Y-61106142D01*
X138476476Y-61153761D01*
X138375285Y-61201380D01*
X138089571Y-61201380D01*
X138000285Y-61153761D01*
X137958619Y-61106142D01*
X139006238Y-61106142D02*
X139047904Y-61153761D01*
X138994333Y-61201380D01*
X138952666Y-61153761D01*
X139006238Y-61106142D01*
X138994333Y-61201380D01*
X139071714Y-60582333D02*
X139113380Y-60629952D01*
X139059809Y-60677571D01*
X139018142Y-60629952D01*
X139071714Y-60582333D01*
X139059809Y-60677571D01*
X139470523Y-61201380D02*
X139595523Y-60201380D01*
X139839571Y-60915666D01*
X140262190Y-60201380D01*
X140137190Y-61201380D01*
X140601476Y-60915666D02*
X141077666Y-60915666D01*
X140470523Y-61201380D02*
X140928857Y-60201380D01*
X141137190Y-61201380D01*
X141500285Y-60201380D02*
X142041952Y-61201380D01*
X142166952Y-60201380D02*
X141375285Y-61201380D01*
X143214571Y-60201380D02*
X143833619Y-60201380D01*
X143452666Y-60582333D01*
X143595523Y-60582333D01*
X143684809Y-60629952D01*
X143726476Y-60677571D01*
X143762190Y-60772809D01*
X143732428Y-61010904D01*
X143672904Y-61106142D01*
X143619333Y-61153761D01*
X143518142Y-61201380D01*
X143232428Y-61201380D01*
X143143142Y-61153761D01*
X143101476Y-61106142D01*
X144452666Y-60201380D02*
X144547904Y-60201380D01*
X144637190Y-60249000D01*
X144678857Y-60296619D01*
X144714571Y-60391857D01*
X144738380Y-60582333D01*
X144708619Y-60820428D01*
X144637190Y-61010904D01*
X144577666Y-61106142D01*
X144524095Y-61153761D01*
X144422904Y-61201380D01*
X144327666Y-61201380D01*
X144238380Y-61153761D01*
X144196714Y-61106142D01*
X144161000Y-61010904D01*
X144137190Y-60820428D01*
X144166952Y-60582333D01*
X144238380Y-60391857D01*
X144297904Y-60296619D01*
X144351476Y-60249000D01*
X144452666Y-60201380D01*
X145071714Y-60201380D02*
X145280047Y-61201380D01*
X145738380Y-60201380D01*
D10*
X120777095Y-87391857D02*
X122300904Y-87391857D01*
X121539000Y-88153761D02*
X121539000Y-86629952D01*
X124587095Y-80787857D02*
X126110904Y-80787857D01*
X125349000Y-81549761D02*
X125349000Y-80025952D01*
X116122000Y-56939571D02*
X116122000Y-55439571D01*
X116622000Y-56511000D01*
X117122000Y-55439571D01*
X117122000Y-56939571D01*
X118050571Y-56939571D02*
X117907714Y-56868142D01*
X117836285Y-56796714D01*
X117764857Y-56653857D01*
X117764857Y-56225285D01*
X117836285Y-56082428D01*
X117907714Y-56011000D01*
X118050571Y-55939571D01*
X118264857Y-55939571D01*
X118407714Y-56011000D01*
X118479142Y-56082428D01*
X118550571Y-56225285D01*
X118550571Y-56653857D01*
X118479142Y-56796714D01*
X118407714Y-56868142D01*
X118264857Y-56939571D01*
X118050571Y-56939571D01*
X118979142Y-55939571D02*
X119550571Y-55939571D01*
X119193428Y-55439571D02*
X119193428Y-56725285D01*
X119264857Y-56868142D01*
X119407714Y-56939571D01*
X119550571Y-56939571D01*
X120264857Y-56939571D02*
X120122000Y-56868142D01*
X120050571Y-56796714D01*
X119979142Y-56653857D01*
X119979142Y-56225285D01*
X120050571Y-56082428D01*
X120122000Y-56011000D01*
X120264857Y-55939571D01*
X120479142Y-55939571D01*
X120622000Y-56011000D01*
X120693428Y-56082428D01*
X120764857Y-56225285D01*
X120764857Y-56653857D01*
X120693428Y-56796714D01*
X120622000Y-56868142D01*
X120479142Y-56939571D01*
X120264857Y-56939571D01*
X121407714Y-56939571D02*
X121407714Y-55939571D01*
X121407714Y-56225285D02*
X121479142Y-56082428D01*
X121550571Y-56011000D01*
X121693428Y-55939571D01*
X121836285Y-55939571D01*
X124587095Y-60721857D02*
X126110904Y-60721857D01*
D12*
X189264764Y-84321119D02*
X189402264Y-83221119D01*
X189664169Y-83221119D01*
X189814764Y-83273500D01*
X189906431Y-83378261D01*
X189945717Y-83483023D01*
X189971907Y-83692547D01*
X189952264Y-83849690D01*
X189873693Y-84059214D01*
X189808217Y-84163976D01*
X189690360Y-84268738D01*
X189526669Y-84321119D01*
X189264764Y-84321119D01*
X191006431Y-84216357D02*
X190947502Y-84268738D01*
X190783812Y-84321119D01*
X190679050Y-84321119D01*
X190528455Y-84268738D01*
X190436788Y-84163976D01*
X190397502Y-84059214D01*
X190371312Y-83849690D01*
X190390955Y-83692547D01*
X190469526Y-83483023D01*
X190535002Y-83378261D01*
X190652860Y-83273500D01*
X190816550Y-83221119D01*
X190921312Y-83221119D01*
X191071907Y-83273500D01*
X191117741Y-83325880D01*
X192302860Y-84321119D02*
X192440360Y-83221119D01*
X192708812Y-84006833D01*
X193173693Y-83221119D01*
X193036193Y-84321119D01*
X193717145Y-84321119D02*
X193618931Y-84268738D01*
X193573098Y-84216357D01*
X193533812Y-84111595D01*
X193573098Y-83797309D01*
X193638574Y-83692547D01*
X193697502Y-83640166D01*
X193808812Y-83587785D01*
X193965955Y-83587785D01*
X194064169Y-83640166D01*
X194110002Y-83692547D01*
X194149288Y-83797309D01*
X194110002Y-84111595D01*
X194044526Y-84216357D01*
X193985598Y-84268738D01*
X193874288Y-84321119D01*
X193717145Y-84321119D01*
X194489764Y-83587785D02*
X194908812Y-83587785D01*
X194692741Y-83221119D02*
X194574883Y-84163976D01*
X194614169Y-84268738D01*
X194712383Y-84321119D01*
X194817145Y-84321119D01*
X195340955Y-84321119D02*
X195242741Y-84268738D01*
X195196907Y-84216357D01*
X195157622Y-84111595D01*
X195196907Y-83797309D01*
X195262383Y-83692547D01*
X195321312Y-83640166D01*
X195432622Y-83587785D01*
X195589764Y-83587785D01*
X195687979Y-83640166D01*
X195733812Y-83692547D01*
X195773098Y-83797309D01*
X195733812Y-84111595D01*
X195668336Y-84216357D01*
X195609407Y-84268738D01*
X195498098Y-84321119D01*
X195340955Y-84321119D01*
X196179050Y-84321119D02*
X196270717Y-83587785D01*
X196244526Y-83797309D02*
X196310002Y-83692547D01*
X196368931Y-83640166D01*
X196480241Y-83587785D01*
X196585002Y-83587785D01*
X197698098Y-84321119D02*
X197835598Y-83221119D01*
X198097502Y-83221119D01*
X198248098Y-83273500D01*
X198339764Y-83378261D01*
X198379050Y-83483023D01*
X198405241Y-83692547D01*
X198385598Y-83849690D01*
X198307026Y-84059214D01*
X198241550Y-84163976D01*
X198123693Y-84268738D01*
X197960002Y-84321119D01*
X197698098Y-84321119D01*
X198798098Y-84321119D02*
X198889764Y-83587785D01*
X198863574Y-83797309D02*
X198929050Y-83692547D01*
X198987979Y-83640166D01*
X199099288Y-83587785D01*
X199204050Y-83587785D01*
X199479050Y-84321119D02*
X199570717Y-83587785D01*
X199616550Y-83221119D02*
X199557622Y-83273500D01*
X199603455Y-83325880D01*
X199662383Y-83273500D01*
X199616550Y-83221119D01*
X199603455Y-83325880D01*
X199989764Y-83587785D02*
X200160002Y-84321119D01*
X200513574Y-83587785D01*
X201266550Y-84268738D02*
X201155241Y-84321119D01*
X200945717Y-84321119D01*
X200847502Y-84268738D01*
X200808217Y-84163976D01*
X200860598Y-83744928D01*
X200926074Y-83640166D01*
X201037383Y-83587785D01*
X201246907Y-83587785D01*
X201345122Y-83640166D01*
X201384407Y-83744928D01*
X201371312Y-83849690D01*
X200834407Y-83954452D01*
X201783812Y-84321119D02*
X201875479Y-83587785D01*
X201849288Y-83797309D02*
X201914764Y-83692547D01*
X201973693Y-83640166D01*
X202085002Y-83587785D01*
X202189764Y-83587785D01*
X191222502Y-85096880D02*
X191281431Y-85044500D01*
X191392741Y-84992119D01*
X191654645Y-84992119D01*
X191752860Y-85044500D01*
X191798693Y-85096880D01*
X191837979Y-85201642D01*
X191824883Y-85306404D01*
X191752860Y-85463547D01*
X191045717Y-86092119D01*
X191726669Y-86092119D01*
X192545122Y-84992119D02*
X192649883Y-84992119D01*
X192748098Y-85044500D01*
X192793931Y-85096880D01*
X192833217Y-85201642D01*
X192859407Y-85411166D01*
X192826669Y-85673071D01*
X192748098Y-85882595D01*
X192682622Y-85987357D01*
X192623693Y-86039738D01*
X192512383Y-86092119D01*
X192407622Y-86092119D01*
X192309407Y-86039738D01*
X192263574Y-85987357D01*
X192224288Y-85882595D01*
X192198098Y-85673071D01*
X192230836Y-85411166D01*
X192309407Y-85201642D01*
X192374883Y-85096880D01*
X192433812Y-85044500D01*
X192545122Y-84992119D01*
X193317741Y-85096880D02*
X193376669Y-85044500D01*
X193487979Y-84992119D01*
X193749883Y-84992119D01*
X193848098Y-85044500D01*
X193893931Y-85096880D01*
X193933217Y-85201642D01*
X193920122Y-85306404D01*
X193848098Y-85463547D01*
X193140955Y-86092119D01*
X193821907Y-86092119D01*
X194365360Y-85096880D02*
X194424288Y-85044500D01*
X194535598Y-84992119D01*
X194797502Y-84992119D01*
X194895717Y-85044500D01*
X194941550Y-85096880D01*
X194980836Y-85201642D01*
X194967741Y-85306404D01*
X194895717Y-85463547D01*
X194188574Y-86092119D01*
X194869526Y-86092119D01*
X195354050Y-85987357D02*
X195399883Y-86039738D01*
X195340955Y-86092119D01*
X195295122Y-86039738D01*
X195354050Y-85987357D01*
X195340955Y-86092119D01*
X196440955Y-86092119D02*
X195812383Y-86092119D01*
X196126669Y-86092119D02*
X196264169Y-84992119D01*
X196139764Y-85149261D01*
X196021907Y-85254023D01*
X195910598Y-85306404D01*
X197488574Y-86092119D02*
X196860002Y-86092119D01*
X197174288Y-86092119D02*
X197311788Y-84992119D01*
X197187383Y-85149261D01*
X197069526Y-85254023D01*
X196958217Y-85306404D01*
X197973098Y-85987357D02*
X198018931Y-86039738D01*
X197960002Y-86092119D01*
X197914169Y-86039738D01*
X197973098Y-85987357D01*
X197960002Y-86092119D01*
X199060002Y-86092119D02*
X198431431Y-86092119D01*
X198745717Y-86092119D02*
X198883217Y-84992119D01*
X198758812Y-85149261D01*
X198640955Y-85254023D01*
X198529645Y-85306404D01*
X199878455Y-84992119D02*
X199983217Y-84992119D01*
X200081431Y-85044500D01*
X200127264Y-85096880D01*
X200166550Y-85201642D01*
X200192741Y-85411166D01*
X200160002Y-85673071D01*
X200081431Y-85882595D01*
X200015955Y-85987357D01*
X199957026Y-86039738D01*
X199845717Y-86092119D01*
X199740955Y-86092119D01*
X199642741Y-86039738D01*
X199596907Y-85987357D01*
X199557622Y-85882595D01*
X199531431Y-85673071D01*
X199564169Y-85411166D01*
X199642741Y-85201642D01*
X199708217Y-85096880D01*
X199767145Y-85044500D01*
X199878455Y-84992119D01*
D10*
X124587095Y-74564857D02*
X126110904Y-74564857D01*
D12*
X137681219Y-63925380D02*
X137490742Y-63925380D01*
X137389552Y-63973000D01*
X137335980Y-64020619D01*
X137222885Y-64163476D01*
X137151457Y-64353952D01*
X137103838Y-64734904D01*
X137139552Y-64830142D01*
X137181219Y-64877761D01*
X137270504Y-64925380D01*
X137460980Y-64925380D01*
X137562171Y-64877761D01*
X137615742Y-64830142D01*
X137675266Y-64734904D01*
X137705028Y-64496809D01*
X137669314Y-64401571D01*
X137627647Y-64353952D01*
X137538361Y-64306333D01*
X137347885Y-64306333D01*
X137246695Y-64353952D01*
X137193123Y-64401571D01*
X137133600Y-64496809D01*
X138068123Y-64639666D02*
X138544314Y-64639666D01*
X137937171Y-64925380D02*
X138395504Y-63925380D01*
X138603838Y-64925380D01*
X139175266Y-65306333D02*
X139133600Y-65258714D01*
X139056219Y-65115857D01*
X139020504Y-65020619D01*
X138990742Y-64877761D01*
X138972885Y-64639666D01*
X138996695Y-64449190D01*
X139074076Y-64211095D01*
X139139552Y-64068238D01*
X139199076Y-63973000D01*
X139312171Y-63830142D01*
X139365742Y-63782523D01*
X140258600Y-65020619D02*
X140169314Y-64973000D01*
X140085980Y-64877761D01*
X139960980Y-64734904D01*
X139871695Y-64687285D01*
X139776457Y-64687285D01*
X139794314Y-64925380D02*
X139705028Y-64877761D01*
X139621695Y-64782523D01*
X139597885Y-64592047D01*
X139639552Y-64258714D01*
X139710980Y-64068238D01*
X139818123Y-63973000D01*
X139919314Y-63925380D01*
X140109790Y-63925380D01*
X140199076Y-63973000D01*
X140282409Y-64068238D01*
X140306219Y-64258714D01*
X140264552Y-64592047D01*
X140193123Y-64782523D01*
X140085980Y-64877761D01*
X139984790Y-64925380D01*
X139794314Y-64925380D01*
X141175266Y-64925380D02*
X140603838Y-64925380D01*
X140889552Y-64925380D02*
X141014552Y-63925380D01*
X140901457Y-64068238D01*
X140794314Y-64163476D01*
X140693123Y-64211095D01*
X141460980Y-65306333D02*
X141514552Y-65258714D01*
X141627647Y-65115857D01*
X141687171Y-65020619D01*
X141752647Y-64877761D01*
X141830028Y-64639666D01*
X141853838Y-64449190D01*
X141835980Y-64211095D01*
X141806219Y-64068238D01*
X141770504Y-63973000D01*
X141693123Y-63830142D01*
X141651457Y-63782523D01*
X143556219Y-64925380D02*
X142984790Y-64925380D01*
X143270504Y-64925380D02*
X143395504Y-63925380D01*
X143282409Y-64068238D01*
X143175266Y-64163476D01*
X143074076Y-64211095D01*
X144050266Y-64020619D02*
X144103838Y-63973000D01*
X144205028Y-63925380D01*
X144443123Y-63925380D01*
X144532409Y-63973000D01*
X144574076Y-64020619D01*
X144609790Y-64115857D01*
X144597885Y-64211095D01*
X144532409Y-64353952D01*
X143889552Y-64925380D01*
X144508600Y-64925380D01*
X144925266Y-64639666D02*
X145401457Y-64639666D01*
X144794314Y-64925380D02*
X145252647Y-63925380D01*
X145460980Y-64925380D01*
X146032409Y-65306333D02*
X145990742Y-65258714D01*
X145913361Y-65115857D01*
X145877647Y-65020619D01*
X145847885Y-64877761D01*
X145830028Y-64639666D01*
X145853838Y-64449190D01*
X145931219Y-64211095D01*
X145996695Y-64068238D01*
X146056219Y-63973000D01*
X146169314Y-63830142D01*
X146222885Y-63782523D01*
X147115742Y-65020619D02*
X147026457Y-64973000D01*
X146943123Y-64877761D01*
X146818123Y-64734904D01*
X146728838Y-64687285D01*
X146633600Y-64687285D01*
X146651457Y-64925380D02*
X146562171Y-64877761D01*
X146478838Y-64782523D01*
X146455028Y-64592047D01*
X146496695Y-64258714D01*
X146568123Y-64068238D01*
X146675266Y-63973000D01*
X146776457Y-63925380D01*
X146966933Y-63925380D01*
X147056219Y-63973000D01*
X147139552Y-64068238D01*
X147163361Y-64258714D01*
X147121695Y-64592047D01*
X147050266Y-64782523D01*
X146943123Y-64877761D01*
X146841933Y-64925380D01*
X146651457Y-64925380D01*
X148032409Y-64925380D02*
X147460980Y-64925380D01*
X147746695Y-64925380D02*
X147871695Y-63925380D01*
X147758600Y-64068238D01*
X147651457Y-64163476D01*
X147550266Y-64211095D01*
X148514552Y-64877761D02*
X148508600Y-64925380D01*
X148449076Y-65020619D01*
X148395504Y-65068238D01*
X149591933Y-65020619D02*
X149502647Y-64973000D01*
X149419314Y-64877761D01*
X149294314Y-64734904D01*
X149205028Y-64687285D01*
X149109790Y-64687285D01*
X149127647Y-64925380D02*
X149038361Y-64877761D01*
X148955028Y-64782523D01*
X148931219Y-64592047D01*
X148972885Y-64258714D01*
X149044314Y-64068238D01*
X149151457Y-63973000D01*
X149252647Y-63925380D01*
X149443123Y-63925380D01*
X149532409Y-63973000D01*
X149615742Y-64068238D01*
X149639552Y-64258714D01*
X149597885Y-64592047D01*
X149526457Y-64782523D01*
X149419314Y-64877761D01*
X149318123Y-64925380D01*
X149127647Y-64925380D01*
X150050266Y-64020619D02*
X150103838Y-63973000D01*
X150205028Y-63925380D01*
X150443123Y-63925380D01*
X150532409Y-63973000D01*
X150574076Y-64020619D01*
X150609790Y-64115857D01*
X150597885Y-64211095D01*
X150532409Y-64353952D01*
X149889552Y-64925380D01*
X150508600Y-64925380D01*
X150794314Y-65306333D02*
X150847885Y-65258714D01*
X150960980Y-65115857D01*
X151020504Y-65020619D01*
X151085980Y-64877761D01*
X151163361Y-64639666D01*
X151187171Y-64449190D01*
X151169314Y-64211095D01*
X151139552Y-64068238D01*
X151103838Y-63973000D01*
X151026457Y-63830142D01*
X150984790Y-63782523D01*
X137651457Y-66535380D02*
X137080028Y-66535380D01*
X137365742Y-66535380D02*
X137490742Y-65535380D01*
X137377647Y-65678238D01*
X137270504Y-65773476D01*
X137169314Y-65821095D01*
X138294314Y-65963952D02*
X138205028Y-65916333D01*
X138163361Y-65868714D01*
X138127647Y-65773476D01*
X138133600Y-65725857D01*
X138193123Y-65630619D01*
X138246695Y-65583000D01*
X138347885Y-65535380D01*
X138538361Y-65535380D01*
X138627647Y-65583000D01*
X138669314Y-65630619D01*
X138705028Y-65725857D01*
X138699076Y-65773476D01*
X138639552Y-65868714D01*
X138585980Y-65916333D01*
X138484790Y-65963952D01*
X138294314Y-65963952D01*
X138193123Y-66011571D01*
X138139552Y-66059190D01*
X138080028Y-66154428D01*
X138056219Y-66344904D01*
X138091933Y-66440142D01*
X138133600Y-66487761D01*
X138222885Y-66535380D01*
X138413361Y-66535380D01*
X138514552Y-66487761D01*
X138568123Y-66440142D01*
X138627647Y-66344904D01*
X138651457Y-66154428D01*
X138615742Y-66059190D01*
X138574076Y-66011571D01*
X138484790Y-65963952D01*
X139020504Y-66249666D02*
X139496695Y-66249666D01*
X138889552Y-66535380D02*
X139347885Y-65535380D01*
X139556219Y-66535380D01*
X140127647Y-66916333D02*
X140085980Y-66868714D01*
X140008600Y-66725857D01*
X139972885Y-66630619D01*
X139943123Y-66487761D01*
X139925266Y-66249666D01*
X139949076Y-66059190D01*
X140026457Y-65821095D01*
X140091933Y-65678238D01*
X140151457Y-65583000D01*
X140264552Y-65440142D01*
X140318123Y-65392523D01*
X141210980Y-66630619D02*
X141121695Y-66583000D01*
X141038361Y-66487761D01*
X140913361Y-66344904D01*
X140824076Y-66297285D01*
X140728838Y-66297285D01*
X140746695Y-66535380D02*
X140657409Y-66487761D01*
X140574076Y-66392523D01*
X140550266Y-66202047D01*
X140591933Y-65868714D01*
X140663361Y-65678238D01*
X140770504Y-65583000D01*
X140871695Y-65535380D01*
X141062171Y-65535380D01*
X141151457Y-65583000D01*
X141234790Y-65678238D01*
X141258600Y-65868714D01*
X141216933Y-66202047D01*
X141145504Y-66392523D01*
X141038361Y-66487761D01*
X140937171Y-66535380D01*
X140746695Y-66535380D01*
X142127647Y-66535380D02*
X141556219Y-66535380D01*
X141841933Y-66535380D02*
X141966933Y-65535380D01*
X141853838Y-65678238D01*
X141746695Y-65773476D01*
X141645504Y-65821095D01*
X142609790Y-66487761D02*
X142603838Y-66535380D01*
X142544314Y-66630619D01*
X142490742Y-66678238D01*
X143687171Y-66630619D02*
X143597885Y-66583000D01*
X143514552Y-66487761D01*
X143389552Y-66344904D01*
X143300266Y-66297285D01*
X143205028Y-66297285D01*
X143222885Y-66535380D02*
X143133600Y-66487761D01*
X143050266Y-66392523D01*
X143026457Y-66202047D01*
X143068123Y-65868714D01*
X143139552Y-65678238D01*
X143246695Y-65583000D01*
X143347885Y-65535380D01*
X143538361Y-65535380D01*
X143627647Y-65583000D01*
X143710980Y-65678238D01*
X143734790Y-65868714D01*
X143693123Y-66202047D01*
X143621695Y-66392523D01*
X143514552Y-66487761D01*
X143413361Y-66535380D01*
X143222885Y-66535380D01*
X144145504Y-65630619D02*
X144199076Y-65583000D01*
X144300266Y-65535380D01*
X144538361Y-65535380D01*
X144627647Y-65583000D01*
X144669314Y-65630619D01*
X144705028Y-65725857D01*
X144693123Y-65821095D01*
X144627647Y-65963952D01*
X143984790Y-66535380D01*
X144603838Y-66535380D01*
X145085980Y-66487761D02*
X145080028Y-66535380D01*
X145020504Y-66630619D01*
X144966933Y-66678238D01*
X146163361Y-66630619D02*
X146074076Y-66583000D01*
X145990742Y-66487761D01*
X145865742Y-66344904D01*
X145776457Y-66297285D01*
X145681219Y-66297285D01*
X145699076Y-66535380D02*
X145609790Y-66487761D01*
X145526457Y-66392523D01*
X145502647Y-66202047D01*
X145544314Y-65868714D01*
X145615742Y-65678238D01*
X145722885Y-65583000D01*
X145824076Y-65535380D01*
X146014552Y-65535380D01*
X146103838Y-65583000D01*
X146187171Y-65678238D01*
X146210980Y-65868714D01*
X146169314Y-66202047D01*
X146097885Y-66392523D01*
X145990742Y-66487761D01*
X145889552Y-66535380D01*
X145699076Y-66535380D01*
X146585980Y-65535380D02*
X147205028Y-65535380D01*
X146824076Y-65916333D01*
X146966933Y-65916333D01*
X147056219Y-65963952D01*
X147097885Y-66011571D01*
X147133600Y-66106809D01*
X147103838Y-66344904D01*
X147044314Y-66440142D01*
X146990742Y-66487761D01*
X146889552Y-66535380D01*
X146603838Y-66535380D01*
X146514552Y-66487761D01*
X146472885Y-66440142D01*
X147365742Y-66916333D02*
X147419314Y-66868714D01*
X147532409Y-66725857D01*
X147591933Y-66630619D01*
X147657409Y-66487761D01*
X147734790Y-66249666D01*
X147758600Y-66059190D01*
X147740742Y-65821095D01*
X147710980Y-65678238D01*
X147675266Y-65583000D01*
X147597885Y-65440142D01*
X147556219Y-65392523D01*
D13*
%TO.C,R4*%
X195667333Y-77160380D02*
X195334000Y-76684190D01*
X195095904Y-77160380D02*
X195095904Y-76160380D01*
X195476857Y-76160380D01*
X195572095Y-76208000D01*
X195619714Y-76255619D01*
X195667333Y-76350857D01*
X195667333Y-76493714D01*
X195619714Y-76588952D01*
X195572095Y-76636571D01*
X195476857Y-76684190D01*
X195095904Y-76684190D01*
X196524476Y-76493714D02*
X196524476Y-77160380D01*
X196286380Y-76112761D02*
X196048285Y-76827047D01*
X196667333Y-76827047D01*
D12*
%TO.C,Diode1\u002C2*%
X127473809Y-57697619D02*
X127473809Y-56597619D01*
X127735714Y-56597619D01*
X127892857Y-56650000D01*
X127997619Y-56754761D01*
X128050000Y-56859523D01*
X128102380Y-57069047D01*
X128102380Y-57226190D01*
X128050000Y-57435714D01*
X127997619Y-57540476D01*
X127892857Y-57645238D01*
X127735714Y-57697619D01*
X127473809Y-57697619D01*
X128573809Y-57697619D02*
X128573809Y-56964285D01*
X128573809Y-56597619D02*
X128521428Y-56650000D01*
X128573809Y-56702380D01*
X128626190Y-56650000D01*
X128573809Y-56597619D01*
X128573809Y-56702380D01*
X129254761Y-57697619D02*
X129150000Y-57645238D01*
X129097619Y-57592857D01*
X129045238Y-57488095D01*
X129045238Y-57173809D01*
X129097619Y-57069047D01*
X129150000Y-57016666D01*
X129254761Y-56964285D01*
X129411904Y-56964285D01*
X129516666Y-57016666D01*
X129569047Y-57069047D01*
X129621428Y-57173809D01*
X129621428Y-57488095D01*
X129569047Y-57592857D01*
X129516666Y-57645238D01*
X129411904Y-57697619D01*
X129254761Y-57697619D01*
X130564285Y-57697619D02*
X130564285Y-56597619D01*
X130564285Y-57645238D02*
X130459523Y-57697619D01*
X130250000Y-57697619D01*
X130145238Y-57645238D01*
X130092857Y-57592857D01*
X130040476Y-57488095D01*
X130040476Y-57173809D01*
X130092857Y-57069047D01*
X130145238Y-57016666D01*
X130250000Y-56964285D01*
X130459523Y-56964285D01*
X130564285Y-57016666D01*
X131507142Y-57645238D02*
X131402380Y-57697619D01*
X131192857Y-57697619D01*
X131088095Y-57645238D01*
X131035714Y-57540476D01*
X131035714Y-57121428D01*
X131088095Y-57016666D01*
X131192857Y-56964285D01*
X131402380Y-56964285D01*
X131507142Y-57016666D01*
X131559523Y-57121428D01*
X131559523Y-57226190D01*
X131035714Y-57330952D01*
X132607142Y-57697619D02*
X131978571Y-57697619D01*
X132292857Y-57697619D02*
X132292857Y-56597619D01*
X132188095Y-56754761D01*
X132083333Y-56859523D01*
X131978571Y-56911904D01*
X133130952Y-57645238D02*
X133130952Y-57697619D01*
X133078571Y-57802380D01*
X133026190Y-57854761D01*
X133550000Y-56702380D02*
X133602380Y-56650000D01*
X133707142Y-56597619D01*
X133969047Y-56597619D01*
X134073809Y-56650000D01*
X134126190Y-56702380D01*
X134178571Y-56807142D01*
X134178571Y-56911904D01*
X134126190Y-57069047D01*
X133497619Y-57697619D01*
X134178571Y-57697619D01*
D14*
%TO.C,J2*%
X120717571Y-90756000D02*
X121789000Y-90756000D01*
X122003285Y-90827428D01*
X122146142Y-90970285D01*
X122217571Y-91184571D01*
X122217571Y-91327428D01*
X120860428Y-90113142D02*
X120789000Y-90041714D01*
X120717571Y-89898857D01*
X120717571Y-89541714D01*
X120789000Y-89398857D01*
X120860428Y-89327428D01*
X121003285Y-89256000D01*
X121146142Y-89256000D01*
X121360428Y-89327428D01*
X122217571Y-90184571D01*
X122217571Y-89256000D01*
%TO.C,Q2*%
X191757142Y-55121428D02*
X191614285Y-55050000D01*
X191471428Y-54907142D01*
X191257142Y-54692857D01*
X191114285Y-54621428D01*
X190971428Y-54621428D01*
X191042857Y-54978571D02*
X190900000Y-54907142D01*
X190757142Y-54764285D01*
X190685714Y-54478571D01*
X190685714Y-53978571D01*
X190757142Y-53692857D01*
X190900000Y-53550000D01*
X191042857Y-53478571D01*
X191328571Y-53478571D01*
X191471428Y-53550000D01*
X191614285Y-53692857D01*
X191685714Y-53978571D01*
X191685714Y-54478571D01*
X191614285Y-54764285D01*
X191471428Y-54907142D01*
X191328571Y-54978571D01*
X191042857Y-54978571D01*
X192257142Y-53621428D02*
X192328571Y-53550000D01*
X192471428Y-53478571D01*
X192828571Y-53478571D01*
X192971428Y-53550000D01*
X193042857Y-53621428D01*
X193114285Y-53764285D01*
X193114285Y-53907142D01*
X193042857Y-54121428D01*
X192185714Y-54978571D01*
X193114285Y-54978571D01*
D13*
%TO.C,IC1*%
X193450809Y-60914380D02*
X193450809Y-59914380D01*
X194498428Y-60819142D02*
X194450809Y-60866761D01*
X194307952Y-60914380D01*
X194212714Y-60914380D01*
X194069857Y-60866761D01*
X193974619Y-60771523D01*
X193927000Y-60676285D01*
X193879380Y-60485809D01*
X193879380Y-60342952D01*
X193927000Y-60152476D01*
X193974619Y-60057238D01*
X194069857Y-59962000D01*
X194212714Y-59914380D01*
X194307952Y-59914380D01*
X194450809Y-59962000D01*
X194498428Y-60009619D01*
X195450809Y-60914380D02*
X194879380Y-60914380D01*
X195165095Y-60914380D02*
X195165095Y-59914380D01*
X195069857Y-60057238D01*
X194974619Y-60152476D01*
X194879380Y-60200095D01*
%TO.C,C3*%
X199731333Y-74525142D02*
X199683714Y-74572761D01*
X199540857Y-74620380D01*
X199445619Y-74620380D01*
X199302761Y-74572761D01*
X199207523Y-74477523D01*
X199159904Y-74382285D01*
X199112285Y-74191809D01*
X199112285Y-74048952D01*
X199159904Y-73858476D01*
X199207523Y-73763238D01*
X199302761Y-73668000D01*
X199445619Y-73620380D01*
X199540857Y-73620380D01*
X199683714Y-73668000D01*
X199731333Y-73715619D01*
X200064666Y-73620380D02*
X200683714Y-73620380D01*
X200350380Y-74001333D01*
X200493238Y-74001333D01*
X200588476Y-74048952D01*
X200636095Y-74096571D01*
X200683714Y-74191809D01*
X200683714Y-74429904D01*
X200636095Y-74525142D01*
X200588476Y-74572761D01*
X200493238Y-74620380D01*
X200207523Y-74620380D01*
X200112285Y-74572761D01*
X200064666Y-74525142D01*
%TO.C,D2*%
X169362380Y-89892095D02*
X168362380Y-89892095D01*
X168362380Y-89654000D01*
X168410000Y-89511142D01*
X168505238Y-89415904D01*
X168600476Y-89368285D01*
X168790952Y-89320666D01*
X168933809Y-89320666D01*
X169124285Y-89368285D01*
X169219523Y-89415904D01*
X169314761Y-89511142D01*
X169362380Y-89654000D01*
X169362380Y-89892095D01*
X168457619Y-88939714D02*
X168410000Y-88892095D01*
X168362380Y-88796857D01*
X168362380Y-88558761D01*
X168410000Y-88463523D01*
X168457619Y-88415904D01*
X168552857Y-88368285D01*
X168648095Y-88368285D01*
X168790952Y-88415904D01*
X169362380Y-88987333D01*
X169362380Y-88368285D01*
X168902095Y-95702380D02*
X168902095Y-94702380D01*
X169473523Y-95702380D02*
X169044952Y-95130952D01*
X169473523Y-94702380D02*
X168902095Y-95273809D01*
%TO.C,C5*%
X163233333Y-67557142D02*
X163185714Y-67604761D01*
X163042857Y-67652380D01*
X162947619Y-67652380D01*
X162804761Y-67604761D01*
X162709523Y-67509523D01*
X162661904Y-67414285D01*
X162614285Y-67223809D01*
X162614285Y-67080952D01*
X162661904Y-66890476D01*
X162709523Y-66795238D01*
X162804761Y-66700000D01*
X162947619Y-66652380D01*
X163042857Y-66652380D01*
X163185714Y-66700000D01*
X163233333Y-66747619D01*
X164138095Y-66652380D02*
X163661904Y-66652380D01*
X163614285Y-67128571D01*
X163661904Y-67080952D01*
X163757142Y-67033333D01*
X163995238Y-67033333D01*
X164090476Y-67080952D01*
X164138095Y-67128571D01*
X164185714Y-67223809D01*
X164185714Y-67461904D01*
X164138095Y-67557142D01*
X164090476Y-67604761D01*
X163995238Y-67652380D01*
X163757142Y-67652380D01*
X163661904Y-67604761D01*
X163614285Y-67557142D01*
%TO.C,R3*%
X172096133Y-60116980D02*
X171762800Y-59640790D01*
X171524704Y-60116980D02*
X171524704Y-59116980D01*
X171905657Y-59116980D01*
X172000895Y-59164600D01*
X172048514Y-59212219D01*
X172096133Y-59307457D01*
X172096133Y-59450314D01*
X172048514Y-59545552D01*
X172000895Y-59593171D01*
X171905657Y-59640790D01*
X171524704Y-59640790D01*
X172429466Y-59116980D02*
X173048514Y-59116980D01*
X172715180Y-59497933D01*
X172858038Y-59497933D01*
X172953276Y-59545552D01*
X173000895Y-59593171D01*
X173048514Y-59688409D01*
X173048514Y-59926504D01*
X173000895Y-60021742D01*
X172953276Y-60069361D01*
X172858038Y-60116980D01*
X172572323Y-60116980D01*
X172477085Y-60069361D01*
X172429466Y-60021742D01*
%TO.C,R5*%
X156043333Y-80462380D02*
X155710000Y-79986190D01*
X155471904Y-80462380D02*
X155471904Y-79462380D01*
X155852857Y-79462380D01*
X155948095Y-79510000D01*
X155995714Y-79557619D01*
X156043333Y-79652857D01*
X156043333Y-79795714D01*
X155995714Y-79890952D01*
X155948095Y-79938571D01*
X155852857Y-79986190D01*
X155471904Y-79986190D01*
X156948095Y-79462380D02*
X156471904Y-79462380D01*
X156424285Y-79938571D01*
X156471904Y-79890952D01*
X156567142Y-79843333D01*
X156805238Y-79843333D01*
X156900476Y-79890952D01*
X156948095Y-79938571D01*
X156995714Y-80033809D01*
X156995714Y-80271904D01*
X156948095Y-80367142D01*
X156900476Y-80414761D01*
X156805238Y-80462380D01*
X156567142Y-80462380D01*
X156471904Y-80414761D01*
X156424285Y-80367142D01*
%TO.C,R1*%
X183983333Y-59507380D02*
X183650000Y-59031190D01*
X183411904Y-59507380D02*
X183411904Y-58507380D01*
X183792857Y-58507380D01*
X183888095Y-58555000D01*
X183935714Y-58602619D01*
X183983333Y-58697857D01*
X183983333Y-58840714D01*
X183935714Y-58935952D01*
X183888095Y-58983571D01*
X183792857Y-59031190D01*
X183411904Y-59031190D01*
X184935714Y-59507380D02*
X184364285Y-59507380D01*
X184650000Y-59507380D02*
X184650000Y-58507380D01*
X184554761Y-58650238D01*
X184459523Y-58745476D01*
X184364285Y-58793095D01*
%TO.C,JP1*%
X138930166Y-82882880D02*
X138930166Y-83597166D01*
X138882547Y-83740023D01*
X138787309Y-83835261D01*
X138644452Y-83882880D01*
X138549214Y-83882880D01*
X139406357Y-83882880D02*
X139406357Y-82882880D01*
X139787309Y-82882880D01*
X139882547Y-82930500D01*
X139930166Y-82978119D01*
X139977785Y-83073357D01*
X139977785Y-83216214D01*
X139930166Y-83311452D01*
X139882547Y-83359071D01*
X139787309Y-83406690D01*
X139406357Y-83406690D01*
X140930166Y-83882880D02*
X140358738Y-83882880D01*
X140644452Y-83882880D02*
X140644452Y-82882880D01*
X140549214Y-83025738D01*
X140453976Y-83120976D01*
X140358738Y-83168595D01*
%TO.C,RV1*%
X183427761Y-85542380D02*
X183094428Y-85066190D01*
X182856333Y-85542380D02*
X182856333Y-84542380D01*
X183237285Y-84542380D01*
X183332523Y-84590000D01*
X183380142Y-84637619D01*
X183427761Y-84732857D01*
X183427761Y-84875714D01*
X183380142Y-84970952D01*
X183332523Y-85018571D01*
X183237285Y-85066190D01*
X182856333Y-85066190D01*
X183713476Y-84542380D02*
X184046809Y-85542380D01*
X184380142Y-84542380D01*
X185237285Y-85542380D02*
X184665857Y-85542380D01*
X184951571Y-85542380D02*
X184951571Y-84542380D01*
X184856333Y-84685238D01*
X184761095Y-84780476D01*
X184665857Y-84828095D01*
%TO.C,C4*%
X181570333Y-64492142D02*
X181522714Y-64539761D01*
X181379857Y-64587380D01*
X181284619Y-64587380D01*
X181141761Y-64539761D01*
X181046523Y-64444523D01*
X180998904Y-64349285D01*
X180951285Y-64158809D01*
X180951285Y-64015952D01*
X180998904Y-63825476D01*
X181046523Y-63730238D01*
X181141761Y-63635000D01*
X181284619Y-63587380D01*
X181379857Y-63587380D01*
X181522714Y-63635000D01*
X181570333Y-63682619D01*
X182427476Y-63920714D02*
X182427476Y-64587380D01*
X182189380Y-63539761D02*
X181951285Y-64254047D01*
X182570333Y-64254047D01*
D14*
%TO.C,J1*%
X124527571Y-64508000D02*
X125599000Y-64508000D01*
X125813285Y-64579428D01*
X125956142Y-64722285D01*
X126027571Y-64936571D01*
X126027571Y-65079428D01*
X126027571Y-63008000D02*
X126027571Y-63865142D01*
X126027571Y-63436571D02*
X124527571Y-63436571D01*
X124741857Y-63579428D01*
X124884714Y-63722285D01*
X124956142Y-63865142D01*
D13*
%TO.C,D3*%
X158773904Y-59126380D02*
X158773904Y-58126380D01*
X159012000Y-58126380D01*
X159154857Y-58174000D01*
X159250095Y-58269238D01*
X159297714Y-58364476D01*
X159345333Y-58554952D01*
X159345333Y-58697809D01*
X159297714Y-58888285D01*
X159250095Y-58983523D01*
X159154857Y-59078761D01*
X159012000Y-59126380D01*
X158773904Y-59126380D01*
X159678666Y-58126380D02*
X160297714Y-58126380D01*
X159964380Y-58507333D01*
X160107238Y-58507333D01*
X160202476Y-58554952D01*
X160250095Y-58602571D01*
X160297714Y-58697809D01*
X160297714Y-58935904D01*
X160250095Y-59031142D01*
X160202476Y-59078761D01*
X160107238Y-59126380D01*
X159821523Y-59126380D01*
X159726285Y-59078761D01*
X159678666Y-59031142D01*
X164812695Y-64172780D02*
X164812695Y-63172780D01*
X165384123Y-64172780D02*
X164955552Y-63601352D01*
X165384123Y-63172780D02*
X164812695Y-63744209D01*
%TO.C,SW1*%
X139977761Y-94551333D02*
X140025380Y-94408476D01*
X140025380Y-94170380D01*
X139977761Y-94075142D01*
X139930142Y-94027523D01*
X139834904Y-93979904D01*
X139739666Y-93979904D01*
X139644428Y-94027523D01*
X139596809Y-94075142D01*
X139549190Y-94170380D01*
X139501571Y-94360857D01*
X139453952Y-94456095D01*
X139406333Y-94503714D01*
X139311095Y-94551333D01*
X139215857Y-94551333D01*
X139120619Y-94503714D01*
X139073000Y-94456095D01*
X139025380Y-94360857D01*
X139025380Y-94122761D01*
X139073000Y-93979904D01*
X139025380Y-93646571D02*
X140025380Y-93408476D01*
X139311095Y-93218000D01*
X140025380Y-93027523D01*
X139025380Y-92789428D01*
X140025380Y-91884666D02*
X140025380Y-92456095D01*
X140025380Y-92170380D02*
X139025380Y-92170380D01*
X139168238Y-92265619D01*
X139263476Y-92360857D01*
X139311095Y-92456095D01*
%TO.C,D5*%
X146761904Y-88941380D02*
X146761904Y-87941380D01*
X147000000Y-87941380D01*
X147142857Y-87989000D01*
X147238095Y-88084238D01*
X147285714Y-88179476D01*
X147333333Y-88369952D01*
X147333333Y-88512809D01*
X147285714Y-88703285D01*
X147238095Y-88798523D01*
X147142857Y-88893761D01*
X147000000Y-88941380D01*
X146761904Y-88941380D01*
X148238095Y-87941380D02*
X147761904Y-87941380D01*
X147714285Y-88417571D01*
X147761904Y-88369952D01*
X147857142Y-88322333D01*
X148095238Y-88322333D01*
X148190476Y-88369952D01*
X148238095Y-88417571D01*
X148285714Y-88512809D01*
X148285714Y-88750904D01*
X148238095Y-88846142D01*
X148190476Y-88893761D01*
X148095238Y-88941380D01*
X147857142Y-88941380D01*
X147761904Y-88893761D01*
X147714285Y-88846142D01*
%TO.C,C6*%
X185380333Y-76597142D02*
X185332714Y-76644761D01*
X185189857Y-76692380D01*
X185094619Y-76692380D01*
X184951761Y-76644761D01*
X184856523Y-76549523D01*
X184808904Y-76454285D01*
X184761285Y-76263809D01*
X184761285Y-76120952D01*
X184808904Y-75930476D01*
X184856523Y-75835238D01*
X184951761Y-75740000D01*
X185094619Y-75692380D01*
X185189857Y-75692380D01*
X185332714Y-75740000D01*
X185380333Y-75787619D01*
X186237476Y-75692380D02*
X186047000Y-75692380D01*
X185951761Y-75740000D01*
X185904142Y-75787619D01*
X185808904Y-75930476D01*
X185761285Y-76120952D01*
X185761285Y-76501904D01*
X185808904Y-76597142D01*
X185856523Y-76644761D01*
X185951761Y-76692380D01*
X186142238Y-76692380D01*
X186237476Y-76644761D01*
X186285095Y-76597142D01*
X186332714Y-76501904D01*
X186332714Y-76263809D01*
X186285095Y-76168571D01*
X186237476Y-76120952D01*
X186142238Y-76073333D01*
X185951761Y-76073333D01*
X185856523Y-76120952D01*
X185808904Y-76168571D01*
X185761285Y-76263809D01*
%TO.C,F1*%
X130476666Y-77398571D02*
X130143333Y-77398571D01*
X130143333Y-77922380D02*
X130143333Y-76922380D01*
X130619523Y-76922380D01*
X131524285Y-77922380D02*
X130952857Y-77922380D01*
X131238571Y-77922380D02*
X131238571Y-76922380D01*
X131143333Y-77065238D01*
X131048095Y-77160476D01*
X130952857Y-77208095D01*
%TO.C,C8*%
X151725333Y-67667142D02*
X151677714Y-67714761D01*
X151534857Y-67762380D01*
X151439619Y-67762380D01*
X151296761Y-67714761D01*
X151201523Y-67619523D01*
X151153904Y-67524285D01*
X151106285Y-67333809D01*
X151106285Y-67190952D01*
X151153904Y-67000476D01*
X151201523Y-66905238D01*
X151296761Y-66810000D01*
X151439619Y-66762380D01*
X151534857Y-66762380D01*
X151677714Y-66810000D01*
X151725333Y-66857619D01*
X152296761Y-67190952D02*
X152201523Y-67143333D01*
X152153904Y-67095714D01*
X152106285Y-67000476D01*
X152106285Y-66952857D01*
X152153904Y-66857619D01*
X152201523Y-66810000D01*
X152296761Y-66762380D01*
X152487238Y-66762380D01*
X152582476Y-66810000D01*
X152630095Y-66857619D01*
X152677714Y-66952857D01*
X152677714Y-67000476D01*
X152630095Y-67095714D01*
X152582476Y-67143333D01*
X152487238Y-67190952D01*
X152296761Y-67190952D01*
X152201523Y-67238571D01*
X152153904Y-67286190D01*
X152106285Y-67381428D01*
X152106285Y-67571904D01*
X152153904Y-67667142D01*
X152201523Y-67714761D01*
X152296761Y-67762380D01*
X152487238Y-67762380D01*
X152582476Y-67714761D01*
X152630095Y-67667142D01*
X152677714Y-67571904D01*
X152677714Y-67381428D01*
X152630095Y-67286190D01*
X152582476Y-67238571D01*
X152487238Y-67190952D01*
%TO.C,D4*%
X177998380Y-89892095D02*
X176998380Y-89892095D01*
X176998380Y-89654000D01*
X177046000Y-89511142D01*
X177141238Y-89415904D01*
X177236476Y-89368285D01*
X177426952Y-89320666D01*
X177569809Y-89320666D01*
X177760285Y-89368285D01*
X177855523Y-89415904D01*
X177950761Y-89511142D01*
X177998380Y-89654000D01*
X177998380Y-89892095D01*
X177331714Y-88463523D02*
X177998380Y-88463523D01*
X176950761Y-88701619D02*
X177665047Y-88939714D01*
X177665047Y-88320666D01*
X177284095Y-85796380D02*
X177284095Y-84796380D01*
X177855523Y-85796380D02*
X177426952Y-85224952D01*
X177855523Y-84796380D02*
X177284095Y-85367809D01*
%TO.C,C2*%
X172543333Y-65117142D02*
X172495714Y-65164761D01*
X172352857Y-65212380D01*
X172257619Y-65212380D01*
X172114761Y-65164761D01*
X172019523Y-65069523D01*
X171971904Y-64974285D01*
X171924285Y-64783809D01*
X171924285Y-64640952D01*
X171971904Y-64450476D01*
X172019523Y-64355238D01*
X172114761Y-64260000D01*
X172257619Y-64212380D01*
X172352857Y-64212380D01*
X172495714Y-64260000D01*
X172543333Y-64307619D01*
X172924285Y-64307619D02*
X172971904Y-64260000D01*
X173067142Y-64212380D01*
X173305238Y-64212380D01*
X173400476Y-64260000D01*
X173448095Y-64307619D01*
X173495714Y-64402857D01*
X173495714Y-64498095D01*
X173448095Y-64640952D01*
X172876666Y-65212380D01*
X173495714Y-65212380D01*
%TO.C,C1*%
X164923333Y-70207142D02*
X164875714Y-70254761D01*
X164732857Y-70302380D01*
X164637619Y-70302380D01*
X164494761Y-70254761D01*
X164399523Y-70159523D01*
X164351904Y-70064285D01*
X164304285Y-69873809D01*
X164304285Y-69730952D01*
X164351904Y-69540476D01*
X164399523Y-69445238D01*
X164494761Y-69350000D01*
X164637619Y-69302380D01*
X164732857Y-69302380D01*
X164875714Y-69350000D01*
X164923333Y-69397619D01*
X165875714Y-70302380D02*
X165304285Y-70302380D01*
X165590000Y-70302380D02*
X165590000Y-69302380D01*
X165494761Y-69445238D01*
X165399523Y-69540476D01*
X165304285Y-69588095D01*
D14*
%TO.C,Q3*%
X171257142Y-55121428D02*
X171114285Y-55050000D01*
X170971428Y-54907142D01*
X170757142Y-54692857D01*
X170614285Y-54621428D01*
X170471428Y-54621428D01*
X170542857Y-54978571D02*
X170400000Y-54907142D01*
X170257142Y-54764285D01*
X170185714Y-54478571D01*
X170185714Y-53978571D01*
X170257142Y-53692857D01*
X170400000Y-53550000D01*
X170542857Y-53478571D01*
X170828571Y-53478571D01*
X170971428Y-53550000D01*
X171114285Y-53692857D01*
X171185714Y-53978571D01*
X171185714Y-54478571D01*
X171114285Y-54764285D01*
X170971428Y-54907142D01*
X170828571Y-54978571D01*
X170542857Y-54978571D01*
X171685714Y-53478571D02*
X172614285Y-53478571D01*
X172114285Y-54050000D01*
X172328571Y-54050000D01*
X172471428Y-54121428D01*
X172542857Y-54192857D01*
X172614285Y-54335714D01*
X172614285Y-54692857D01*
X172542857Y-54835714D01*
X172471428Y-54907142D01*
X172328571Y-54978571D01*
X171900000Y-54978571D01*
X171757142Y-54907142D01*
X171685714Y-54835714D01*
D13*
%TO.C,U1*%
X178308095Y-74362380D02*
X178308095Y-75171904D01*
X178355714Y-75267142D01*
X178403333Y-75314761D01*
X178498571Y-75362380D01*
X178689047Y-75362380D01*
X178784285Y-75314761D01*
X178831904Y-75267142D01*
X178879523Y-75171904D01*
X178879523Y-74362380D01*
X179879523Y-75362380D02*
X179308095Y-75362380D01*
X179593809Y-75362380D02*
X179593809Y-74362380D01*
X179498571Y-74505238D01*
X179403333Y-74600476D01*
X179308095Y-74648095D01*
D14*
%TO.C,Q1*%
X150957142Y-55221428D02*
X150814285Y-55150000D01*
X150671428Y-55007142D01*
X150457142Y-54792857D01*
X150314285Y-54721428D01*
X150171428Y-54721428D01*
X150242857Y-55078571D02*
X150100000Y-55007142D01*
X149957142Y-54864285D01*
X149885714Y-54578571D01*
X149885714Y-54078571D01*
X149957142Y-53792857D01*
X150100000Y-53650000D01*
X150242857Y-53578571D01*
X150528571Y-53578571D01*
X150671428Y-53650000D01*
X150814285Y-53792857D01*
X150885714Y-54078571D01*
X150885714Y-54578571D01*
X150814285Y-54864285D01*
X150671428Y-55007142D01*
X150528571Y-55078571D01*
X150242857Y-55078571D01*
X152314285Y-55078571D02*
X151457142Y-55078571D01*
X151885714Y-55078571D02*
X151885714Y-53578571D01*
X151742857Y-53792857D01*
X151600000Y-53935714D01*
X151457142Y-54007142D01*
%TO.C,J3*%
X124527571Y-78224000D02*
X125599000Y-78224000D01*
X125813285Y-78295428D01*
X125956142Y-78438285D01*
X126027571Y-78652571D01*
X126027571Y-78795428D01*
X124527571Y-77652571D02*
X124527571Y-76724000D01*
X125099000Y-77224000D01*
X125099000Y-77009714D01*
X125170428Y-76866857D01*
X125241857Y-76795428D01*
X125384714Y-76724000D01*
X125741857Y-76724000D01*
X125884714Y-76795428D01*
X125956142Y-76866857D01*
X126027571Y-77009714D01*
X126027571Y-77438285D01*
X125956142Y-77581142D01*
X125884714Y-77652571D01*
D13*
%TO.C,R2*%
X163043333Y-80462380D02*
X162710000Y-79986190D01*
X162471904Y-80462380D02*
X162471904Y-79462380D01*
X162852857Y-79462380D01*
X162948095Y-79510000D01*
X162995714Y-79557619D01*
X163043333Y-79652857D01*
X163043333Y-79795714D01*
X162995714Y-79890952D01*
X162948095Y-79938571D01*
X162852857Y-79986190D01*
X162471904Y-79986190D01*
X163424285Y-79557619D02*
X163471904Y-79510000D01*
X163567142Y-79462380D01*
X163805238Y-79462380D01*
X163900476Y-79510000D01*
X163948095Y-79557619D01*
X163995714Y-79652857D01*
X163995714Y-79748095D01*
X163948095Y-79890952D01*
X163376666Y-80462380D01*
X163995714Y-80462380D01*
D15*
%TO.C,R4*%
X193660000Y-77820000D02*
X193660000Y-79660000D01*
X193660000Y-79660000D02*
X197500000Y-79660000D01*
X198450000Y-78740000D02*
X197500000Y-78740000D01*
X197500000Y-77820000D02*
X193660000Y-77820000D01*
X192710000Y-78740000D02*
X193660000Y-78740000D01*
X197500000Y-79660000D02*
X197500000Y-77820000D01*
%TO.C,Diode1\u002C2*%
X128960000Y-51340000D02*
X128960000Y-52850000D01*
X135930000Y-51340000D02*
X135930000Y-55981000D01*
X125690000Y-51340000D02*
X135930000Y-51340000D01*
X125690000Y-52850000D02*
X135930000Y-52850000D01*
X132661000Y-51340000D02*
X132661000Y-52850000D01*
X125690000Y-51340000D02*
X125690000Y-55981000D01*
X125690000Y-55981000D02*
X135930000Y-55981000D01*
%TO.C,J2*%
X119803000Y-95248500D02*
X119803000Y-85028500D01*
X119803000Y-85028500D02*
X111083000Y-85028500D01*
X116293000Y-84228500D02*
X115993000Y-84828500D01*
X115693000Y-84228500D02*
X116293000Y-84228500D01*
X115993000Y-84828500D02*
X115693000Y-84228500D01*
X111083000Y-95248500D02*
X119803000Y-95248500D01*
X111083000Y-85028500D02*
X111083000Y-95248500D01*
%TO.C,Q2*%
X186650000Y-47530000D02*
X186650000Y-52171000D01*
X193621000Y-47530000D02*
X193621000Y-49040000D01*
X186650000Y-52171000D02*
X196890000Y-52171000D01*
X186650000Y-47530000D02*
X196890000Y-47530000D01*
X186650000Y-49040000D02*
X196890000Y-49040000D01*
X189920000Y-47530000D02*
X189920000Y-49040000D01*
X196890000Y-47530000D02*
X196890000Y-52171000D01*
%TO.C,IC1*%
X190567000Y-64152000D02*
X190567000Y-65802000D01*
X190567000Y-69452000D02*
X200847000Y-69452000D01*
X200847000Y-69452000D02*
X200847000Y-64152000D01*
X200847000Y-64152000D02*
X190567000Y-64152000D01*
X190567000Y-67802000D02*
X190567000Y-69452000D01*
X190567000Y-67802000D02*
G75*
G03*
X190567000Y-65802000I0J1000000D01*
G01*
%TO.C,C3*%
X190590000Y-72417000D02*
X198030000Y-72417000D01*
X190590000Y-75157000D02*
X198030000Y-75157000D01*
X198030000Y-72417000D02*
X198030000Y-75157000D01*
X190590000Y-72417000D02*
X190590000Y-75157000D01*
%TO.C,D2*%
X169980000Y-91990000D02*
X172920000Y-91990000D01*
X172920000Y-87450000D02*
X169980000Y-87450000D01*
X169980000Y-87450000D02*
X169980000Y-92890000D01*
X169980000Y-91870000D02*
X172920000Y-91870000D01*
X169980000Y-92890000D02*
X172920000Y-92890000D01*
X171450000Y-93910000D02*
X171450000Y-92890000D01*
X169980000Y-92110000D02*
X172920000Y-92110000D01*
X171450000Y-86430000D02*
X171450000Y-87450000D01*
X172920000Y-92890000D02*
X172920000Y-87450000D01*
%TO.C,C5*%
X162000000Y-67310000D02*
G75*
G03*
X162000000Y-67310000I-3270000J0D01*
G01*
%TO.C,R3*%
X170444400Y-62540400D02*
X174284400Y-62540400D01*
X174284400Y-60700400D02*
X170444400Y-60700400D01*
X175234400Y-61620400D02*
X174284400Y-61620400D01*
X174284400Y-62540400D02*
X174284400Y-60700400D01*
X170444400Y-60700400D02*
X170444400Y-62540400D01*
X169494400Y-61620400D02*
X170444400Y-61620400D01*
%TO.C,R5*%
X157830000Y-78120000D02*
X159670000Y-78120000D01*
X157830000Y-74280000D02*
X157830000Y-78120000D01*
X158750000Y-73330000D02*
X158750000Y-74280000D01*
X159670000Y-78120000D02*
X159670000Y-74280000D01*
X158750000Y-79070000D02*
X158750000Y-78120000D01*
X159670000Y-74280000D02*
X157830000Y-74280000D01*
%TO.C,R1*%
X187420000Y-62965000D02*
X187420000Y-60225000D01*
X188190000Y-61595000D02*
X187420000Y-61595000D01*
X187420000Y-60225000D02*
X180880000Y-60225000D01*
X180880000Y-62965000D02*
X187420000Y-62965000D01*
X180110000Y-61595000D02*
X180880000Y-61595000D01*
X180880000Y-60225000D02*
X180880000Y-62965000D01*
%TO.C,JP1*%
X139636500Y-88653500D02*
X139936500Y-89253500D01*
X139336500Y-89253500D02*
X139636500Y-88653500D01*
X139936500Y-89253500D02*
X139336500Y-89253500D01*
X137452100Y-88413500D02*
X141922500Y-88453500D01*
X141922500Y-78233500D02*
X137452100Y-78233500D01*
X141922500Y-88453500D02*
X141922500Y-78233500D01*
X137452100Y-78193500D02*
X137452100Y-88413500D01*
%TO.C,RV1*%
X194730000Y-86590000D02*
X194730000Y-94330000D01*
X194730000Y-94330000D02*
X178490000Y-94330000D01*
X194730000Y-86590000D02*
X178490000Y-86590000D01*
X188730000Y-99330000D02*
X188730000Y-109330000D01*
X188730000Y-109330000D02*
X184490000Y-109330000D01*
X184490000Y-99330000D02*
X184490000Y-109330000D01*
X178490000Y-86590000D02*
X178490000Y-94330000D01*
X190230000Y-99330000D02*
X182990000Y-99330000D01*
X182990000Y-94330000D02*
X182990000Y-99330000D01*
X190230000Y-94330000D02*
X190230000Y-99330000D01*
X190230000Y-94330000D02*
X182990000Y-94330000D01*
X188730000Y-99330000D02*
X184490000Y-99330000D01*
%TO.C,C4*%
X189032000Y-68806000D02*
G75*
G03*
X189032000Y-68806000I-4120000J0D01*
G01*
%TO.C,J1*%
X111061500Y-57526000D02*
X111061500Y-70231000D01*
X119062500Y-58531000D02*
X118762500Y-57931000D01*
X111061500Y-70231000D02*
X123634500Y-70231000D01*
X118762500Y-57931000D02*
X119362500Y-57931000D01*
X123634500Y-70231000D02*
X123634500Y-57536000D01*
X123634500Y-57536000D02*
X111061500Y-57526000D01*
X119362500Y-57931000D02*
X119062500Y-58531000D01*
%TO.C,D3*%
X157274600Y-60150400D02*
X157274600Y-63090400D01*
X162714600Y-60150400D02*
X157274600Y-60150400D01*
X157274600Y-63090400D02*
X162714600Y-63090400D01*
X162714600Y-63090400D02*
X162714600Y-60150400D01*
X161934600Y-63090400D02*
X161934600Y-60150400D01*
X161694600Y-63090400D02*
X161694600Y-60150400D01*
X163734600Y-61620400D02*
X162714600Y-61620400D01*
X156254600Y-61620400D02*
X157274600Y-61620400D01*
X161814600Y-63090400D02*
X161814600Y-60150400D01*
%TO.C,SW1*%
X143256000Y-95631000D02*
X143256000Y-90551000D01*
X143256000Y-90551000D02*
X135890000Y-90551000D01*
X135890000Y-95631000D02*
X143256000Y-95631000D01*
X135890000Y-90551000D02*
X135890000Y-95631000D01*
%TO.C,D5*%
X145775000Y-95529000D02*
X148865000Y-95529000D01*
X147320462Y-89979000D02*
G75*
G03*
X145775170Y-95529000I-462J-2990000D01*
G01*
X148864830Y-95529000D02*
G75*
G03*
X147319538Y-89979000I-1544830J2560000D01*
G01*
X149820000Y-92969000D02*
G75*
G03*
X149820000Y-92969000I-2500000J0D01*
G01*
%TO.C,C6*%
X181827000Y-80110000D02*
X189267000Y-80110000D01*
X189267000Y-77370000D02*
X189267000Y-80110000D01*
X181827000Y-77370000D02*
X189267000Y-77370000D01*
X181827000Y-77370000D02*
X181827000Y-80110000D01*
%TO.C,F1*%
X126875000Y-67730000D02*
X129060000Y-67730000D01*
X134745000Y-60665000D02*
X132560000Y-60665000D01*
X134745000Y-67730000D02*
X134745000Y-60665000D01*
X126875000Y-67730000D02*
X126875000Y-60665000D01*
X134745000Y-94320000D02*
X134745000Y-87210000D01*
X129060000Y-94320000D02*
X126875000Y-94320000D01*
X126875000Y-87210000D02*
X129060000Y-87210000D01*
X134745000Y-87210000D02*
X132560000Y-87210000D01*
X134745000Y-67730000D02*
X132560000Y-67730000D01*
X126875000Y-87210000D02*
X126875000Y-94320000D01*
X133985000Y-87210000D02*
X133985000Y-67730000D01*
X132560000Y-94320000D02*
X134745000Y-94320000D01*
X126875000Y-60665000D02*
X129060000Y-60665000D01*
X127635000Y-87210000D02*
X127635000Y-67730000D01*
%TO.C,C8*%
X156270000Y-74930000D02*
G75*
G03*
X156270000Y-74930000I-6370000J0D01*
G01*
%TO.C,D4*%
X176476000Y-92890000D02*
X176476000Y-87450000D01*
X173536000Y-92890000D02*
X176476000Y-92890000D01*
X176476000Y-88470000D02*
X173536000Y-88470000D01*
X175006000Y-93910000D02*
X175006000Y-92890000D01*
X173536000Y-87450000D02*
X173536000Y-92890000D01*
X176476000Y-87450000D02*
X173536000Y-87450000D01*
X175006000Y-86430000D02*
X175006000Y-87450000D01*
X176476000Y-88350000D02*
X173536000Y-88350000D01*
X176476000Y-88230000D02*
X173536000Y-88230000D01*
%TO.C,C2*%
X168990000Y-68670000D02*
X168990000Y-65930000D01*
X176430000Y-68670000D02*
X176430000Y-65930000D01*
X176430000Y-65930000D02*
X168990000Y-65930000D01*
X176430000Y-68670000D02*
X168990000Y-68670000D01*
%TO.C,C1*%
X163720000Y-71200000D02*
X163720000Y-78640000D01*
X166460000Y-71200000D02*
X163720000Y-71200000D01*
X166460000Y-71200000D02*
X166460000Y-78640000D01*
X166460000Y-78640000D02*
X163720000Y-78640000D01*
%TO.C,Q3*%
X166330000Y-47530000D02*
X176570000Y-47530000D01*
X166330000Y-47530000D02*
X166330000Y-52171000D01*
X166330000Y-49040000D02*
X176570000Y-49040000D01*
X176570000Y-47530000D02*
X176570000Y-52171000D01*
X166330000Y-52171000D02*
X176570000Y-52171000D01*
X173301000Y-47530000D02*
X173301000Y-49040000D01*
X169600000Y-47530000D02*
X169600000Y-49040000D01*
%TO.C,U1*%
X167580000Y-77560000D02*
X177860000Y-77560000D01*
X177860000Y-72260000D02*
X167580000Y-72260000D01*
X177860000Y-77560000D02*
X177860000Y-72260000D01*
X167580000Y-75910000D02*
X167580000Y-77560000D01*
X167580000Y-72260000D02*
X167580000Y-73910000D01*
X167580000Y-75910000D02*
G75*
G03*
X167580000Y-73910000I0J1000000D01*
G01*
%TO.C,Q1*%
X156250000Y-47530000D02*
X156250000Y-52171000D01*
X146010000Y-47530000D02*
X156250000Y-47530000D01*
X146010000Y-52171000D02*
X156250000Y-52171000D01*
X146010000Y-47530000D02*
X146010000Y-52171000D01*
X149280000Y-47530000D02*
X149280000Y-49040000D01*
X152981000Y-47530000D02*
X152981000Y-49040000D01*
X146010000Y-49040000D02*
X156250000Y-49040000D01*
%TO.C,J3*%
X111061500Y-83947000D02*
X123507500Y-83947000D01*
X111061500Y-71247000D02*
X111061500Y-83947000D01*
X118935500Y-72374000D02*
X118635500Y-71774000D01*
X123507500Y-83947000D02*
X123507500Y-71247000D01*
X119235500Y-71774000D02*
X118935500Y-72374000D01*
X123507500Y-71247000D02*
X111061500Y-71247000D01*
X118635500Y-71774000D02*
X119235500Y-71774000D01*
%TO.C,R2*%
X160370000Y-78120000D02*
X162210000Y-78120000D01*
X162210000Y-78120000D02*
X162210000Y-74280000D01*
X161290000Y-79070000D02*
X161290000Y-78120000D01*
X161290000Y-73330000D02*
X161290000Y-74280000D01*
X162210000Y-74280000D02*
X160370000Y-74280000D01*
X160370000Y-74280000D02*
X160370000Y-78120000D01*
%TD*%
M02*
