%TF.GenerationSoftware,KiCad,Pcbnew,(6.0.8)*%
%TF.CreationDate,2022-11-10T19:09:55+02:00*%
%TF.ProjectId,DCMotorDriver,44434d6f-746f-4724-9472-697665722e6b,1.0*%
%TF.SameCoordinates,Original*%
%TF.FileFunction,Copper,L2,Bot*%
%TF.FilePolarity,Positive*%
%FSLAX46Y46*%
G04 Gerber Fmt 4.6, Leading zero omitted, Abs format (unit mm)*
G04 Created by KiCad (PCBNEW (6.0.8)) date 2022-11-10 19:09:55*
%MOMM*%
%LPD*%
G01*
G04 APERTURE LIST*
G04 Aperture macros list*
%AMRoundRect*
0 Rectangle with rounded corners*
0 $1 Rounding radius*
0 $2 $3 $4 $5 $6 $7 $8 $9 X,Y pos of 4 corners*
0 Add a 4 corners polygon primitive as box body*
4,1,4,$2,$3,$4,$5,$6,$7,$8,$9,$2,$3,0*
0 Add four circle primitives for the rounded corners*
1,1,$1+$1,$2,$3*
1,1,$1+$1,$4,$5*
1,1,$1+$1,$6,$7*
1,1,$1+$1,$8,$9*
0 Add four rect primitives between the rounded corners*
20,1,$1+$1,$2,$3,$4,$5,0*
20,1,$1+$1,$4,$5,$6,$7,0*
20,1,$1+$1,$6,$7,$8,$9,0*
20,1,$1+$1,$8,$9,$2,$3,0*%
G04 Aperture macros list end*
%TA.AperFunction,ComponentPad*%
%ADD10C,1.400000*%
%TD*%
%TA.AperFunction,ComponentPad*%
%ADD11O,1.400000X1.400000*%
%TD*%
%TA.AperFunction,ComponentPad*%
%ADD12R,1.905000X3.000000*%
%TD*%
%TA.AperFunction,ComponentPad*%
%ADD13O,1.905000X3.000000*%
%TD*%
%TA.AperFunction,ComponentPad*%
%ADD14RoundRect,0.250001X-1.749999X1.099999X-1.749999X-1.099999X1.749999X-1.099999X1.749999X1.099999X0*%
%TD*%
%TA.AperFunction,ComponentPad*%
%ADD15RoundRect,0.675000X-1.325000X0.675000X-1.325000X-0.675000X1.325000X-0.675000X1.325000X0.675000X0*%
%TD*%
%TA.AperFunction,ComponentPad*%
%ADD16R,1.600000X1.600000*%
%TD*%
%TA.AperFunction,ComponentPad*%
%ADD17O,1.600000X1.600000*%
%TD*%
%TA.AperFunction,ComponentPad*%
%ADD18C,1.600000*%
%TD*%
%TA.AperFunction,ComponentPad*%
%ADD19R,2.200000X2.200000*%
%TD*%
%TA.AperFunction,ComponentPad*%
%ADD20O,2.200000X2.200000*%
%TD*%
%TA.AperFunction,ComponentPad*%
%ADD21C,2.500000*%
%TD*%
%TA.AperFunction,ComponentPad*%
%ADD22RoundRect,0.585000X-0.585000X1.415000X-0.585000X-1.415000X0.585000X-1.415000X0.585000X1.415000X0*%
%TD*%
%TA.AperFunction,ComponentPad*%
%ADD23RoundRect,0.370372X-1.629628X1.629628X-1.629628X-1.629628X1.629628X-1.629628X1.629628X1.629628X0*%
%TD*%
%TA.AperFunction,ComponentPad*%
%ADD24RoundRect,1.000000X-1.000000X1.000000X-1.000000X-1.000000X1.000000X-1.000000X1.000000X1.000000X0*%
%TD*%
%TA.AperFunction,ComponentPad*%
%ADD25R,1.800000X1.800000*%
%TD*%
%TA.AperFunction,ComponentPad*%
%ADD26C,1.800000*%
%TD*%
%TA.AperFunction,ComponentPad*%
%ADD27RoundRect,0.750000X-1.250000X0.750000X-1.250000X-0.750000X1.250000X-0.750000X1.250000X0.750000X0*%
%TD*%
%TA.AperFunction,ComponentPad*%
%ADD28C,4.000000*%
%TD*%
%TA.AperFunction,ViaPad*%
%ADD29C,4.000000*%
%TD*%
%TA.AperFunction,ViaPad*%
%ADD30C,0.800000*%
%TD*%
%TA.AperFunction,ViaPad*%
%ADD31C,2.000000*%
%TD*%
%TA.AperFunction,ViaPad*%
%ADD32C,3.000000*%
%TD*%
%TA.AperFunction,Conductor*%
%ADD33C,1.900000*%
%TD*%
%TA.AperFunction,Conductor*%
%ADD34C,1.000000*%
%TD*%
%TA.AperFunction,Conductor*%
%ADD35C,1.500000*%
%TD*%
G04 APERTURE END LIST*
D10*
%TO.P,R4,1*%
%TO.N,PWM*%
X191770000Y-78740000D03*
D11*
%TO.P,R4,2*%
%TO.N,GND*%
X199390000Y-78740000D03*
%TD*%
D12*
%TO.P,Diode1\u002C2,1,A_1*%
%TO.N,anode*%
X128270000Y-54610000D03*
D13*
%TO.P,Diode1\u002C2,2,COMMON_K*%
%TO.N,kathode*%
X130810000Y-54610000D03*
%TO.P,Diode1\u002C2,3,A_2*%
%TO.N,anode*%
X133350000Y-54610000D03*
%TD*%
D14*
%TO.P,J2,1,Pin_1*%
%TO.N,Supply1+*%
X115993000Y-87638500D03*
D15*
%TO.P,J2,2,Pin_2*%
%TO.N,GND*%
X115993000Y-92638500D03*
%TD*%
D12*
%TO.P,Q2,1,G*%
%TO.N,Gate*%
X189230000Y-50800000D03*
D13*
%TO.P,Q2,2,D*%
%TO.N,anode*%
X191770000Y-50800000D03*
%TO.P,Q2,3,S*%
%TO.N,GND*%
X194310000Y-50800000D03*
%TD*%
D16*
%TO.P,IC1,1,VCC_1*%
%TO.N,Vcc*%
X191897000Y-70612000D03*
D17*
%TO.P,IC1,2,IN*%
%TO.N,PWM*%
X194437000Y-70612000D03*
%TO.P,IC1,3,NC*%
%TO.N,unconnected-(IC1-Pad3)*%
X196977000Y-70612000D03*
%TO.P,IC1,4,GND_1*%
%TO.N,GND*%
X199517000Y-70612000D03*
%TO.P,IC1,5,GND_2*%
X199517000Y-62992000D03*
%TO.P,IC1,6,OUT_1*%
%TO.N,Net-(IC1-Pad6)*%
X196977000Y-62992000D03*
%TO.P,IC1,7,OUT_2*%
X194437000Y-62992000D03*
%TO.P,IC1,8,VCC_2*%
%TO.N,Vcc*%
X191897000Y-62992000D03*
%TD*%
D18*
%TO.P,C3,1*%
%TO.N,Vcc*%
X191810000Y-73787000D03*
%TO.P,C3,2*%
%TO.N,GND*%
X196810000Y-73787000D03*
%TD*%
D19*
%TO.P,D2,1,K*%
%TO.N,Net-(RV1-Pad1)*%
X171450000Y-95250000D03*
D20*
%TO.P,D2,2,A*%
%TO.N,Net-(R2-Pad2)*%
X171450000Y-85090000D03*
%TD*%
D18*
%TO.P,C5,1*%
%TO.N,Vcc*%
X157480000Y-67310000D03*
%TO.P,C5,2*%
%TO.N,GND*%
X159980000Y-67310000D03*
%TD*%
D10*
%TO.P,R3,1*%
%TO.N,Gate*%
X176174400Y-61620400D03*
D11*
%TO.P,R3,2*%
%TO.N,GND*%
X168554400Y-61620400D03*
%TD*%
D10*
%TO.P,R5,1*%
%TO.N,Vcc*%
X158750000Y-72390000D03*
D11*
%TO.P,R5,2*%
%TO.N,Net-(D5-Pad2)*%
X158750000Y-80010000D03*
%TD*%
D18*
%TO.P,R1,1*%
%TO.N,Net-(IC1-Pad6)*%
X189230000Y-61595000D03*
D17*
%TO.P,R1,2*%
%TO.N,Gate*%
X179070000Y-61595000D03*
%TD*%
D21*
%TO.P,JP1,1,Pin_1*%
%TO.N,Supply1+*%
X139636500Y-85843500D03*
%TO.P,JP1,2,Pin_2*%
%TO.N,Supply2+*%
X139636500Y-80843500D03*
%TD*%
D22*
%TO.P,RV1,1,1*%
%TO.N,Net-(RV1-Pad1)*%
X181610000Y-92710000D03*
%TO.P,RV1,2,2*%
%TO.N,Net-(C6-Pad1)*%
X186610000Y-92710000D03*
%TO.P,RV1,3,3*%
%TO.N,Net-(RV1-Pad3)*%
X191610000Y-92710000D03*
%TD*%
D18*
%TO.P,C4,1*%
%TO.N,Vcc*%
X184912000Y-67056000D03*
%TO.P,C4,2*%
%TO.N,GND*%
X184912000Y-70556000D03*
%TD*%
D23*
%TO.P,J1,1,Pin_2*%
%TO.N,anode*%
X119062500Y-60706000D03*
D24*
%TO.P,J1,2,Pin_1*%
%TO.N,kathode*%
X119062500Y-67056000D03*
%TD*%
D19*
%TO.P,D3,1,K*%
%TO.N,Vcc*%
X165074600Y-61620400D03*
D20*
%TO.P,D3,2,A*%
%TO.N,Net-(C8-Pad1)*%
X154914600Y-61620400D03*
%TD*%
D21*
%TO.P,SW1,1*%
%TO.N,Supply1+*%
X137541000Y-93091000D03*
%TO.P,SW1,2*%
%TO.N,Net-(C8-Pad1)*%
X141605000Y-93091000D03*
%TD*%
D25*
%TO.P,D5,1,K*%
%TO.N,GND*%
X147320000Y-94239000D03*
D26*
%TO.P,D5,2,A*%
%TO.N,Net-(D5-Pad2)*%
X147320000Y-91699000D03*
%TD*%
D18*
%TO.P,C6,1*%
%TO.N,Net-(C6-Pad1)*%
X183047000Y-78740000D03*
%TO.P,C6,2*%
%TO.N,GND*%
X188047000Y-78740000D03*
%TD*%
D24*
%TO.P,F1,1*%
%TO.N,kathode*%
X130810000Y-60365000D03*
D27*
X130810000Y-67985000D03*
D28*
%TO.P,F1,2*%
%TO.N,Supply2+*%
X130810000Y-94575000D03*
X130810000Y-86955000D03*
%TD*%
D18*
%TO.P,C8,1*%
%TO.N,Net-(C8-Pad1)*%
X152400000Y-74930000D03*
%TO.P,C8,2*%
%TO.N,GND*%
X147400000Y-74930000D03*
%TD*%
D20*
%TO.P,D4,2,A*%
%TO.N,Net-(RV1-Pad3)*%
X175006000Y-95250000D03*
D19*
%TO.P,D4,1,K*%
%TO.N,Net-(R2-Pad2)*%
X175006000Y-85090000D03*
%TD*%
D18*
%TO.P,C2,1*%
%TO.N,Net-(C2-Pad1)*%
X175210000Y-67300000D03*
%TO.P,C2,2*%
%TO.N,GND*%
X170210000Y-67300000D03*
%TD*%
%TO.P,C1,1*%
%TO.N,Vcc*%
X165090000Y-72420000D03*
%TO.P,C1,2*%
%TO.N,GND*%
X165090000Y-77420000D03*
%TD*%
D12*
%TO.P,Q3,1,G*%
%TO.N,Gate*%
X168910000Y-50800000D03*
D13*
%TO.P,Q3,2,D*%
%TO.N,anode*%
X171450000Y-50800000D03*
%TO.P,Q3,3,S*%
%TO.N,GND*%
X173990000Y-50800000D03*
%TD*%
D16*
%TO.P,U1,1,GND*%
%TO.N,GND*%
X168910000Y-78720000D03*
D17*
%TO.P,U1,2,TR*%
%TO.N,Net-(C6-Pad1)*%
X171450000Y-78720000D03*
%TO.P,U1,3,Q*%
%TO.N,PWM*%
X173990000Y-78720000D03*
%TO.P,U1,4,R*%
%TO.N,Vcc*%
X176530000Y-78720000D03*
%TO.P,U1,5,CV*%
%TO.N,Net-(C2-Pad1)*%
X176530000Y-71100000D03*
%TO.P,U1,6,THR*%
%TO.N,Net-(C6-Pad1)*%
X173990000Y-71100000D03*
%TO.P,U1,7,DIS*%
%TO.N,Net-(R2-Pad2)*%
X171450000Y-71100000D03*
%TO.P,U1,8,VCC*%
%TO.N,Vcc*%
X168910000Y-71100000D03*
%TD*%
D12*
%TO.P,Q1,1,G*%
%TO.N,Gate*%
X148590000Y-50800000D03*
D13*
%TO.P,Q1,2,D*%
%TO.N,anode*%
X151130000Y-50800000D03*
%TO.P,Q1,3,S*%
%TO.N,GND*%
X153670000Y-50800000D03*
%TD*%
D23*
%TO.P,J3,1,Pin_1*%
%TO.N,GND*%
X118935500Y-74422000D03*
D24*
%TO.P,J3,2,Pin_2*%
%TO.N,Supply2+*%
X118935500Y-80772000D03*
%TD*%
D10*
%TO.P,R2,1*%
%TO.N,Vcc*%
X161290000Y-72390000D03*
D11*
%TO.P,R2,2*%
%TO.N,Net-(R2-Pad2)*%
X161290000Y-80010000D03*
%TD*%
D29*
%TO.N,*%
X199517000Y-55118000D03*
X199390000Y-93980000D03*
X123444000Y-94742000D03*
X114046000Y-45720000D03*
D30*
%TO.N,GND*%
X114046000Y-74168000D03*
X186944000Y-63754000D03*
X166370000Y-81026000D03*
X147320000Y-96266000D03*
X139446000Y-55626000D03*
X201676000Y-68326000D03*
X166116000Y-65278000D03*
X142494000Y-71374000D03*
X143256000Y-55626000D03*
X138430000Y-75438000D03*
X114046000Y-75946000D03*
X148336000Y-96266000D03*
X140335000Y-62484000D03*
X181660800Y-88392000D03*
X140462000Y-73406000D03*
X138176000Y-62484000D03*
X114046000Y-72390000D03*
X168148000Y-95250000D03*
X143256000Y-57150000D03*
X147066000Y-57150000D03*
X144526000Y-69342000D03*
X155448000Y-69596000D03*
X142494000Y-62484000D03*
X162560000Y-69596000D03*
X179628800Y-85191600D03*
X182372000Y-74676000D03*
X115570000Y-72390000D03*
X112268000Y-74168000D03*
X115570000Y-74168000D03*
X139446000Y-74422000D03*
X115570000Y-75946000D03*
X143510000Y-70358000D03*
X141478000Y-72390000D03*
X188849000Y-64389000D03*
X201676000Y-64770000D03*
X147066000Y-55626000D03*
X191516000Y-88138000D03*
X145542000Y-68326000D03*
X112268000Y-72390000D03*
X112268000Y-75946000D03*
X188976000Y-72390000D03*
X179324000Y-79502000D03*
X156972000Y-73914000D03*
X156972000Y-77978000D03*
X139446000Y-57150000D03*
%TO.N,Supply2+*%
X114300000Y-83312000D03*
X125476000Y-86360000D03*
X123698000Y-84709000D03*
X125476000Y-88011000D03*
X125476000Y-84709000D03*
X123698000Y-86360000D03*
X114300000Y-79756000D03*
X123698000Y-88011000D03*
X115570000Y-81534000D03*
X114300000Y-81534000D03*
X115570000Y-83312000D03*
X115570000Y-79756000D03*
%TO.N,kathode*%
X112268000Y-68580000D03*
X127762000Y-64262000D03*
X133858000Y-64262000D03*
X127762000Y-61976000D03*
X112268000Y-66040000D03*
X115570000Y-68580000D03*
X133858000Y-61976000D03*
X113919000Y-68580000D03*
X133858000Y-66548000D03*
X113919000Y-66040000D03*
X115570000Y-66040000D03*
D31*
X130810000Y-49631600D03*
D30*
%TO.N,anode*%
X136567333Y-50038000D03*
X140885332Y-48006000D03*
X115570000Y-53340000D03*
X112268000Y-58674000D03*
X113919000Y-50292000D03*
X113919000Y-53340000D03*
D32*
X171450000Y-44704000D03*
D30*
X142324665Y-50038000D03*
X139445999Y-48006000D03*
X135128000Y-50038000D03*
X138006666Y-50038000D03*
X115570000Y-61722000D03*
X115570000Y-50292000D03*
X142324665Y-48006000D03*
X112268000Y-61722000D03*
X112268000Y-53340000D03*
D32*
X151130000Y-44704000D03*
D30*
X140885332Y-50038000D03*
X138006666Y-48006000D03*
X115570000Y-58674000D03*
X143764000Y-50038000D03*
X113919000Y-58674000D03*
X139445999Y-50038000D03*
X143764000Y-48006000D03*
X113919000Y-61722000D03*
D32*
X191770000Y-44704000D03*
D30*
X135128000Y-48006000D03*
X112268000Y-50292000D03*
X136567333Y-48006000D03*
%TD*%
D33*
%TO.N,anode*%
X151130000Y-50800000D02*
X151130000Y-44704000D01*
X191770000Y-50800000D02*
X191770000Y-44704000D01*
X171450000Y-50800000D02*
X171450000Y-44704000D01*
D34*
%TO.N,Vcc*%
X157480000Y-64770000D02*
X160629600Y-61620400D01*
X157480000Y-67310000D02*
X157480000Y-71120000D01*
X167590000Y-72420000D02*
X168910000Y-71100000D01*
X157480000Y-71120000D02*
X158750000Y-72390000D01*
X165090000Y-72420000D02*
X167590000Y-72420000D01*
D35*
X184912000Y-67056000D02*
X191770000Y-67056000D01*
X191897000Y-62992000D02*
X191897000Y-67183000D01*
X191897000Y-68199000D02*
X191897000Y-70612000D01*
D34*
X178689000Y-63500000D02*
X182753000Y-63500000D01*
X160629600Y-61620400D02*
X165074600Y-61620400D01*
X176530000Y-74676000D02*
X176530000Y-78720000D01*
X191810000Y-70699000D02*
X191897000Y-70612000D01*
X184912000Y-65659000D02*
X184912000Y-67056000D01*
X158750000Y-72390000D02*
X165060000Y-72390000D01*
X191810000Y-73787000D02*
X191810000Y-70699000D01*
X166954200Y-63500000D02*
X165074600Y-61620400D01*
X182753000Y-63500000D02*
X184912000Y-65659000D01*
X178689000Y-63500000D02*
X178689000Y-72517000D01*
X157480000Y-67310000D02*
X157480000Y-64770000D01*
X191770000Y-67056000D02*
X191897000Y-67183000D01*
X178689000Y-63500000D02*
X166954200Y-63500000D01*
X178689000Y-72517000D02*
X176530000Y-74676000D01*
D35*
X191897000Y-67183000D02*
X191897000Y-68199000D01*
%TO.N,GND*%
X199517000Y-74676000D02*
X199517000Y-70612000D01*
D33*
X194310000Y-50800000D02*
X194310000Y-54356000D01*
D34*
X167610000Y-77420000D02*
X168910000Y-78720000D01*
D35*
X189611000Y-76454000D02*
X197739000Y-76454000D01*
D33*
X153670000Y-50800000D02*
X153670000Y-54864000D01*
D35*
X199517000Y-66060000D02*
X199517000Y-67945000D01*
X184912000Y-71755000D02*
X189611000Y-76454000D01*
D34*
X165090000Y-77420000D02*
X167610000Y-77420000D01*
D35*
X197739000Y-76454000D02*
X199517000Y-74676000D01*
X199517000Y-66060000D02*
X199517000Y-70612000D01*
X199517000Y-62992000D02*
X199517000Y-62103000D01*
X199517000Y-62992000D02*
X199517000Y-66060000D01*
D33*
X173990000Y-50800000D02*
X173990000Y-54610000D01*
D34*
X115993000Y-92638500D02*
X113720500Y-92638500D01*
D35*
X199517000Y-62103000D02*
X195834000Y-58420000D01*
D34*
X112268000Y-91186000D02*
X112268000Y-72390000D01*
D35*
X199517000Y-67945000D02*
X199507000Y-67955000D01*
D34*
X113720500Y-92638500D02*
X112268000Y-91186000D01*
D35*
X195834000Y-58420000D02*
X188976000Y-58420000D01*
X184912000Y-70556000D02*
X184912000Y-71755000D01*
D34*
%TO.N,Net-(C2-Pad1)*%
X176530000Y-71100000D02*
X176530000Y-68620000D01*
X176530000Y-68620000D02*
X175210000Y-67300000D01*
%TO.N,Net-(C6-Pad1)*%
X171450000Y-81026000D02*
X173101000Y-82677000D01*
X183047000Y-83606000D02*
X181864000Y-82423000D01*
X171450000Y-78720000D02*
X171450000Y-76180000D01*
X181864000Y-82423000D02*
X181864000Y-79923000D01*
X171450000Y-76180000D02*
X173990000Y-73640000D01*
X186610000Y-87169000D02*
X183047000Y-83606000D01*
X186610000Y-87169000D02*
X186610000Y-92710000D01*
X171450000Y-78720000D02*
X171450000Y-81026000D01*
X173990000Y-73640000D02*
X173990000Y-71100000D01*
X181864000Y-79923000D02*
X183047000Y-78740000D01*
X173101000Y-82677000D02*
X182118000Y-82677000D01*
X182118000Y-82677000D02*
X183047000Y-83606000D01*
%TO.N,Net-(R2-Pad2)*%
X163830000Y-74930000D02*
X161290000Y-77470000D01*
X171450000Y-72390000D02*
X168910000Y-74930000D01*
X171450000Y-71100000D02*
X171450000Y-72390000D01*
X168910000Y-74930000D02*
X163830000Y-74930000D01*
X161290000Y-80010000D02*
X166370000Y-85090000D01*
X166370000Y-85090000D02*
X175260000Y-85090000D01*
X161290000Y-77470000D02*
X161290000Y-80010000D01*
%TO.N,Net-(RV1-Pad1)*%
X171450000Y-93980000D02*
X172720000Y-92710000D01*
X172720000Y-92710000D02*
X181610000Y-92710000D01*
X171450000Y-95250000D02*
X171450000Y-93980000D01*
%TO.N,Net-(RV1-Pad3)*%
X177038000Y-95250000D02*
X178308000Y-96520000D01*
X175260000Y-95250000D02*
X177038000Y-95250000D01*
X178308000Y-96520000D02*
X189992000Y-96520000D01*
X189992000Y-96520000D02*
X191610000Y-94902000D01*
%TO.N,Supply2+*%
X119007000Y-80843500D02*
X118935500Y-80772000D01*
D35*
%TO.N,Net-(IC1-Pad6)*%
X194945000Y-60706000D02*
X190119000Y-60706000D01*
X195961000Y-61722000D02*
X194945000Y-60706000D01*
X196977000Y-62992000D02*
X195961000Y-62992000D01*
X195961000Y-62992000D02*
X194437000Y-62992000D01*
X195961000Y-62992000D02*
X195961000Y-61722000D01*
X190119000Y-60706000D02*
X189230000Y-61595000D01*
D33*
%TO.N,kathode*%
X130810000Y-54610000D02*
X130810000Y-49631600D01*
X130810000Y-54610000D02*
X130810000Y-60365000D01*
D34*
%TO.N,Net-(C8-Pad1)*%
X154940000Y-64871600D02*
X154914600Y-64846200D01*
X154914600Y-64846200D02*
X154914600Y-61620400D01*
X141605000Y-93091000D02*
X141605000Y-89027000D01*
X152400000Y-74930000D02*
X152400000Y-67411600D01*
X141605000Y-89027000D02*
X152400000Y-78232000D01*
X152400000Y-78232000D02*
X152400000Y-74930000D01*
X152400000Y-67411600D02*
X154940000Y-64871600D01*
%TO.N,Net-(D5-Pad2)*%
X158750000Y-80010000D02*
X156464000Y-80010000D01*
X147320000Y-89154000D02*
X147320000Y-91699000D01*
X156464000Y-80010000D02*
X147320000Y-89154000D01*
%TD*%
%TA.AperFunction,Conductor*%
%TO.N,GND*%
G36*
X160130946Y-81270467D02*
G01*
X160177493Y-81301716D01*
X160182517Y-81306696D01*
X160189969Y-81312160D01*
X160358100Y-81435438D01*
X160386346Y-81456149D01*
X160394510Y-81460445D01*
X160394516Y-81460448D01*
X160601843Y-81569528D01*
X160601846Y-81569529D01*
X160610026Y-81573833D01*
X160618755Y-81576881D01*
X160618759Y-81576883D01*
X160743418Y-81620415D01*
X160827130Y-81669724D01*
X160837396Y-81679423D01*
X165220995Y-86063022D01*
X165230709Y-86074222D01*
X165231161Y-86073821D01*
X165237950Y-86081467D01*
X165244083Y-86089636D01*
X165251470Y-86096695D01*
X165321457Y-86163576D01*
X165325498Y-86167525D01*
X165353219Y-86195246D01*
X165357104Y-86198541D01*
X165357114Y-86198550D01*
X165359838Y-86200860D01*
X165370797Y-86210726D01*
X165422468Y-86260104D01*
X165447150Y-86276941D01*
X165448648Y-86277963D01*
X165469369Y-86293748D01*
X165493531Y-86314239D01*
X165554849Y-86350938D01*
X165567258Y-86358874D01*
X165626300Y-86399149D01*
X165655041Y-86412490D01*
X165678067Y-86424683D01*
X165695145Y-86434903D01*
X165705250Y-86440951D01*
X165771738Y-86467141D01*
X165785299Y-86472954D01*
X165850104Y-86503035D01*
X165859948Y-86505765D01*
X165859956Y-86505768D01*
X165880633Y-86511502D01*
X165905337Y-86519767D01*
X165934822Y-86531381D01*
X165944811Y-86533522D01*
X165944819Y-86533525D01*
X166004690Y-86546361D01*
X166019033Y-86549884D01*
X166032756Y-86553690D01*
X166087871Y-86568974D01*
X166098026Y-86570059D01*
X166098030Y-86570060D01*
X166119367Y-86572340D01*
X166145104Y-86576462D01*
X166176080Y-86583103D01*
X166213853Y-86584884D01*
X166247441Y-86586468D01*
X166262175Y-86587602D01*
X166282705Y-86589796D01*
X166289292Y-86590500D01*
X166327058Y-86590500D01*
X166338787Y-86590776D01*
X166412344Y-86594245D01*
X166412346Y-86594245D01*
X166422547Y-86594726D01*
X166432692Y-86593534D01*
X166432698Y-86593534D01*
X166444042Y-86592201D01*
X166473093Y-86590500D01*
X169879530Y-86590500D01*
X169974818Y-86609454D01*
X170039252Y-86648476D01*
X170212472Y-86793311D01*
X170455088Y-86945503D01*
X170462818Y-86948993D01*
X170462825Y-86948997D01*
X170708386Y-87059872D01*
X170708390Y-87059874D01*
X170716114Y-87063361D01*
X170990719Y-87144703D01*
X170999094Y-87145985D01*
X170999096Y-87145985D01*
X171015140Y-87148440D01*
X171273824Y-87188024D01*
X171395092Y-87189929D01*
X171551702Y-87192390D01*
X171551707Y-87192390D01*
X171560189Y-87192523D01*
X171607968Y-87186741D01*
X171836089Y-87159135D01*
X171836095Y-87159134D01*
X171844514Y-87158115D01*
X172121539Y-87085439D01*
X172283692Y-87018273D01*
X172378295Y-86979088D01*
X172378299Y-86979086D01*
X172386138Y-86975839D01*
X172438052Y-86945503D01*
X172626093Y-86835621D01*
X172626097Y-86835618D01*
X172633415Y-86831342D01*
X172640081Y-86826115D01*
X172640093Y-86826107D01*
X172748957Y-86740746D01*
X172835637Y-86696865D01*
X172932512Y-86689495D01*
X173024833Y-86719759D01*
X173095560Y-86779317D01*
X173186913Y-86891327D01*
X173194891Y-86901109D01*
X173204673Y-86909087D01*
X173342630Y-87021602D01*
X173342633Y-87021604D01*
X173352404Y-87029573D01*
X173532530Y-87123741D01*
X173727913Y-87179766D01*
X173739719Y-87180820D01*
X173739721Y-87180820D01*
X173842668Y-87190008D01*
X173842675Y-87190008D01*
X173848184Y-87190500D01*
X176163816Y-87190500D01*
X176169325Y-87190008D01*
X176169332Y-87190008D01*
X176272279Y-87180820D01*
X176272281Y-87180820D01*
X176284087Y-87179766D01*
X176479470Y-87123741D01*
X176659596Y-87029573D01*
X176669367Y-87021604D01*
X176669370Y-87021602D01*
X176807327Y-86909087D01*
X176817109Y-86901109D01*
X176825087Y-86891327D01*
X176937602Y-86753370D01*
X176937604Y-86753367D01*
X176945573Y-86743596D01*
X176960781Y-86714507D01*
X177027718Y-86586468D01*
X177039741Y-86563470D01*
X177095766Y-86368087D01*
X177099023Y-86331598D01*
X177106008Y-86253332D01*
X177106008Y-86253325D01*
X177106500Y-86247816D01*
X177106500Y-84426500D01*
X177125454Y-84331212D01*
X177179430Y-84250430D01*
X177260212Y-84196454D01*
X177355500Y-84177500D01*
X181393332Y-84177500D01*
X181488620Y-84196454D01*
X181569402Y-84250430D01*
X181928917Y-84609945D01*
X183517523Y-86198550D01*
X185036570Y-87717597D01*
X185090546Y-87798379D01*
X185109500Y-87893667D01*
X185109500Y-89877049D01*
X185090546Y-89972337D01*
X185036570Y-90053119D01*
X185022212Y-90066390D01*
X184907864Y-90164052D01*
X184907857Y-90164059D01*
X184900415Y-90170415D01*
X184738337Y-90360185D01*
X184607941Y-90572972D01*
X184512437Y-90803538D01*
X184510155Y-90813045D01*
X184510154Y-90813048D01*
X184456464Y-91036685D01*
X184454178Y-91046206D01*
X184439500Y-91232703D01*
X184439501Y-94187296D01*
X184454178Y-94373794D01*
X184512437Y-94616462D01*
X184516178Y-94625494D01*
X184516182Y-94625505D01*
X184536771Y-94675211D01*
X184555726Y-94770499D01*
X184536773Y-94865787D01*
X184482797Y-94946569D01*
X184402015Y-95000545D01*
X184306726Y-95019500D01*
X183913274Y-95019500D01*
X183817986Y-95000546D01*
X183737204Y-94946570D01*
X183683228Y-94865788D01*
X183664274Y-94770500D01*
X183683229Y-94675211D01*
X183703818Y-94625505D01*
X183703822Y-94625494D01*
X183707563Y-94616462D01*
X183759612Y-94399662D01*
X183763539Y-94383305D01*
X183763540Y-94383300D01*
X183765822Y-94373794D01*
X183780500Y-94187297D01*
X183780499Y-91232704D01*
X183765822Y-91046206D01*
X183707563Y-90803538D01*
X183612059Y-90572972D01*
X183481663Y-90360185D01*
X183319585Y-90170415D01*
X183129815Y-90008337D01*
X182917028Y-89877941D01*
X182686462Y-89782437D01*
X182618375Y-89766091D01*
X182453305Y-89726461D01*
X182453300Y-89726460D01*
X182443794Y-89724178D01*
X182257297Y-89709500D01*
X181610067Y-89709500D01*
X180962704Y-89709501D01*
X180776206Y-89724178D01*
X180533538Y-89782437D01*
X180302972Y-89877941D01*
X180090185Y-90008337D01*
X179900415Y-90170415D01*
X179738337Y-90360185D01*
X179607941Y-90572972D01*
X179512437Y-90803538D01*
X179469251Y-90983424D01*
X179460799Y-91018628D01*
X179420124Y-91106858D01*
X179348781Y-91172807D01*
X179257632Y-91206434D01*
X179218679Y-91209500D01*
X172844443Y-91209500D01*
X172829649Y-91208448D01*
X172829613Y-91209053D01*
X172819412Y-91208447D01*
X172809294Y-91207007D01*
X172705198Y-91209369D01*
X172702260Y-91209436D01*
X172696611Y-91209500D01*
X172657446Y-91209500D01*
X172648797Y-91210211D01*
X172634068Y-91210983D01*
X172592317Y-91211931D01*
X172572830Y-91212373D01*
X172572827Y-91212373D01*
X172562618Y-91212605D01*
X172552580Y-91214502D01*
X172552577Y-91214502D01*
X172531485Y-91218487D01*
X172505662Y-91221978D01*
X172484285Y-91223736D01*
X172484277Y-91223737D01*
X172474089Y-91224575D01*
X172404790Y-91241981D01*
X172390375Y-91245151D01*
X172320167Y-91258417D01*
X172310571Y-91261929D01*
X172310570Y-91261929D01*
X172290426Y-91269301D01*
X172265517Y-91276964D01*
X172247825Y-91281408D01*
X172234783Y-91284684D01*
X172225409Y-91288760D01*
X172169266Y-91313172D01*
X172155547Y-91318660D01*
X172098048Y-91339701D01*
X172098043Y-91339703D01*
X172088455Y-91343212D01*
X172060888Y-91358809D01*
X172037567Y-91370436D01*
X172017884Y-91378994D01*
X172017877Y-91378998D01*
X172008507Y-91383072D01*
X171948524Y-91421877D01*
X171935885Y-91429531D01*
X171882597Y-91459680D01*
X171873703Y-91464712D01*
X171865754Y-91471126D01*
X171865748Y-91471130D01*
X171849040Y-91484611D01*
X171827936Y-91499888D01*
X171801339Y-91517095D01*
X171793783Y-91523971D01*
X171793781Y-91523972D01*
X171748509Y-91565167D01*
X171737303Y-91574772D01*
X171716055Y-91591917D01*
X171689327Y-91618645D01*
X171680837Y-91626743D01*
X171626397Y-91676279D01*
X171626394Y-91676282D01*
X171618842Y-91683154D01*
X171612511Y-91691171D01*
X171605432Y-91700134D01*
X171586093Y-91721879D01*
X170476978Y-92830995D01*
X170465778Y-92840709D01*
X170466179Y-92841161D01*
X170458533Y-92847950D01*
X170450364Y-92854083D01*
X170443305Y-92861470D01*
X170376424Y-92931457D01*
X170372475Y-92935498D01*
X170344754Y-92963219D01*
X170341459Y-92967104D01*
X170341450Y-92967114D01*
X170339140Y-92969838D01*
X170329274Y-92980797D01*
X170279896Y-93032468D01*
X170262037Y-93058648D01*
X170246247Y-93079374D01*
X170238980Y-93087944D01*
X170228301Y-93100536D01*
X170152214Y-93160949D01*
X170107032Y-93178838D01*
X170055557Y-93193598D01*
X169976530Y-93216259D01*
X169796404Y-93310427D01*
X169786633Y-93318396D01*
X169786630Y-93318398D01*
X169690642Y-93396684D01*
X169638891Y-93438891D01*
X169630913Y-93448673D01*
X169528325Y-93574459D01*
X169510427Y-93596404D01*
X169504584Y-93607580D01*
X169504583Y-93607582D01*
X169454488Y-93703405D01*
X169416259Y-93776530D01*
X169360234Y-93971913D01*
X169349500Y-94092184D01*
X169349500Y-96407816D01*
X169349991Y-96413322D01*
X169349992Y-96413335D01*
X169359366Y-96518366D01*
X169348958Y-96614962D01*
X169302376Y-96700221D01*
X169226712Y-96761165D01*
X169133486Y-96788514D01*
X169111352Y-96789500D01*
X146841575Y-96789500D01*
X146746287Y-96770546D01*
X146665505Y-96716570D01*
X146623035Y-96659835D01*
X146610266Y-96636452D01*
X146595515Y-96604150D01*
X146508237Y-96370151D01*
X146498231Y-96336070D01*
X146445143Y-96092032D01*
X146440086Y-96056865D01*
X146434082Y-95972906D01*
X146421634Y-95798864D01*
X146421000Y-95781102D01*
X146421000Y-93750529D01*
X146439954Y-93655241D01*
X146493930Y-93574459D01*
X146574712Y-93520483D01*
X146670000Y-93501529D01*
X146733816Y-93509846D01*
X146962972Y-93570606D01*
X147230245Y-93602240D01*
X147499310Y-93595899D01*
X147507990Y-93594454D01*
X147507993Y-93594454D01*
X147756108Y-93553156D01*
X147756107Y-93553156D01*
X147764796Y-93551710D01*
X147773192Y-93549055D01*
X147773195Y-93549054D01*
X148013019Y-93473207D01*
X148021408Y-93470554D01*
X148264025Y-93354051D01*
X148487806Y-93204526D01*
X148539353Y-93158357D01*
X148681731Y-93030833D01*
X148681737Y-93030827D01*
X148688286Y-93024961D01*
X148729889Y-92975469D01*
X148855797Y-92825683D01*
X148855798Y-92825682D01*
X148861465Y-92818940D01*
X148866120Y-92811476D01*
X148866125Y-92811469D01*
X148999235Y-92598032D01*
X148999237Y-92598027D01*
X149003887Y-92590572D01*
X149112712Y-92344416D01*
X149136793Y-92259033D01*
X149183376Y-92093860D01*
X149183376Y-92093859D01*
X149185767Y-92085382D01*
X149221595Y-91818638D01*
X149221992Y-91806024D01*
X149225155Y-91705357D01*
X149225355Y-91699000D01*
X149223747Y-91676279D01*
X149212083Y-91511546D01*
X149206347Y-91430533D01*
X149204493Y-91421920D01*
X149151553Y-91176028D01*
X149151552Y-91176023D01*
X149149700Y-91167423D01*
X149128595Y-91110213D01*
X149091884Y-91010706D01*
X149056547Y-90914919D01*
X148928744Y-90678060D01*
X148869210Y-90597457D01*
X148827844Y-90509548D01*
X148820500Y-90449521D01*
X148820500Y-89878668D01*
X148839454Y-89783380D01*
X148893430Y-89702598D01*
X157012597Y-81583430D01*
X157093379Y-81529454D01*
X157188667Y-81510500D01*
X157888144Y-81510500D01*
X157983432Y-81529454D01*
X158004080Y-81539137D01*
X158070026Y-81573833D01*
X158308644Y-81657162D01*
X158556958Y-81704306D01*
X158566180Y-81704668D01*
X158566186Y-81704669D01*
X158683236Y-81709268D01*
X158809513Y-81714229D01*
X158818688Y-81713224D01*
X158818693Y-81713224D01*
X159051577Y-81687719D01*
X159051581Y-81687718D01*
X159060760Y-81686713D01*
X159305181Y-81622363D01*
X159537405Y-81522591D01*
X159545257Y-81517732D01*
X159545261Y-81517730D01*
X159744472Y-81394454D01*
X159752331Y-81389591D01*
X159759379Y-81383625D01*
X159759392Y-81383615D01*
X159856051Y-81301787D01*
X159941025Y-81254685D01*
X160037555Y-81243687D01*
X160130946Y-81270467D01*
G37*
%TD.AperFunction*%
%TA.AperFunction,Conductor*%
G36*
X201208864Y-59700634D02*
G01*
X201466871Y-59719087D01*
X201502032Y-59724143D01*
X201746070Y-59777231D01*
X201780151Y-59787237D01*
X202014150Y-59874515D01*
X202046452Y-59889266D01*
X202069834Y-59902034D01*
X202144381Y-59964334D01*
X202189413Y-60050422D01*
X202199500Y-60120575D01*
X202199500Y-91976630D01*
X202180546Y-92071918D01*
X202126570Y-92152700D01*
X202045788Y-92206676D01*
X201950500Y-92225630D01*
X201855212Y-92206676D01*
X201774430Y-92152700D01*
X201749824Y-92124041D01*
X201710096Y-92069957D01*
X201710091Y-92069951D01*
X201705843Y-92064168D01*
X201470295Y-91810688D01*
X201464842Y-91806031D01*
X201464835Y-91806024D01*
X201212633Y-91590624D01*
X201212629Y-91590621D01*
X201207174Y-91585962D01*
X201201221Y-91581961D01*
X201201216Y-91581958D01*
X200925919Y-91396966D01*
X200925912Y-91396962D01*
X200919967Y-91392967D01*
X200913602Y-91389682D01*
X200913594Y-91389677D01*
X200618862Y-91237554D01*
X200612482Y-91234261D01*
X200413753Y-91159168D01*
X200295497Y-91114483D01*
X200295494Y-91114482D01*
X200288793Y-91111950D01*
X199953190Y-91027652D01*
X199610124Y-90982487D01*
X199602947Y-90982374D01*
X199602944Y-90982374D01*
X199443706Y-90979872D01*
X199264139Y-90977051D01*
X198919823Y-91011419D01*
X198581739Y-91085133D01*
X198254367Y-91197217D01*
X197942048Y-91346186D01*
X197935973Y-91349997D01*
X197655005Y-91526247D01*
X197654999Y-91526251D01*
X197648921Y-91530064D01*
X197643321Y-91534550D01*
X197643316Y-91534554D01*
X197409497Y-91721879D01*
X197378871Y-91746415D01*
X197135477Y-91992371D01*
X197131057Y-91998008D01*
X196926387Y-92259033D01*
X196926383Y-92259039D01*
X196921966Y-92264672D01*
X196918228Y-92270771D01*
X196918223Y-92270779D01*
X196831567Y-92412191D01*
X196741168Y-92559709D01*
X196595478Y-92873570D01*
X196486828Y-93202097D01*
X196485371Y-93209133D01*
X196424819Y-93501529D01*
X196416658Y-93540935D01*
X196385898Y-93885592D01*
X196394956Y-94231501D01*
X196443712Y-94574076D01*
X196445530Y-94581005D01*
X196445531Y-94581011D01*
X196512934Y-94837934D01*
X196531519Y-94908777D01*
X196657214Y-95231167D01*
X196660569Y-95237503D01*
X196660571Y-95237508D01*
X196670331Y-95255941D01*
X196819130Y-95536974D01*
X197015122Y-95822144D01*
X197242592Y-96082898D01*
X197247900Y-96087727D01*
X197247902Y-96087730D01*
X197493215Y-96310948D01*
X197493223Y-96310955D01*
X197498524Y-96315778D01*
X197504345Y-96319960D01*
X197504360Y-96319973D01*
X197529854Y-96338292D01*
X197596176Y-96409289D01*
X197630279Y-96500261D01*
X197626973Y-96597360D01*
X197586760Y-96685802D01*
X197515763Y-96752124D01*
X197424791Y-96786227D01*
X197384552Y-96789500D01*
X192445667Y-96789500D01*
X192350379Y-96770546D01*
X192269597Y-96716570D01*
X192215621Y-96635788D01*
X192196667Y-96540500D01*
X192215621Y-96445212D01*
X192269597Y-96364431D01*
X192711633Y-95922394D01*
X192715246Y-95918781D01*
X192728032Y-95903704D01*
X192827629Y-95786264D01*
X192827632Y-95786260D01*
X192834240Y-95778468D01*
X192960951Y-95566750D01*
X192964367Y-95558079D01*
X193023213Y-95481250D01*
X193057442Y-95456013D01*
X193129815Y-95411663D01*
X193319585Y-95249585D01*
X193481663Y-95059815D01*
X193612059Y-94847028D01*
X193683228Y-94675211D01*
X193703822Y-94625494D01*
X193703823Y-94625492D01*
X193707563Y-94616462D01*
X193759612Y-94399662D01*
X193763539Y-94383305D01*
X193763540Y-94383300D01*
X193765822Y-94373794D01*
X193780500Y-94187297D01*
X193780499Y-91232704D01*
X193765822Y-91046206D01*
X193707563Y-90803538D01*
X193612059Y-90572972D01*
X193481663Y-90360185D01*
X193319585Y-90170415D01*
X193129815Y-90008337D01*
X192917028Y-89877941D01*
X192686462Y-89782437D01*
X192618375Y-89766091D01*
X192453305Y-89726461D01*
X192453300Y-89726460D01*
X192443794Y-89724178D01*
X192257297Y-89709500D01*
X191610067Y-89709500D01*
X190962704Y-89709501D01*
X190776206Y-89724178D01*
X190533538Y-89782437D01*
X190302972Y-89877941D01*
X190090185Y-90008337D01*
X189900415Y-90170415D01*
X189738337Y-90360185D01*
X189607941Y-90572972D01*
X189512437Y-90803538D01*
X189510155Y-90813045D01*
X189510154Y-90813048D01*
X189456464Y-91036685D01*
X189454178Y-91046206D01*
X189439500Y-91232703D01*
X189439501Y-94187296D01*
X189454178Y-94373794D01*
X189512437Y-94616462D01*
X189516183Y-94625504D01*
X189516184Y-94625509D01*
X189525234Y-94647358D01*
X189544188Y-94742646D01*
X189525234Y-94837934D01*
X189471258Y-94918715D01*
X189443403Y-94946570D01*
X189362621Y-95000546D01*
X189267333Y-95019500D01*
X188913274Y-95019500D01*
X188817986Y-95000546D01*
X188737204Y-94946570D01*
X188683228Y-94865788D01*
X188664274Y-94770500D01*
X188683229Y-94675211D01*
X188703818Y-94625505D01*
X188703822Y-94625494D01*
X188707563Y-94616462D01*
X188759612Y-94399662D01*
X188763539Y-94383305D01*
X188763540Y-94383300D01*
X188765822Y-94373794D01*
X188780500Y-94187297D01*
X188780499Y-91232704D01*
X188765822Y-91046206D01*
X188707563Y-90803538D01*
X188612059Y-90572972D01*
X188481663Y-90360185D01*
X188319585Y-90170415D01*
X188312143Y-90164059D01*
X188312136Y-90164052D01*
X188197788Y-90066390D01*
X188137640Y-89990093D01*
X188111268Y-89896586D01*
X188110500Y-89877049D01*
X188110500Y-87293441D01*
X188111552Y-87278647D01*
X188110947Y-87278611D01*
X188111553Y-87268413D01*
X188112993Y-87258294D01*
X188110564Y-87151260D01*
X188110500Y-87145611D01*
X188110500Y-87106446D01*
X188109789Y-87097797D01*
X188109016Y-87083053D01*
X188107627Y-87021832D01*
X188107627Y-87021830D01*
X188107395Y-87011618D01*
X188101512Y-86980482D01*
X188098021Y-86954662D01*
X188096262Y-86933271D01*
X188095425Y-86923089D01*
X188087447Y-86891327D01*
X188078023Y-86853807D01*
X188074850Y-86839378D01*
X188066996Y-86797811D01*
X188061584Y-86769167D01*
X188055803Y-86753370D01*
X188050697Y-86739416D01*
X188043034Y-86714507D01*
X188037808Y-86693703D01*
X188037807Y-86693699D01*
X188035316Y-86683783D01*
X188006821Y-86618248D01*
X188001343Y-86604551D01*
X187980301Y-86547052D01*
X187976789Y-86537455D01*
X187971235Y-86527638D01*
X187961184Y-86509873D01*
X187949560Y-86486559D01*
X187936928Y-86457507D01*
X187898119Y-86397517D01*
X187890467Y-86384881D01*
X187880965Y-86368087D01*
X187855288Y-86322703D01*
X187835389Y-86298042D01*
X187820115Y-86276941D01*
X187808451Y-86258912D01*
X187802905Y-86250339D01*
X187796040Y-86242795D01*
X187796032Y-86242784D01*
X187754814Y-86197486D01*
X187745203Y-86186272D01*
X187732253Y-86170224D01*
X187728083Y-86165056D01*
X187701364Y-86138337D01*
X187693266Y-86129847D01*
X187643724Y-86075401D01*
X187636846Y-86067842D01*
X187628828Y-86061510D01*
X187628824Y-86061506D01*
X187619858Y-86054425D01*
X187598112Y-86035085D01*
X184165087Y-82602060D01*
X184165083Y-82602055D01*
X183437431Y-81874404D01*
X183383454Y-81793622D01*
X183364500Y-81698334D01*
X183364500Y-80710280D01*
X183383454Y-80614992D01*
X183437430Y-80534210D01*
X183518212Y-80480234D01*
X183550089Y-80469490D01*
X183634829Y-80447180D01*
X183810999Y-80371492D01*
X183872224Y-80345188D01*
X183872226Y-80345187D01*
X183880710Y-80341542D01*
X184108275Y-80200720D01*
X184312526Y-80027809D01*
X184488976Y-79826607D01*
X184501057Y-79807825D01*
X184628747Y-79609308D01*
X184628749Y-79609304D01*
X184633747Y-79601534D01*
X184637543Y-79593108D01*
X184739865Y-79365962D01*
X184739867Y-79365956D01*
X184743661Y-79357534D01*
X184750960Y-79331656D01*
X184813793Y-79108865D01*
X184816302Y-79099969D01*
X184835494Y-78949111D01*
X184849287Y-78840693D01*
X184849288Y-78840683D01*
X184850075Y-78834495D01*
X184852549Y-78740000D01*
X184851771Y-78729533D01*
X184849232Y-78695361D01*
X190065316Y-78695361D01*
X190068955Y-78771124D01*
X190076834Y-78935134D01*
X190077443Y-78947820D01*
X190126752Y-79195713D01*
X190129873Y-79204405D01*
X190129873Y-79204406D01*
X190204750Y-79412956D01*
X190212160Y-79433595D01*
X190216532Y-79441732D01*
X190216534Y-79441736D01*
X190297870Y-79593108D01*
X190331792Y-79656240D01*
X190483018Y-79858756D01*
X190662517Y-80036696D01*
X190669969Y-80042160D01*
X190767429Y-80113620D01*
X190866346Y-80186149D01*
X190874510Y-80190445D01*
X190874516Y-80190448D01*
X190979598Y-80245734D01*
X191090026Y-80303833D01*
X191328644Y-80387162D01*
X191576958Y-80434306D01*
X191586180Y-80434668D01*
X191586186Y-80434669D01*
X191703235Y-80439267D01*
X191829513Y-80444229D01*
X191838688Y-80443224D01*
X191838693Y-80443224D01*
X192071577Y-80417719D01*
X192071581Y-80417718D01*
X192080760Y-80416713D01*
X192325181Y-80352363D01*
X192341882Y-80345188D01*
X192438137Y-80303833D01*
X192557405Y-80252591D01*
X192565257Y-80247732D01*
X192565261Y-80247730D01*
X192738961Y-80140241D01*
X192772331Y-80119591D01*
X192965238Y-79956283D01*
X193050768Y-79858756D01*
X193125802Y-79773196D01*
X193125803Y-79773194D01*
X193131888Y-79766256D01*
X193268619Y-79553684D01*
X193283404Y-79520864D01*
X193368635Y-79331656D01*
X193372428Y-79323236D01*
X193405941Y-79204406D01*
X193438524Y-79088877D01*
X193438525Y-79088873D01*
X193441034Y-79079976D01*
X193472931Y-78829247D01*
X193474753Y-78759680D01*
X193475105Y-78746240D01*
X193475105Y-78746232D01*
X193475268Y-78740000D01*
X193456537Y-78487945D01*
X193400756Y-78241428D01*
X193342463Y-78091528D01*
X193312502Y-78014482D01*
X193312501Y-78014479D01*
X193309150Y-78005863D01*
X193183731Y-77786426D01*
X193178019Y-77779180D01*
X193178014Y-77779173D01*
X193032971Y-77595188D01*
X193032967Y-77595184D01*
X193027255Y-77587938D01*
X192843160Y-77414758D01*
X192835581Y-77409500D01*
X192835577Y-77409497D01*
X192643083Y-77275959D01*
X192643081Y-77275958D01*
X192635489Y-77270691D01*
X192627200Y-77266603D01*
X192627196Y-77266601D01*
X192417091Y-77162989D01*
X192417089Y-77162988D01*
X192408805Y-77158903D01*
X192325178Y-77132134D01*
X192176886Y-77084665D01*
X192176879Y-77084663D01*
X192168087Y-77081849D01*
X192046136Y-77061988D01*
X191927739Y-77042705D01*
X191927733Y-77042704D01*
X191918624Y-77041221D01*
X191909394Y-77041100D01*
X191909392Y-77041100D01*
X191735701Y-77038827D01*
X191665896Y-77037913D01*
X191656741Y-77039159D01*
X191656740Y-77039159D01*
X191424607Y-77070750D01*
X191424601Y-77070751D01*
X191415455Y-77071996D01*
X191172803Y-77142723D01*
X191164424Y-77146586D01*
X191164418Y-77146588D01*
X190978395Y-77232346D01*
X190943270Y-77248539D01*
X190860972Y-77302496D01*
X190808612Y-77336825D01*
X190731899Y-77387120D01*
X190725010Y-77393269D01*
X190725007Y-77393271D01*
X190674011Y-77438787D01*
X190543333Y-77555421D01*
X190381715Y-77749746D01*
X190359457Y-77786426D01*
X190255384Y-77957932D01*
X190255381Y-77957938D01*
X190250595Y-77965825D01*
X190247026Y-77974336D01*
X190247024Y-77974340D01*
X190230191Y-78014482D01*
X190152854Y-78198911D01*
X190090639Y-78443883D01*
X190083528Y-78514502D01*
X190066964Y-78678999D01*
X190065316Y-78695361D01*
X184849232Y-78695361D01*
X184833402Y-78482340D01*
X184833402Y-78482339D01*
X184832717Y-78473123D01*
X184773655Y-78212109D01*
X184676662Y-77962691D01*
X184543868Y-77730350D01*
X184426611Y-77581610D01*
X184383906Y-77527439D01*
X184383902Y-77527435D01*
X184378190Y-77520189D01*
X184183269Y-77336825D01*
X184175681Y-77331561D01*
X184175676Y-77331557D01*
X184051052Y-77245103D01*
X183963385Y-77184286D01*
X183755664Y-77081849D01*
X183731657Y-77070010D01*
X183731655Y-77070009D01*
X183723371Y-77065924D01*
X183468497Y-76984338D01*
X183459383Y-76982854D01*
X183459380Y-76982853D01*
X183213482Y-76942807D01*
X183213483Y-76942807D01*
X183204364Y-76941322D01*
X183195133Y-76941201D01*
X183195131Y-76941201D01*
X183017538Y-76938876D01*
X182936774Y-76937819D01*
X182671605Y-76973907D01*
X182414683Y-77048792D01*
X182406298Y-77052657D01*
X182406294Y-77052659D01*
X182216536Y-77140139D01*
X182171652Y-77160831D01*
X181947851Y-77307562D01*
X181748197Y-77485760D01*
X181577075Y-77691512D01*
X181548639Y-77738373D01*
X181443033Y-77912405D01*
X181443030Y-77912411D01*
X181438244Y-77920298D01*
X181434675Y-77928809D01*
X181434673Y-77928813D01*
X181343142Y-78147091D01*
X181334755Y-78167091D01*
X181325509Y-78203498D01*
X181296076Y-78319388D01*
X181254250Y-78407078D01*
X181230808Y-78434165D01*
X180890978Y-78773995D01*
X180879778Y-78783709D01*
X180880179Y-78784161D01*
X180872533Y-78790950D01*
X180864364Y-78797083D01*
X180799284Y-78865186D01*
X180790424Y-78874457D01*
X180786475Y-78878498D01*
X180758754Y-78906219D01*
X180755459Y-78910104D01*
X180755450Y-78910114D01*
X180753140Y-78912838D01*
X180743274Y-78923797D01*
X180693896Y-78975468D01*
X180683181Y-78991176D01*
X180676037Y-79001648D01*
X180660252Y-79022369D01*
X180639761Y-79046531D01*
X180603062Y-79107849D01*
X180595126Y-79120258D01*
X180554851Y-79179300D01*
X180541513Y-79208035D01*
X180529317Y-79231067D01*
X180519097Y-79248145D01*
X180513049Y-79258250D01*
X180486859Y-79324738D01*
X180481046Y-79338299D01*
X180450965Y-79403104D01*
X180448235Y-79412948D01*
X180448232Y-79412956D01*
X180442498Y-79433633D01*
X180434233Y-79458337D01*
X180422619Y-79487822D01*
X180420478Y-79497811D01*
X180420475Y-79497819D01*
X180407639Y-79557690D01*
X180404116Y-79572033D01*
X180385026Y-79640871D01*
X180383941Y-79651026D01*
X180383940Y-79651030D01*
X180381660Y-79672367D01*
X180377538Y-79698103D01*
X180370897Y-79729080D01*
X180370416Y-79739284D01*
X180367532Y-79800441D01*
X180366398Y-79815175D01*
X180363500Y-79842292D01*
X180363500Y-79880058D01*
X180363224Y-79891786D01*
X180359274Y-79975547D01*
X180360466Y-79985692D01*
X180360466Y-79985698D01*
X180361799Y-79997042D01*
X180363500Y-80026093D01*
X180363500Y-80927500D01*
X180344546Y-81022788D01*
X180290570Y-81103570D01*
X180209788Y-81157546D01*
X180114500Y-81176500D01*
X173825667Y-81176500D01*
X173730379Y-81157546D01*
X173649597Y-81103570D01*
X173461354Y-80915327D01*
X173407378Y-80834545D01*
X173388424Y-80739257D01*
X173407378Y-80643969D01*
X173461354Y-80563187D01*
X173542136Y-80509211D01*
X173637424Y-80490257D01*
X173683865Y-80494627D01*
X173785606Y-80513943D01*
X173794826Y-80514305D01*
X173794833Y-80514306D01*
X173924556Y-80519402D01*
X174053013Y-80524449D01*
X174062188Y-80523444D01*
X174062193Y-80523444D01*
X174309850Y-80496321D01*
X174309851Y-80496321D01*
X174319035Y-80495315D01*
X174327971Y-80492962D01*
X174327973Y-80492962D01*
X174568886Y-80429535D01*
X174568892Y-80429533D01*
X174577829Y-80427180D01*
X174768672Y-80345188D01*
X174815224Y-80325188D01*
X174815226Y-80325187D01*
X174823710Y-80321542D01*
X175051275Y-80180720D01*
X175058326Y-80174751D01*
X175058330Y-80174748D01*
X175099092Y-80140241D01*
X175184065Y-80093139D01*
X175280596Y-80082141D01*
X175373987Y-80108921D01*
X175407212Y-80129481D01*
X175490361Y-80190448D01*
X175573205Y-80251192D01*
X175581370Y-80255488D01*
X175581375Y-80255491D01*
X175801856Y-80371492D01*
X175801859Y-80371493D01*
X175810039Y-80375797D01*
X175818768Y-80378845D01*
X175818772Y-80378847D01*
X175892155Y-80404473D01*
X176062690Y-80464026D01*
X176200850Y-80490257D01*
X176316534Y-80512221D01*
X176316539Y-80512222D01*
X176325606Y-80513943D01*
X176334826Y-80514305D01*
X176334833Y-80514306D01*
X176464556Y-80519402D01*
X176593013Y-80524449D01*
X176602188Y-80523444D01*
X176602193Y-80523444D01*
X176849850Y-80496321D01*
X176849851Y-80496321D01*
X176859035Y-80495315D01*
X176867971Y-80492962D01*
X176867973Y-80492962D01*
X177108886Y-80429535D01*
X177108892Y-80429533D01*
X177117829Y-80427180D01*
X177308672Y-80345188D01*
X177355224Y-80325188D01*
X177355226Y-80325187D01*
X177363710Y-80321542D01*
X177591275Y-80180720D01*
X177795526Y-80007809D01*
X177971976Y-79806607D01*
X177995967Y-79769309D01*
X178111747Y-79589308D01*
X178111749Y-79589304D01*
X178116747Y-79581534D01*
X178144077Y-79520864D01*
X178222865Y-79345962D01*
X178222867Y-79345956D01*
X178226661Y-79337534D01*
X178230694Y-79323236D01*
X178296793Y-79088865D01*
X178299302Y-79079969D01*
X178314961Y-78956883D01*
X178332287Y-78820693D01*
X178332288Y-78820683D01*
X178333075Y-78814495D01*
X178334862Y-78746240D01*
X178335386Y-78726240D01*
X178335386Y-78726233D01*
X178335549Y-78720000D01*
X178332037Y-78672736D01*
X178316402Y-78462340D01*
X178316402Y-78462339D01*
X178315717Y-78453123D01*
X178256655Y-78192109D01*
X178170791Y-77971310D01*
X178163014Y-77951310D01*
X178163013Y-77951307D01*
X178159662Y-77942691D01*
X178074935Y-77794449D01*
X178063319Y-77774126D01*
X178032491Y-77681992D01*
X178030500Y-77650568D01*
X178030500Y-75400668D01*
X178049454Y-75305380D01*
X178103430Y-75224598D01*
X179662022Y-73666005D01*
X179673222Y-73656291D01*
X179672821Y-73655839D01*
X179680467Y-73649050D01*
X179688636Y-73642917D01*
X179762576Y-73565543D01*
X179766525Y-73561502D01*
X179794246Y-73533781D01*
X179797541Y-73529896D01*
X179797550Y-73529886D01*
X179799860Y-73527162D01*
X179809726Y-73516203D01*
X179859104Y-73464532D01*
X179876963Y-73438351D01*
X179892748Y-73417631D01*
X179913239Y-73393469D01*
X179949938Y-73332151D01*
X179957874Y-73319742D01*
X179998149Y-73260700D01*
X180011490Y-73231959D01*
X180023683Y-73208933D01*
X180034701Y-73190522D01*
X180039951Y-73181750D01*
X180066141Y-73115262D01*
X180071954Y-73101700D01*
X180097730Y-73046170D01*
X180102035Y-73036896D01*
X180104765Y-73027052D01*
X180104768Y-73027044D01*
X180110502Y-73006367D01*
X180118767Y-72981663D01*
X180130381Y-72952178D01*
X180132522Y-72942189D01*
X180132525Y-72942181D01*
X180145361Y-72882310D01*
X180148884Y-72867967D01*
X180155523Y-72844026D01*
X180167974Y-72799129D01*
X180169068Y-72788898D01*
X180171340Y-72767633D01*
X180175462Y-72741897D01*
X180179961Y-72720911D01*
X180182103Y-72710920D01*
X180182584Y-72700716D01*
X180182586Y-72700703D01*
X180185471Y-72639536D01*
X180186602Y-72624833D01*
X180189500Y-72597708D01*
X180189500Y-72559943D01*
X180189776Y-72548213D01*
X180193245Y-72474657D01*
X180193245Y-72474655D01*
X180193726Y-72464454D01*
X180192534Y-72454309D01*
X180192534Y-72454303D01*
X180191201Y-72442959D01*
X180189500Y-72413908D01*
X180189500Y-65249500D01*
X180208454Y-65154212D01*
X180262430Y-65073430D01*
X180343212Y-65019454D01*
X180438500Y-65000500D01*
X182028332Y-65000500D01*
X182123620Y-65019454D01*
X182204402Y-65073430D01*
X183203958Y-66072985D01*
X183257934Y-66153767D01*
X183276888Y-66249055D01*
X183257516Y-66345346D01*
X183223854Y-66425621D01*
X183199755Y-66483091D01*
X183185608Y-66538794D01*
X183137787Y-66727091D01*
X183133881Y-66742470D01*
X183132955Y-66751669D01*
X183108386Y-66995669D01*
X183107070Y-67008736D01*
X183109220Y-67053501D01*
X183118790Y-67252736D01*
X183119909Y-67276041D01*
X183172118Y-67538512D01*
X183262549Y-67790383D01*
X183266925Y-67798527D01*
X183336243Y-67927534D01*
X183389215Y-68026121D01*
X183549335Y-68240547D01*
X183739390Y-68428950D01*
X183955205Y-68587192D01*
X183963370Y-68591488D01*
X183963375Y-68591491D01*
X184183856Y-68707492D01*
X184183859Y-68707493D01*
X184192039Y-68711797D01*
X184200768Y-68714845D01*
X184200772Y-68714847D01*
X184310298Y-68753094D01*
X184444690Y-68800026D01*
X184578621Y-68825454D01*
X184698534Y-68848221D01*
X184698539Y-68848222D01*
X184707606Y-68849943D01*
X184716826Y-68850305D01*
X184716833Y-68850306D01*
X184846556Y-68855402D01*
X184975013Y-68860449D01*
X184984188Y-68859444D01*
X184984193Y-68859444D01*
X185231850Y-68832321D01*
X185231851Y-68832321D01*
X185241035Y-68831315D01*
X185249971Y-68828962D01*
X185249973Y-68828962D01*
X185283409Y-68820159D01*
X185304121Y-68814706D01*
X185367516Y-68806500D01*
X189897500Y-68806500D01*
X189992788Y-68825454D01*
X190073570Y-68879430D01*
X190127546Y-68960212D01*
X190146500Y-69055500D01*
X190146500Y-69461982D01*
X190136854Y-69530615D01*
X190107234Y-69633913D01*
X190106180Y-69645719D01*
X190106180Y-69645721D01*
X190100381Y-69710703D01*
X190096500Y-69754184D01*
X190096500Y-71469816D01*
X190096992Y-71475325D01*
X190096992Y-71475332D01*
X190100067Y-71509783D01*
X190107234Y-71590087D01*
X190163259Y-71785470D01*
X190257427Y-71965596D01*
X190265403Y-71975375D01*
X190268377Y-71979886D01*
X190305008Y-72069871D01*
X190309500Y-72116956D01*
X190309500Y-72719258D01*
X190290546Y-72814546D01*
X190273373Y-72848432D01*
X190228096Y-72923047D01*
X190201244Y-72967298D01*
X190197675Y-72975809D01*
X190197673Y-72975813D01*
X190115302Y-73172246D01*
X190097755Y-73214091D01*
X190031881Y-73473470D01*
X190024167Y-73550083D01*
X190009861Y-73692160D01*
X190005070Y-73739736D01*
X190005514Y-73748972D01*
X190015500Y-73956881D01*
X190017909Y-74007041D01*
X190019713Y-74016109D01*
X190019713Y-74016111D01*
X190023900Y-74037162D01*
X190070118Y-74269512D01*
X190160549Y-74521383D01*
X190287215Y-74757121D01*
X190447335Y-74971547D01*
X190637390Y-75159950D01*
X190800612Y-75279629D01*
X190835732Y-75305380D01*
X190853205Y-75318192D01*
X190861370Y-75322488D01*
X190861375Y-75322491D01*
X191081856Y-75438492D01*
X191081859Y-75438493D01*
X191090039Y-75442797D01*
X191098768Y-75445845D01*
X191098772Y-75445847D01*
X191208298Y-75484094D01*
X191342690Y-75531026D01*
X191486285Y-75558289D01*
X191596534Y-75579221D01*
X191596539Y-75579222D01*
X191605606Y-75580943D01*
X191614826Y-75581305D01*
X191614833Y-75581306D01*
X191744556Y-75586402D01*
X191873013Y-75591449D01*
X191882188Y-75590444D01*
X191882193Y-75590444D01*
X192129850Y-75563321D01*
X192129851Y-75563321D01*
X192139035Y-75562315D01*
X192147971Y-75559962D01*
X192147973Y-75559962D01*
X192388886Y-75496535D01*
X192388892Y-75496533D01*
X192397829Y-75494180D01*
X192643710Y-75388542D01*
X192871275Y-75247720D01*
X193075526Y-75074809D01*
X193251976Y-74873607D01*
X193332139Y-74748979D01*
X193391747Y-74656308D01*
X193391749Y-74656304D01*
X193396747Y-74648534D01*
X193450356Y-74529527D01*
X193502865Y-74412962D01*
X193502867Y-74412956D01*
X193506661Y-74404534D01*
X193520042Y-74357091D01*
X193576793Y-74155865D01*
X193579302Y-74146969D01*
X193593659Y-74034116D01*
X193612287Y-73887693D01*
X193612288Y-73887683D01*
X193613075Y-73881495D01*
X193615549Y-73787000D01*
X193605802Y-73655839D01*
X193596402Y-73529340D01*
X193596402Y-73529339D01*
X193595717Y-73520123D01*
X193536655Y-73259109D01*
X193475442Y-73101700D01*
X193443014Y-73018310D01*
X193443013Y-73018307D01*
X193439662Y-73009691D01*
X193423638Y-72981654D01*
X193343319Y-72841126D01*
X193312491Y-72748992D01*
X193310500Y-72717568D01*
X193310500Y-72466272D01*
X193329454Y-72370984D01*
X193383430Y-72290202D01*
X193464212Y-72236226D01*
X193559500Y-72217272D01*
X193654788Y-72236226D01*
X193675437Y-72245909D01*
X193708857Y-72263492D01*
X193717039Y-72267797D01*
X193725768Y-72270845D01*
X193725772Y-72270847D01*
X193835298Y-72309094D01*
X193969690Y-72356026D01*
X194113285Y-72383289D01*
X194223534Y-72404221D01*
X194223539Y-72404222D01*
X194232606Y-72405943D01*
X194241826Y-72406305D01*
X194241833Y-72406306D01*
X194371556Y-72411402D01*
X194500013Y-72416449D01*
X194509188Y-72415444D01*
X194509193Y-72415444D01*
X194756850Y-72388321D01*
X194756851Y-72388321D01*
X194766035Y-72387315D01*
X194774971Y-72384962D01*
X194774973Y-72384962D01*
X195015886Y-72321535D01*
X195015892Y-72321533D01*
X195024829Y-72319180D01*
X195270710Y-72213542D01*
X195498275Y-72072720D01*
X195505326Y-72066751D01*
X195505330Y-72066748D01*
X195546092Y-72032241D01*
X195631065Y-71985139D01*
X195727596Y-71974141D01*
X195820987Y-72000921D01*
X195854212Y-72021481D01*
X195984424Y-72116956D01*
X196020205Y-72143192D01*
X196028370Y-72147488D01*
X196028375Y-72147491D01*
X196248856Y-72263492D01*
X196248859Y-72263493D01*
X196257039Y-72267797D01*
X196265768Y-72270845D01*
X196265772Y-72270847D01*
X196375298Y-72309094D01*
X196509690Y-72356026D01*
X196653285Y-72383289D01*
X196763534Y-72404221D01*
X196763539Y-72404222D01*
X196772606Y-72405943D01*
X196781826Y-72406305D01*
X196781833Y-72406306D01*
X196911556Y-72411402D01*
X197040013Y-72416449D01*
X197049188Y-72415444D01*
X197049193Y-72415444D01*
X197296850Y-72388321D01*
X197296851Y-72388321D01*
X197306035Y-72387315D01*
X197314971Y-72384962D01*
X197314973Y-72384962D01*
X197555886Y-72321535D01*
X197555892Y-72321533D01*
X197564829Y-72319180D01*
X197810710Y-72213542D01*
X198038275Y-72072720D01*
X198242526Y-71899809D01*
X198418976Y-71698607D01*
X198423974Y-71690837D01*
X198558747Y-71481308D01*
X198558749Y-71481304D01*
X198563747Y-71473534D01*
X198577785Y-71442371D01*
X198669865Y-71237962D01*
X198669867Y-71237956D01*
X198673661Y-71229534D01*
X198685475Y-71187647D01*
X198743793Y-70980865D01*
X198746302Y-70971969D01*
X198767405Y-70806086D01*
X198779287Y-70712693D01*
X198779288Y-70712683D01*
X198780075Y-70706495D01*
X198782549Y-70612000D01*
X198762717Y-70345123D01*
X198703655Y-70084109D01*
X198613730Y-69852866D01*
X198610014Y-69843310D01*
X198610013Y-69843307D01*
X198606662Y-69834691D01*
X198473868Y-69602350D01*
X198413598Y-69525898D01*
X198313906Y-69399439D01*
X198313902Y-69399435D01*
X198308190Y-69392189D01*
X198113269Y-69208825D01*
X198105681Y-69203561D01*
X198105676Y-69203557D01*
X197920368Y-69075005D01*
X197893385Y-69056286D01*
X197653371Y-68937924D01*
X197398497Y-68856338D01*
X197389383Y-68854854D01*
X197389380Y-68854853D01*
X197143482Y-68814807D01*
X197143483Y-68814807D01*
X197134364Y-68813322D01*
X197125133Y-68813201D01*
X197125131Y-68813201D01*
X196947538Y-68810876D01*
X196866774Y-68809819D01*
X196601605Y-68845907D01*
X196344683Y-68920792D01*
X196336298Y-68924657D01*
X196336294Y-68924659D01*
X196187501Y-68993254D01*
X196101652Y-69032831D01*
X195877851Y-69179562D01*
X195870959Y-69185713D01*
X195863626Y-69191340D01*
X195862666Y-69190089D01*
X195788916Y-69233523D01*
X195692706Y-69247036D01*
X195598647Y-69222703D01*
X195564913Y-69203028D01*
X195380368Y-69075005D01*
X195353385Y-69056286D01*
X195113371Y-68937924D01*
X194858497Y-68856338D01*
X194849383Y-68854854D01*
X194849380Y-68854853D01*
X194603482Y-68814807D01*
X194603483Y-68814807D01*
X194594364Y-68813322D01*
X194585133Y-68813201D01*
X194585131Y-68813201D01*
X194407538Y-68810876D01*
X194326774Y-68809819D01*
X194061605Y-68845907D01*
X194052737Y-68848492D01*
X194052736Y-68848492D01*
X193966176Y-68873721D01*
X193869390Y-68882188D01*
X193776732Y-68852972D01*
X193702308Y-68790522D01*
X193657447Y-68704344D01*
X193647500Y-68634668D01*
X193647500Y-64973489D01*
X193666454Y-64878201D01*
X193720430Y-64797419D01*
X193801212Y-64743443D01*
X193896500Y-64724489D01*
X193960952Y-64732975D01*
X193960957Y-64732976D01*
X193969690Y-64736026D01*
X194083485Y-64757631D01*
X194223534Y-64784221D01*
X194223539Y-64784222D01*
X194232606Y-64785943D01*
X194241826Y-64786305D01*
X194241833Y-64786306D01*
X194371556Y-64791402D01*
X194500013Y-64796449D01*
X194509188Y-64795444D01*
X194509193Y-64795444D01*
X194756850Y-64768321D01*
X194756851Y-64768321D01*
X194766035Y-64767315D01*
X194774971Y-64764962D01*
X194774973Y-64764962D01*
X194829120Y-64750706D01*
X194892516Y-64742500D01*
X195941700Y-64742500D01*
X195944960Y-64742521D01*
X196068165Y-64744134D01*
X196076955Y-64742938D01*
X196091268Y-64742500D01*
X196520361Y-64742500D01*
X196566806Y-64746870D01*
X196763534Y-64784221D01*
X196763539Y-64784222D01*
X196772606Y-64785943D01*
X196781826Y-64786305D01*
X196781833Y-64786306D01*
X196911556Y-64791402D01*
X197040013Y-64796449D01*
X197049188Y-64795444D01*
X197049193Y-64795444D01*
X197296850Y-64768321D01*
X197296851Y-64768321D01*
X197306035Y-64767315D01*
X197314971Y-64764962D01*
X197314973Y-64764962D01*
X197555886Y-64701535D01*
X197555892Y-64701533D01*
X197564829Y-64699180D01*
X197739377Y-64624189D01*
X197802224Y-64597188D01*
X197802226Y-64597187D01*
X197810710Y-64593542D01*
X198038275Y-64452720D01*
X198242526Y-64279809D01*
X198418976Y-64078607D01*
X198563747Y-63853534D01*
X198590642Y-63793830D01*
X198669865Y-63617962D01*
X198669867Y-63617956D01*
X198673661Y-63609534D01*
X198685991Y-63565817D01*
X198743793Y-63360865D01*
X198746302Y-63351969D01*
X198775698Y-63120900D01*
X198779287Y-63092693D01*
X198779288Y-63092683D01*
X198780075Y-63086495D01*
X198782549Y-62992000D01*
X198762717Y-62725123D01*
X198703655Y-62464109D01*
X198606662Y-62214691D01*
X198473868Y-61982350D01*
X198357423Y-61834640D01*
X198313906Y-61779439D01*
X198313902Y-61779435D01*
X198308190Y-61772189D01*
X198113269Y-61588825D01*
X198105681Y-61583561D01*
X198105676Y-61583557D01*
X197979077Y-61495733D01*
X197893385Y-61436286D01*
X197772257Y-61376552D01*
X197695179Y-61317408D01*
X197644266Y-61226029D01*
X197641745Y-61217783D01*
X197639705Y-61208768D01*
X197636354Y-61200151D01*
X197634553Y-61194260D01*
X197632689Y-61188521D01*
X197630493Y-61179549D01*
X197587814Y-61075227D01*
X197586205Y-61071193D01*
X197584617Y-61067109D01*
X197545405Y-60966277D01*
X197540824Y-60958263D01*
X197538225Y-60952813D01*
X197535476Y-60947299D01*
X197531975Y-60938741D01*
X197474368Y-60841914D01*
X197472189Y-60838176D01*
X197420886Y-60748412D01*
X197420880Y-60748403D01*
X197416299Y-60740388D01*
X197410583Y-60733137D01*
X197407230Y-60728166D01*
X197403673Y-60723086D01*
X197398945Y-60715139D01*
X197393100Y-60707985D01*
X197393093Y-60707975D01*
X197327664Y-60627894D01*
X197324987Y-60624559D01*
X197255223Y-60536064D01*
X197180781Y-60466036D01*
X197175356Y-60460775D01*
X196839651Y-60125070D01*
X196785675Y-60044288D01*
X196766721Y-59949000D01*
X196785675Y-59853712D01*
X196839651Y-59772930D01*
X196920433Y-59718954D01*
X197015721Y-59700000D01*
X201191102Y-59700000D01*
X201208864Y-59700634D01*
G37*
%TD.AperFunction*%
%TA.AperFunction,Conductor*%
G36*
X169791758Y-76262420D02*
G01*
X169873469Y-76314978D01*
X169928848Y-76394805D01*
X169949500Y-76494094D01*
X169949500Y-77652258D01*
X169930546Y-77747546D01*
X169913373Y-77781432D01*
X169846037Y-77892399D01*
X169841244Y-77900298D01*
X169837675Y-77908809D01*
X169837673Y-77908813D01*
X169757762Y-78099380D01*
X169737755Y-78147091D01*
X169735478Y-78156057D01*
X169687599Y-78344582D01*
X169671881Y-78406470D01*
X169663810Y-78486628D01*
X169646211Y-78661407D01*
X169645070Y-78672736D01*
X169648872Y-78751896D01*
X169657270Y-78926734D01*
X169657909Y-78940041D01*
X169710118Y-79202512D01*
X169800549Y-79454383D01*
X169919842Y-79676399D01*
X169948247Y-79769309D01*
X169949500Y-79794255D01*
X169949500Y-80901559D01*
X169948448Y-80916353D01*
X169949053Y-80916389D01*
X169948447Y-80926587D01*
X169947007Y-80936706D01*
X169947239Y-80946924D01*
X169949436Y-81043740D01*
X169949500Y-81049389D01*
X169949500Y-81088554D01*
X169950211Y-81097203D01*
X169950983Y-81111932D01*
X169952605Y-81183382D01*
X169954502Y-81193420D01*
X169954502Y-81193423D01*
X169958487Y-81214515D01*
X169961978Y-81240338D01*
X169963736Y-81261715D01*
X169963737Y-81261723D01*
X169964575Y-81271911D01*
X169967066Y-81281827D01*
X169981980Y-81341204D01*
X169985151Y-81355625D01*
X169998417Y-81425833D01*
X170001932Y-81435438D01*
X170009304Y-81455585D01*
X170016965Y-81480489D01*
X170022192Y-81501297D01*
X170024684Y-81511217D01*
X170050039Y-81569529D01*
X170053173Y-81576737D01*
X170058658Y-81590450D01*
X170083211Y-81657545D01*
X170088239Y-81666433D01*
X170088241Y-81666436D01*
X170098816Y-81685127D01*
X170110440Y-81708441D01*
X170123072Y-81737493D01*
X170128623Y-81746073D01*
X170161881Y-81797483D01*
X170169533Y-81810119D01*
X170204712Y-81872297D01*
X170211126Y-81880246D01*
X170211132Y-81880255D01*
X170224611Y-81896960D01*
X170239888Y-81918064D01*
X170257095Y-81944661D01*
X170263971Y-81952217D01*
X170263972Y-81952219D01*
X170305167Y-81997491D01*
X170314772Y-82008697D01*
X170331917Y-82029945D01*
X170358645Y-82056673D01*
X170366743Y-82065163D01*
X170423154Y-82127158D01*
X170431167Y-82133487D01*
X170431171Y-82133490D01*
X170440139Y-82140572D01*
X170461875Y-82159903D01*
X170904028Y-82602055D01*
X170961769Y-82659796D01*
X171015745Y-82740578D01*
X171034699Y-82835866D01*
X171015745Y-82931154D01*
X170961769Y-83011936D01*
X170880987Y-83065912D01*
X170851403Y-83076041D01*
X170757602Y-83101702D01*
X170494165Y-83214068D01*
X170248415Y-83361146D01*
X170241791Y-83366453D01*
X170031625Y-83534827D01*
X169945408Y-83579613D01*
X169875940Y-83589500D01*
X167094667Y-83589500D01*
X166999379Y-83570546D01*
X166918597Y-83516570D01*
X162962424Y-79560397D01*
X162906424Y-79474574D01*
X162900114Y-79458346D01*
X162829150Y-79275863D01*
X162823319Y-79265661D01*
X162822834Y-79264213D01*
X162820587Y-79259501D01*
X162821166Y-79259225D01*
X162792491Y-79173527D01*
X162790500Y-79142102D01*
X162790500Y-78194668D01*
X162809454Y-78099380D01*
X162863430Y-78018598D01*
X164378598Y-76503430D01*
X164459380Y-76449454D01*
X164554668Y-76430500D01*
X168785559Y-76430500D01*
X168800353Y-76431552D01*
X168800389Y-76430947D01*
X168810587Y-76431553D01*
X168820706Y-76432993D01*
X168927740Y-76430564D01*
X168933389Y-76430500D01*
X168972554Y-76430500D01*
X168981203Y-76429789D01*
X168995932Y-76429017D01*
X169037683Y-76428069D01*
X169057170Y-76427627D01*
X169057173Y-76427627D01*
X169067382Y-76427395D01*
X169077420Y-76425498D01*
X169077423Y-76425498D01*
X169098515Y-76421513D01*
X169124338Y-76418022D01*
X169145715Y-76416264D01*
X169145723Y-76416263D01*
X169155911Y-76415425D01*
X169225210Y-76398019D01*
X169239625Y-76394849D01*
X169309833Y-76381583D01*
X169322792Y-76376841D01*
X169339585Y-76370696D01*
X169364489Y-76363035D01*
X169385297Y-76357808D01*
X169385300Y-76357807D01*
X169395217Y-76355316D01*
X169460745Y-76326824D01*
X169474451Y-76321342D01*
X169491841Y-76314978D01*
X169541545Y-76296789D01*
X169550433Y-76291761D01*
X169550436Y-76291759D01*
X169569127Y-76281184D01*
X169592441Y-76269560D01*
X169601214Y-76265745D01*
X169696153Y-76245132D01*
X169791758Y-76262420D01*
G37*
%TD.AperFunction*%
%TA.AperFunction,Conductor*%
G36*
X155593262Y-66557748D02*
G01*
X155674044Y-66611724D01*
X155728020Y-66692506D01*
X155746974Y-66787794D01*
X155739312Y-66849084D01*
X155701881Y-66996470D01*
X155675070Y-67262736D01*
X155675514Y-67271972D01*
X155687429Y-67520041D01*
X155687909Y-67530041D01*
X155740118Y-67792512D01*
X155830549Y-68044383D01*
X155931971Y-68233140D01*
X155949842Y-68266399D01*
X155978247Y-68359309D01*
X155979500Y-68384255D01*
X155979500Y-70995559D01*
X155978448Y-71010353D01*
X155979053Y-71010389D01*
X155978447Y-71020587D01*
X155977007Y-71030706D01*
X155977239Y-71040924D01*
X155979436Y-71137740D01*
X155979500Y-71143389D01*
X155979500Y-71182554D01*
X155980211Y-71191203D01*
X155980983Y-71205932D01*
X155982605Y-71277382D01*
X155984502Y-71287420D01*
X155984502Y-71287423D01*
X155988487Y-71308515D01*
X155991978Y-71334338D01*
X155993736Y-71355715D01*
X155993737Y-71355723D01*
X155994575Y-71365911D01*
X155997066Y-71375827D01*
X156011980Y-71435204D01*
X156015151Y-71449625D01*
X156028417Y-71519833D01*
X156031932Y-71529438D01*
X156039304Y-71549585D01*
X156046965Y-71574489D01*
X156052192Y-71595297D01*
X156054684Y-71605217D01*
X156083173Y-71670737D01*
X156088658Y-71684450D01*
X156113211Y-71751545D01*
X156118239Y-71760433D01*
X156118241Y-71760436D01*
X156128816Y-71779127D01*
X156140440Y-71802441D01*
X156153072Y-71831493D01*
X156158623Y-71840073D01*
X156191881Y-71891483D01*
X156199533Y-71904119D01*
X156234712Y-71966297D01*
X156241126Y-71974246D01*
X156241132Y-71974255D01*
X156254611Y-71990960D01*
X156269888Y-72012064D01*
X156287095Y-72038661D01*
X156293971Y-72046217D01*
X156293972Y-72046219D01*
X156335167Y-72091491D01*
X156344772Y-72102697D01*
X156361917Y-72123945D01*
X156388646Y-72150674D01*
X156396744Y-72159164D01*
X156453154Y-72221158D01*
X156461177Y-72227494D01*
X156461179Y-72227496D01*
X156470135Y-72234569D01*
X156491880Y-72253908D01*
X157080237Y-72842265D01*
X157134213Y-72923047D01*
X157138517Y-72934187D01*
X157192160Y-73083595D01*
X157196532Y-73091732D01*
X157196534Y-73091736D01*
X157291856Y-73269137D01*
X157311792Y-73306240D01*
X157463018Y-73508756D01*
X157642517Y-73686696D01*
X157846346Y-73836149D01*
X157854510Y-73840445D01*
X157854516Y-73840448D01*
X157949650Y-73890500D01*
X158070026Y-73953833D01*
X158308644Y-74037162D01*
X158556958Y-74084306D01*
X158566180Y-74084668D01*
X158566186Y-74084669D01*
X158683235Y-74089267D01*
X158809513Y-74094229D01*
X158818688Y-74093224D01*
X158818693Y-74093224D01*
X159051577Y-74067719D01*
X159051581Y-74067718D01*
X159060760Y-74066713D01*
X159305181Y-74002363D01*
X159313668Y-73998717D01*
X159518482Y-73910721D01*
X159616774Y-73890500D01*
X160428144Y-73890500D01*
X160523432Y-73909454D01*
X160544080Y-73919137D01*
X160610026Y-73953833D01*
X160848644Y-74037162D01*
X161096958Y-74084306D01*
X161106180Y-74084668D01*
X161106186Y-74084669D01*
X161223235Y-74089267D01*
X161349513Y-74094229D01*
X161358688Y-74093224D01*
X161358693Y-74093224D01*
X161591577Y-74067719D01*
X161591581Y-74067718D01*
X161600760Y-74066713D01*
X161845181Y-74002363D01*
X161853663Y-73998719D01*
X161853669Y-73998717D01*
X162040176Y-73918587D01*
X162135208Y-73898387D01*
X162230736Y-73916092D01*
X162312217Y-73969007D01*
X162367246Y-74049075D01*
X162387446Y-74144107D01*
X162369741Y-74239635D01*
X162314539Y-74323434D01*
X160316978Y-76320995D01*
X160305778Y-76330709D01*
X160306179Y-76331161D01*
X160298533Y-76337950D01*
X160290364Y-76344083D01*
X160283305Y-76351470D01*
X160216424Y-76421457D01*
X160212475Y-76425498D01*
X160184754Y-76453219D01*
X160181459Y-76457104D01*
X160181450Y-76457114D01*
X160179140Y-76459838D01*
X160169274Y-76470797D01*
X160119896Y-76522468D01*
X160102037Y-76548648D01*
X160086252Y-76569369D01*
X160065761Y-76593531D01*
X160029062Y-76654849D01*
X160021126Y-76667258D01*
X159980851Y-76726300D01*
X159969033Y-76751760D01*
X159967513Y-76755035D01*
X159955317Y-76778067D01*
X159945097Y-76795145D01*
X159939049Y-76805250D01*
X159912859Y-76871738D01*
X159907046Y-76885299D01*
X159876965Y-76950104D01*
X159874235Y-76959948D01*
X159874232Y-76959956D01*
X159868498Y-76980633D01*
X159860233Y-77005337D01*
X159848619Y-77034822D01*
X159846478Y-77044811D01*
X159846475Y-77044819D01*
X159833639Y-77104690D01*
X159830116Y-77119033D01*
X159811026Y-77187871D01*
X159809941Y-77198026D01*
X159809940Y-77198030D01*
X159807660Y-77219367D01*
X159803538Y-77245103D01*
X159796897Y-77276080D01*
X159796416Y-77286284D01*
X159793532Y-77347441D01*
X159792398Y-77362175D01*
X159789500Y-77389292D01*
X159789500Y-77427058D01*
X159789224Y-77438786D01*
X159785274Y-77522547D01*
X159786466Y-77532692D01*
X159786466Y-77532698D01*
X159787799Y-77544042D01*
X159789500Y-77573093D01*
X159789500Y-78226080D01*
X159770546Y-78321368D01*
X159716570Y-78402150D01*
X159635788Y-78456126D01*
X159540500Y-78475080D01*
X159445212Y-78456126D01*
X159430379Y-78449405D01*
X159388805Y-78428903D01*
X159305178Y-78402134D01*
X159156886Y-78354665D01*
X159156879Y-78354663D01*
X159148087Y-78351849D01*
X159026136Y-78331988D01*
X158907739Y-78312705D01*
X158907733Y-78312704D01*
X158898624Y-78311221D01*
X158889394Y-78311100D01*
X158889392Y-78311100D01*
X158715701Y-78308827D01*
X158645896Y-78307913D01*
X158636741Y-78309159D01*
X158636740Y-78309159D01*
X158404607Y-78340750D01*
X158404601Y-78340751D01*
X158395455Y-78341996D01*
X158152803Y-78412723D01*
X158045175Y-78462340D01*
X157992490Y-78486628D01*
X157888244Y-78509500D01*
X156588441Y-78509500D01*
X156573647Y-78508448D01*
X156573611Y-78509053D01*
X156563413Y-78508447D01*
X156553294Y-78507007D01*
X156449198Y-78509369D01*
X156446260Y-78509436D01*
X156440611Y-78509500D01*
X156401446Y-78509500D01*
X156392797Y-78510211D01*
X156378068Y-78510983D01*
X156333179Y-78512002D01*
X156316832Y-78512373D01*
X156316830Y-78512373D01*
X156306618Y-78512605D01*
X156275482Y-78518488D01*
X156249662Y-78521979D01*
X156218089Y-78524575D01*
X156208178Y-78527064D01*
X156208175Y-78527065D01*
X156148807Y-78541977D01*
X156134378Y-78545150D01*
X156127357Y-78546477D01*
X156064167Y-78558416D01*
X156054569Y-78561929D01*
X156054567Y-78561929D01*
X156034416Y-78569303D01*
X156009507Y-78576966D01*
X155988703Y-78582192D01*
X155988699Y-78582193D01*
X155978783Y-78584684D01*
X155913248Y-78613179D01*
X155899551Y-78618657D01*
X155832455Y-78643211D01*
X155823567Y-78648239D01*
X155823564Y-78648241D01*
X155804873Y-78658816D01*
X155781559Y-78670440D01*
X155752507Y-78683072D01*
X155705056Y-78713769D01*
X155692517Y-78721881D01*
X155679881Y-78729533D01*
X155617703Y-78764712D01*
X155593042Y-78784611D01*
X155571941Y-78799885D01*
X155564854Y-78804470D01*
X155545339Y-78817095D01*
X155537795Y-78823960D01*
X155537784Y-78823968D01*
X155492486Y-78865186D01*
X155481272Y-78874797D01*
X155476686Y-78878498D01*
X155460056Y-78891917D01*
X155433337Y-78918636D01*
X155424847Y-78926734D01*
X155362842Y-78983154D01*
X155356510Y-78991172D01*
X155356506Y-78991176D01*
X155349425Y-79000142D01*
X155330085Y-79021888D01*
X155228070Y-79123903D01*
X155147288Y-79177879D01*
X155052000Y-79196833D01*
X154956712Y-79177879D01*
X154875930Y-79123903D01*
X154821954Y-79043121D01*
X154803000Y-78947833D01*
X154803000Y-67233768D01*
X154821954Y-67138480D01*
X154875930Y-67057698D01*
X155321904Y-66611724D01*
X155402686Y-66557748D01*
X155497974Y-66538794D01*
X155593262Y-66557748D01*
G37*
%TD.AperFunction*%
%TA.AperFunction,Conductor*%
G36*
X162999479Y-63139854D02*
G01*
X163080261Y-63193830D01*
X163124853Y-63254536D01*
X163135027Y-63273996D01*
X163142996Y-63283767D01*
X163142998Y-63283770D01*
X163237344Y-63399449D01*
X163263491Y-63431509D01*
X163273273Y-63439487D01*
X163411230Y-63552002D01*
X163411233Y-63552004D01*
X163421004Y-63559973D01*
X163601130Y-63654141D01*
X163796513Y-63710166D01*
X163808319Y-63711220D01*
X163808321Y-63711220D01*
X163911268Y-63720408D01*
X163911275Y-63720408D01*
X163916784Y-63720900D01*
X164949933Y-63720900D01*
X165045221Y-63739854D01*
X165126003Y-63793830D01*
X165805195Y-64473022D01*
X165814909Y-64484222D01*
X165815361Y-64483821D01*
X165822150Y-64491467D01*
X165828283Y-64499636D01*
X165835670Y-64506695D01*
X165905657Y-64573576D01*
X165909698Y-64577525D01*
X165937419Y-64605246D01*
X165941322Y-64608556D01*
X165944020Y-64610844D01*
X165954996Y-64620726D01*
X166006668Y-64670104D01*
X166015103Y-64675858D01*
X166015104Y-64675859D01*
X166020211Y-64679343D01*
X166032837Y-64687956D01*
X166053563Y-64703744D01*
X166077731Y-64724240D01*
X166139045Y-64760936D01*
X166151477Y-64768887D01*
X166210500Y-64809149D01*
X166219762Y-64813448D01*
X166219767Y-64813451D01*
X166239230Y-64822485D01*
X166262270Y-64834684D01*
X166289450Y-64850951D01*
X166355938Y-64877141D01*
X166369499Y-64882954D01*
X166434304Y-64913035D01*
X166444148Y-64915765D01*
X166444156Y-64915768D01*
X166464833Y-64921502D01*
X166489537Y-64929767D01*
X166519022Y-64941381D01*
X166529011Y-64943522D01*
X166529019Y-64943525D01*
X166588890Y-64956361D01*
X166603233Y-64959884D01*
X166616956Y-64963690D01*
X166672071Y-64978974D01*
X166682226Y-64980059D01*
X166682230Y-64980060D01*
X166703567Y-64982340D01*
X166729304Y-64986462D01*
X166760280Y-64993103D01*
X166798053Y-64994884D01*
X166831641Y-64996468D01*
X166846375Y-64997602D01*
X166866905Y-64999796D01*
X166873492Y-65000500D01*
X166911258Y-65000500D01*
X166922987Y-65000776D01*
X166996544Y-65004245D01*
X166996546Y-65004245D01*
X167006747Y-65004726D01*
X167016892Y-65003534D01*
X167016898Y-65003534D01*
X167028242Y-65002201D01*
X167057293Y-65000500D01*
X175092242Y-65000500D01*
X175122314Y-65006482D01*
X175153450Y-65000500D01*
X176939500Y-65000500D01*
X177034788Y-65019454D01*
X177115570Y-65073430D01*
X177169546Y-65154212D01*
X177188500Y-65249500D01*
X177188500Y-66195575D01*
X177169546Y-66290863D01*
X177115570Y-66371645D01*
X177034788Y-66425621D01*
X176939500Y-66444575D01*
X176844212Y-66425621D01*
X176763430Y-66371645D01*
X176723319Y-66319134D01*
X176706868Y-66290350D01*
X176632153Y-66195575D01*
X176546906Y-66087439D01*
X176546902Y-66087435D01*
X176541190Y-66080189D01*
X176346269Y-65896825D01*
X176338681Y-65891561D01*
X176338676Y-65891557D01*
X176228126Y-65814866D01*
X176126385Y-65744286D01*
X175886371Y-65625924D01*
X175631497Y-65544338D01*
X175622383Y-65542854D01*
X175622380Y-65542853D01*
X175376482Y-65502807D01*
X175376483Y-65502807D01*
X175367364Y-65501322D01*
X175358133Y-65501201D01*
X175358131Y-65501201D01*
X175150191Y-65498479D01*
X175126935Y-65493536D01*
X175107921Y-65497926D01*
X175099774Y-65497819D01*
X174834605Y-65533907D01*
X174577683Y-65608792D01*
X174569298Y-65612657D01*
X174569294Y-65612659D01*
X174343042Y-65716963D01*
X174334652Y-65720831D01*
X174110851Y-65867562D01*
X173911197Y-66045760D01*
X173740075Y-66251512D01*
X173716196Y-66290863D01*
X173606033Y-66472405D01*
X173606030Y-66472411D01*
X173601244Y-66480298D01*
X173597675Y-66488809D01*
X173597673Y-66488813D01*
X173568766Y-66557748D01*
X173497755Y-66727091D01*
X173495478Y-66736057D01*
X173455949Y-66891704D01*
X173431881Y-66986470D01*
X173424709Y-67057698D01*
X173413004Y-67173946D01*
X173405070Y-67252736D01*
X173417909Y-67520041D01*
X173470118Y-67782512D01*
X173560549Y-68034383D01*
X173564925Y-68042527D01*
X173634243Y-68171534D01*
X173687215Y-68270121D01*
X173847335Y-68484547D01*
X174037390Y-68672950D01*
X174253205Y-68831192D01*
X174261375Y-68835490D01*
X174269216Y-68840390D01*
X174267796Y-68842662D01*
X174329929Y-68892992D01*
X174376275Y-68978381D01*
X174386416Y-69075005D01*
X174358809Y-69168155D01*
X174297656Y-69243649D01*
X174212267Y-69289995D01*
X174135205Y-69301163D01*
X173879774Y-69297819D01*
X173614605Y-69333907D01*
X173357683Y-69408792D01*
X173349298Y-69412657D01*
X173349294Y-69412659D01*
X173242305Y-69461982D01*
X173114652Y-69520831D01*
X172890851Y-69667562D01*
X172883959Y-69673713D01*
X172876626Y-69679340D01*
X172875666Y-69678089D01*
X172801916Y-69721523D01*
X172705706Y-69735036D01*
X172611647Y-69710703D01*
X172577913Y-69691028D01*
X172450084Y-69602350D01*
X172366385Y-69544286D01*
X172126371Y-69425924D01*
X171871497Y-69344338D01*
X171862383Y-69342854D01*
X171862380Y-69342853D01*
X171616482Y-69302807D01*
X171616483Y-69302807D01*
X171607364Y-69301322D01*
X171598133Y-69301201D01*
X171598131Y-69301201D01*
X171420538Y-69298876D01*
X171339774Y-69297819D01*
X171074605Y-69333907D01*
X170817683Y-69408792D01*
X170809298Y-69412657D01*
X170809294Y-69412659D01*
X170702305Y-69461982D01*
X170574652Y-69520831D01*
X170350851Y-69667562D01*
X170343959Y-69673713D01*
X170336626Y-69679340D01*
X170335666Y-69678089D01*
X170261916Y-69721523D01*
X170165706Y-69735036D01*
X170071647Y-69710703D01*
X170037913Y-69691028D01*
X169910084Y-69602350D01*
X169826385Y-69544286D01*
X169586371Y-69425924D01*
X169331497Y-69344338D01*
X169322383Y-69342854D01*
X169322380Y-69342853D01*
X169076482Y-69302807D01*
X169076483Y-69302807D01*
X169067364Y-69301322D01*
X169058133Y-69301201D01*
X169058131Y-69301201D01*
X168880538Y-69298876D01*
X168799774Y-69297819D01*
X168534605Y-69333907D01*
X168277683Y-69408792D01*
X168269298Y-69412657D01*
X168269294Y-69412659D01*
X168162305Y-69461982D01*
X168034652Y-69520831D01*
X167810851Y-69667562D01*
X167611197Y-69845760D01*
X167440075Y-70051512D01*
X167435284Y-70059408D01*
X167306033Y-70272405D01*
X167306030Y-70272411D01*
X167301244Y-70280298D01*
X167297675Y-70288809D01*
X167297673Y-70288813D01*
X167253005Y-70395334D01*
X167197755Y-70527091D01*
X167195480Y-70536050D01*
X167159076Y-70679388D01*
X167117250Y-70767078D01*
X167093808Y-70794165D01*
X167041403Y-70846570D01*
X166960621Y-70900546D01*
X166865333Y-70919500D01*
X166163888Y-70919500D01*
X166068600Y-70900546D01*
X166021966Y-70875095D01*
X166006385Y-70864286D01*
X165766371Y-70745924D01*
X165511497Y-70664338D01*
X165502383Y-70662854D01*
X165502380Y-70662853D01*
X165256482Y-70622807D01*
X165256483Y-70622807D01*
X165247364Y-70621322D01*
X165238133Y-70621201D01*
X165238131Y-70621201D01*
X165060538Y-70618876D01*
X164979774Y-70617819D01*
X164714605Y-70653907D01*
X164457683Y-70728792D01*
X164449298Y-70732657D01*
X164449294Y-70732659D01*
X164223044Y-70836962D01*
X164214652Y-70840831D01*
X164206920Y-70845900D01*
X164206917Y-70845902D01*
X164202592Y-70848737D01*
X164199677Y-70849915D01*
X164198843Y-70850377D01*
X164198786Y-70850275D01*
X164112511Y-70885131D01*
X164066070Y-70889500D01*
X162150298Y-70889500D01*
X162055010Y-70870546D01*
X162040168Y-70863821D01*
X161937091Y-70812989D01*
X161937089Y-70812988D01*
X161928805Y-70808903D01*
X161842332Y-70781223D01*
X161696886Y-70734665D01*
X161696879Y-70734663D01*
X161688087Y-70731849D01*
X161566136Y-70711988D01*
X161447739Y-70692705D01*
X161447733Y-70692704D01*
X161438624Y-70691221D01*
X161429394Y-70691100D01*
X161429392Y-70691100D01*
X161255701Y-70688827D01*
X161185896Y-70687913D01*
X161176741Y-70689159D01*
X161176740Y-70689159D01*
X160944607Y-70720750D01*
X160944601Y-70720751D01*
X160935455Y-70721996D01*
X160692803Y-70792723D01*
X160577449Y-70845902D01*
X160532490Y-70866628D01*
X160428244Y-70889500D01*
X159610298Y-70889500D01*
X159515010Y-70870546D01*
X159500168Y-70863821D01*
X159397091Y-70812989D01*
X159397089Y-70812988D01*
X159388805Y-70808903D01*
X159380016Y-70806090D01*
X159380007Y-70806086D01*
X159319001Y-70786558D01*
X159302331Y-70781223D01*
X159217358Y-70734122D01*
X159202195Y-70720167D01*
X159053427Y-70571400D01*
X158999454Y-70490622D01*
X158980500Y-70395334D01*
X158980500Y-68378787D01*
X158999454Y-68283499D01*
X159020081Y-68244085D01*
X159061747Y-68179308D01*
X159061749Y-68179304D01*
X159066747Y-68171534D01*
X159120356Y-68052527D01*
X159172865Y-67935962D01*
X159172867Y-67935956D01*
X159176661Y-67927534D01*
X159249302Y-67669969D01*
X159264919Y-67547209D01*
X159282287Y-67410693D01*
X159282288Y-67410683D01*
X159283075Y-67404495D01*
X159285549Y-67310000D01*
X159284540Y-67296425D01*
X159266402Y-67052340D01*
X159266402Y-67052339D01*
X159265717Y-67043123D01*
X159206655Y-66782109D01*
X159109662Y-66532691D01*
X159059300Y-66444575D01*
X159013319Y-66364126D01*
X158982491Y-66271992D01*
X158980500Y-66240568D01*
X158980500Y-65494668D01*
X158999454Y-65399380D01*
X159053430Y-65318598D01*
X161178197Y-63193830D01*
X161258979Y-63139854D01*
X161354267Y-63120900D01*
X162904191Y-63120900D01*
X162999479Y-63139854D01*
G37*
%TD.AperFunction*%
%TA.AperFunction,Conductor*%
G36*
X188097739Y-59718954D02*
G01*
X188178521Y-59772930D01*
X188232497Y-59853712D01*
X188251451Y-59949000D01*
X188232497Y-60044288D01*
X188178521Y-60125070D01*
X188145776Y-60151704D01*
X188145906Y-60151873D01*
X188139942Y-60156449D01*
X188138976Y-60157235D01*
X188130851Y-60162562D01*
X187931197Y-60340760D01*
X187760075Y-60546512D01*
X187710691Y-60627894D01*
X187626033Y-60767405D01*
X187626030Y-60767411D01*
X187621244Y-60775298D01*
X187617675Y-60783809D01*
X187617673Y-60783813D01*
X187546806Y-60952813D01*
X187517755Y-61022091D01*
X187509597Y-61054214D01*
X187474030Y-61194260D01*
X187451881Y-61281470D01*
X187446644Y-61333483D01*
X187435762Y-61441556D01*
X187425070Y-61547736D01*
X187426416Y-61575761D01*
X187435851Y-61772189D01*
X187437909Y-61815041D01*
X187439713Y-61824109D01*
X187439713Y-61824111D01*
X187444025Y-61845788D01*
X187490118Y-62077512D01*
X187580549Y-62329383D01*
X187584925Y-62337527D01*
X187652940Y-62464109D01*
X187707215Y-62565121D01*
X187867335Y-62779547D01*
X188057390Y-62967950D01*
X188152572Y-63037740D01*
X188252036Y-63110670D01*
X188273205Y-63126192D01*
X188281370Y-63130488D01*
X188281375Y-63130491D01*
X188501856Y-63246492D01*
X188501859Y-63246493D01*
X188510039Y-63250797D01*
X188518768Y-63253845D01*
X188518772Y-63253847D01*
X188576471Y-63273996D01*
X188762690Y-63339026D01*
X188906285Y-63366289D01*
X189016534Y-63387221D01*
X189016539Y-63387222D01*
X189025606Y-63388943D01*
X189034826Y-63389305D01*
X189034833Y-63389306D01*
X189164556Y-63394402D01*
X189293013Y-63399449D01*
X189302188Y-63398444D01*
X189302193Y-63398444D01*
X189549850Y-63371321D01*
X189549851Y-63371321D01*
X189559035Y-63370315D01*
X189567971Y-63367962D01*
X189567973Y-63367962D01*
X189808888Y-63304534D01*
X189817829Y-63302180D01*
X189819308Y-63301545D01*
X189912700Y-63288834D01*
X190006654Y-63313570D01*
X190083989Y-63372377D01*
X190132934Y-63456303D01*
X190146500Y-63537370D01*
X190146500Y-65056500D01*
X190127546Y-65151788D01*
X190073570Y-65232570D01*
X189992788Y-65286546D01*
X189897500Y-65305500D01*
X186557840Y-65305500D01*
X186462552Y-65286546D01*
X186381770Y-65232570D01*
X186329492Y-65155788D01*
X186308828Y-65108264D01*
X186303342Y-65094549D01*
X186278789Y-65027455D01*
X186266923Y-65006482D01*
X186263184Y-64999873D01*
X186251560Y-64976559D01*
X186238928Y-64947507D01*
X186200119Y-64887517D01*
X186192467Y-64874881D01*
X186162321Y-64821598D01*
X186162319Y-64821594D01*
X186157288Y-64812703D01*
X186150874Y-64804754D01*
X186150868Y-64804745D01*
X186137389Y-64788040D01*
X186122111Y-64766935D01*
X186118227Y-64760931D01*
X186104905Y-64740339D01*
X186056828Y-64687503D01*
X186047228Y-64676303D01*
X186030083Y-64655055D01*
X186003355Y-64628327D01*
X185995257Y-64619837D01*
X185945723Y-64565400D01*
X185938846Y-64557842D01*
X185921858Y-64544426D01*
X185900120Y-64525093D01*
X183902005Y-62526978D01*
X183892291Y-62515778D01*
X183891839Y-62516179D01*
X183885050Y-62508533D01*
X183878917Y-62500364D01*
X183801543Y-62426424D01*
X183797502Y-62422475D01*
X183769781Y-62394754D01*
X183765896Y-62391459D01*
X183765886Y-62391450D01*
X183763162Y-62389140D01*
X183752203Y-62379274D01*
X183700532Y-62329896D01*
X183674351Y-62312037D01*
X183653631Y-62296252D01*
X183629469Y-62275761D01*
X183568151Y-62239062D01*
X183555742Y-62231126D01*
X183496700Y-62190851D01*
X183467959Y-62177510D01*
X183444933Y-62165317D01*
X183426522Y-62154299D01*
X183426523Y-62154299D01*
X183417750Y-62149049D01*
X183351262Y-62122859D01*
X183337700Y-62117046D01*
X183282170Y-62091270D01*
X183272896Y-62086965D01*
X183263052Y-62084235D01*
X183263044Y-62084232D01*
X183242367Y-62078498D01*
X183217663Y-62070233D01*
X183188178Y-62058619D01*
X183178189Y-62056478D01*
X183178181Y-62056475D01*
X183118310Y-62043639D01*
X183103967Y-62040116D01*
X183090244Y-62036310D01*
X183035129Y-62021026D01*
X183024974Y-62019941D01*
X183024970Y-62019940D01*
X183003633Y-62017660D01*
X182977897Y-62013538D01*
X182975421Y-62013007D01*
X182946920Y-62006897D01*
X182909147Y-62005116D01*
X182875559Y-62003532D01*
X182860825Y-62002398D01*
X182840295Y-62000204D01*
X182840294Y-62000204D01*
X182833708Y-61999500D01*
X182795942Y-61999500D01*
X182784213Y-61999224D01*
X182710656Y-61995755D01*
X182710654Y-61995755D01*
X182700453Y-61995274D01*
X182690308Y-61996466D01*
X182690302Y-61996466D01*
X182678958Y-61997799D01*
X182649907Y-61999500D01*
X181116321Y-61999500D01*
X181021033Y-61980546D01*
X180940251Y-61926570D01*
X180886275Y-61845788D01*
X180867321Y-61750500D01*
X180869312Y-61719078D01*
X180872286Y-61695699D01*
X180872286Y-61695694D01*
X180873075Y-61689495D01*
X180875549Y-61595000D01*
X180855717Y-61328123D01*
X180796655Y-61067109D01*
X180699662Y-60817691D01*
X180566868Y-60585350D01*
X180487905Y-60485186D01*
X180406906Y-60382439D01*
X180406902Y-60382435D01*
X180401190Y-60375189D01*
X180206269Y-60191825D01*
X180151152Y-60153589D01*
X180083664Y-60083703D01*
X180048056Y-59993309D01*
X180049751Y-59896169D01*
X180088491Y-59807072D01*
X180158379Y-59739582D01*
X180248773Y-59703974D01*
X180293082Y-59700000D01*
X188002451Y-59700000D01*
X188097739Y-59718954D01*
G37*
%TD.AperFunction*%
%TA.AperFunction,Conductor*%
G36*
X175263274Y-59718954D02*
G01*
X175344056Y-59772930D01*
X175398032Y-59853712D01*
X175416986Y-59949000D01*
X175398032Y-60044288D01*
X175344056Y-60125070D01*
X175304511Y-60157235D01*
X175144027Y-60262453D01*
X175136299Y-60267520D01*
X175129410Y-60273669D01*
X175129407Y-60273671D01*
X175021391Y-60370079D01*
X174947733Y-60435821D01*
X174786115Y-60630146D01*
X174781324Y-60638042D01*
X174659784Y-60838332D01*
X174659781Y-60838338D01*
X174654995Y-60846225D01*
X174651426Y-60854736D01*
X174651424Y-60854740D01*
X174571128Y-61046226D01*
X174557254Y-61079311D01*
X174495039Y-61324283D01*
X174483761Y-61436286D01*
X174477775Y-61495733D01*
X174469716Y-61575761D01*
X174477536Y-61738553D01*
X174463176Y-61834640D01*
X174413138Y-61917919D01*
X174335039Y-61975709D01*
X174240770Y-61999213D01*
X174228823Y-61999500D01*
X167678867Y-61999500D01*
X167583579Y-61980546D01*
X167502797Y-61926570D01*
X167248030Y-61671803D01*
X167194054Y-61591021D01*
X167175100Y-61495733D01*
X167175100Y-60462584D01*
X167172712Y-60435821D01*
X167165420Y-60354121D01*
X167165420Y-60354119D01*
X167164366Y-60342313D01*
X167108341Y-60146930D01*
X167065173Y-60064358D01*
X167037825Y-59971135D01*
X167048233Y-59874539D01*
X167094815Y-59789279D01*
X167170478Y-59728335D01*
X167263704Y-59700986D01*
X167285839Y-59700000D01*
X175167986Y-59700000D01*
X175263274Y-59718954D01*
G37*
%TD.AperFunction*%
%TD*%
%TA.AperFunction,Conductor*%
%TO.N,anode*%
G36*
X194100139Y-42717621D02*
G01*
X194165548Y-42737462D01*
X194188809Y-42744518D01*
X194211629Y-42753971D01*
X194362631Y-42834683D01*
X194383158Y-42848399D01*
X194515521Y-42957026D01*
X194532974Y-42974479D01*
X194641601Y-43106842D01*
X194655319Y-43127372D01*
X194736029Y-43278371D01*
X194745482Y-43301190D01*
X194795185Y-43465043D01*
X194800002Y-43489263D01*
X194817393Y-43665837D01*
X194818000Y-43678187D01*
X194818000Y-46999813D01*
X194817393Y-47012163D01*
X194806216Y-47125649D01*
X194800002Y-47188737D01*
X194795185Y-47212957D01*
X194745482Y-47376809D01*
X194736029Y-47399629D01*
X194655319Y-47550628D01*
X194641601Y-47571158D01*
X194532974Y-47703521D01*
X194515521Y-47720974D01*
X194383158Y-47829601D01*
X194362631Y-47843317D01*
X194303005Y-47875188D01*
X194211629Y-47924029D01*
X194188810Y-47933482D01*
X194024957Y-47983185D01*
X194000740Y-47988001D01*
X193824163Y-48005393D01*
X193811813Y-48006000D01*
X145288000Y-48006000D01*
X145288000Y-51063813D01*
X145287393Y-51076163D01*
X145270002Y-51252737D01*
X145265185Y-51276957D01*
X145215482Y-51440809D01*
X145206029Y-51463629D01*
X145125319Y-51614628D01*
X145111601Y-51635158D01*
X145002974Y-51767521D01*
X144985521Y-51784974D01*
X144853158Y-51893601D01*
X144832631Y-51907317D01*
X144740417Y-51956607D01*
X144681629Y-51988029D01*
X144658810Y-51997482D01*
X144494957Y-52047185D01*
X144470740Y-52052001D01*
X144294163Y-52069393D01*
X144281813Y-52070000D01*
X136144000Y-52070000D01*
X136144000Y-54873813D01*
X136143393Y-54886163D01*
X136126002Y-55062737D01*
X136121185Y-55086957D01*
X136073792Y-55243194D01*
X136071482Y-55250809D01*
X136062029Y-55273629D01*
X135981319Y-55424628D01*
X135967601Y-55445158D01*
X135858974Y-55577521D01*
X135841521Y-55594974D01*
X135709158Y-55703601D01*
X135688631Y-55717317D01*
X135620002Y-55754000D01*
X135537629Y-55798029D01*
X135514810Y-55807482D01*
X135350957Y-55857185D01*
X135326740Y-55862001D01*
X135150163Y-55879393D01*
X135137813Y-55880000D01*
X132686500Y-55880000D01*
X132618379Y-55859998D01*
X132571886Y-55806342D01*
X132560500Y-55754000D01*
X132560500Y-55277503D01*
X132561134Y-55264879D01*
X132562684Y-55249486D01*
X132563000Y-55246348D01*
X132563000Y-53996360D01*
X132560846Y-53967374D01*
X132560500Y-53958036D01*
X132560500Y-50075662D01*
X132565231Y-50041461D01*
X132578033Y-49996067D01*
X132579302Y-49991569D01*
X132597697Y-49846971D01*
X132612677Y-49729225D01*
X132612677Y-49729221D01*
X132613075Y-49726095D01*
X132615549Y-49631600D01*
X132595717Y-49364723D01*
X132585161Y-49318070D01*
X132537686Y-49108266D01*
X132536655Y-49103709D01*
X132534962Y-49099355D01*
X132441355Y-48858644D01*
X132441354Y-48858642D01*
X132439662Y-48854291D01*
X132306868Y-48621950D01*
X132141190Y-48411789D01*
X131946269Y-48228425D01*
X131726385Y-48075886D01*
X131687174Y-48056549D01*
X131490559Y-47959589D01*
X131490556Y-47959588D01*
X131486371Y-47957524D01*
X131231497Y-47875938D01*
X131031193Y-47843317D01*
X130971976Y-47833673D01*
X130971975Y-47833673D01*
X130967364Y-47832922D01*
X130833569Y-47831171D01*
X130704451Y-47829480D01*
X130704448Y-47829480D01*
X130699774Y-47829419D01*
X130434605Y-47865507D01*
X130430118Y-47866815D01*
X130430117Y-47866815D01*
X130398817Y-47875938D01*
X130177683Y-47940392D01*
X130173430Y-47942352D01*
X130173429Y-47942353D01*
X130121512Y-47966287D01*
X129934652Y-48052431D01*
X129930743Y-48054994D01*
X129714764Y-48196596D01*
X129714759Y-48196600D01*
X129710851Y-48199162D01*
X129660781Y-48243851D01*
X129519215Y-48370204D01*
X129511197Y-48377360D01*
X129340075Y-48583112D01*
X129337652Y-48587105D01*
X129260048Y-48714993D01*
X129201244Y-48811898D01*
X129199437Y-48816206D01*
X129199437Y-48816207D01*
X129170027Y-48886343D01*
X129097755Y-49058691D01*
X129096604Y-49063223D01*
X129096603Y-49063226D01*
X129053823Y-49231674D01*
X129031881Y-49318070D01*
X129005070Y-49584336D01*
X129017909Y-49851641D01*
X129018820Y-49856221D01*
X129018821Y-49856229D01*
X129057079Y-50048562D01*
X129059500Y-50073143D01*
X129059500Y-53942497D01*
X129058866Y-53955121D01*
X129057000Y-53973652D01*
X129057000Y-55223640D01*
X129057173Y-55225965D01*
X129057173Y-55225971D01*
X129059154Y-55252626D01*
X129059500Y-55261964D01*
X129059500Y-55754000D01*
X129039498Y-55822121D01*
X128985842Y-55868614D01*
X128933500Y-55880000D01*
X122682000Y-55880000D01*
X122682000Y-61985813D01*
X122681393Y-61998163D01*
X122664002Y-62174737D01*
X122659185Y-62198957D01*
X122649170Y-62231974D01*
X122609482Y-62362809D01*
X122600029Y-62385629D01*
X122519319Y-62536628D01*
X122505601Y-62557158D01*
X122396974Y-62689521D01*
X122379521Y-62706974D01*
X122247158Y-62815601D01*
X122226631Y-62829317D01*
X122134417Y-62878607D01*
X122075629Y-62910029D01*
X122052810Y-62919482D01*
X121888957Y-62969185D01*
X121864740Y-62974001D01*
X121688163Y-62991393D01*
X121675813Y-62992000D01*
X112258187Y-62992000D01*
X112245837Y-62991393D01*
X112069260Y-62974001D01*
X112045043Y-62969185D01*
X111881190Y-62919482D01*
X111858371Y-62910029D01*
X111799583Y-62878607D01*
X111707369Y-62829317D01*
X111686842Y-62815601D01*
X111554479Y-62706974D01*
X111537026Y-62689521D01*
X111428399Y-62557158D01*
X111414681Y-62536628D01*
X111333971Y-62385629D01*
X111324518Y-62362809D01*
X111295925Y-62268550D01*
X111290500Y-62231974D01*
X111290500Y-47008082D01*
X111310502Y-46939961D01*
X111364158Y-46893468D01*
X111434432Y-46883364D01*
X111499012Y-46912858D01*
X111527854Y-46949123D01*
X111619718Y-47122623D01*
X111646493Y-47173193D01*
X111648545Y-47176178D01*
X111648550Y-47176187D01*
X111827364Y-47436363D01*
X111827370Y-47436370D01*
X111829421Y-47439355D01*
X112041728Y-47682728D01*
X112280601Y-47900086D01*
X112542874Y-48088548D01*
X112825070Y-48245616D01*
X113123448Y-48369208D01*
X113126942Y-48370203D01*
X113126944Y-48370204D01*
X113430554Y-48456690D01*
X113430559Y-48456691D01*
X113434055Y-48457687D01*
X113653264Y-48493584D01*
X113749192Y-48509293D01*
X113749196Y-48509293D01*
X113752772Y-48509879D01*
X113756398Y-48510050D01*
X114071749Y-48524921D01*
X114071750Y-48524921D01*
X114075376Y-48525092D01*
X114087707Y-48524251D01*
X114393960Y-48503374D01*
X114393968Y-48503373D01*
X114397591Y-48503126D01*
X114401167Y-48502463D01*
X114401169Y-48502463D01*
X114711580Y-48444932D01*
X114711584Y-48444931D01*
X114715145Y-48444271D01*
X115023830Y-48349307D01*
X115256884Y-48247003D01*
X115316232Y-48220951D01*
X115316236Y-48220949D01*
X115319555Y-48219492D01*
X115598399Y-48056549D01*
X115727538Y-47959589D01*
X115853761Y-47864819D01*
X115853765Y-47864816D01*
X115856668Y-47862636D01*
X116090936Y-47640323D01*
X116298101Y-47392557D01*
X116300089Y-47389531D01*
X116473427Y-47125649D01*
X116473432Y-47125640D01*
X116475414Y-47122623D01*
X116547971Y-46978360D01*
X116618900Y-46837334D01*
X116618903Y-46837326D01*
X116620527Y-46834098D01*
X116621772Y-46830696D01*
X116730269Y-46534216D01*
X116730270Y-46534212D01*
X116731517Y-46530805D01*
X116732362Y-46527283D01*
X116732365Y-46527275D01*
X116806064Y-46220295D01*
X116806065Y-46220291D01*
X116806911Y-46216766D01*
X116845710Y-45896143D01*
X116851246Y-45720000D01*
X116850586Y-45708551D01*
X116832864Y-45401193D01*
X116832863Y-45401188D01*
X116832655Y-45397573D01*
X116777128Y-45079420D01*
X116685402Y-44769757D01*
X116558692Y-44472689D01*
X116398677Y-44192154D01*
X116207479Y-43931869D01*
X115987632Y-43695285D01*
X115742049Y-43485538D01*
X115473986Y-43305407D01*
X115186996Y-43157280D01*
X114884883Y-43043121D01*
X114881362Y-43042237D01*
X114881357Y-43042235D01*
X114656144Y-42985666D01*
X114594948Y-42949671D01*
X114562927Y-42886306D01*
X114570247Y-42815688D01*
X114614585Y-42760237D01*
X114686799Y-42737462D01*
X164379620Y-42721645D01*
X194063525Y-42712196D01*
X194100139Y-42717621D01*
G37*
%TD.AperFunction*%
%TD*%
%TA.AperFunction,Conductor*%
%TO.N,kathode*%
G36*
X134134163Y-58166607D02*
G01*
X134310740Y-58183999D01*
X134334957Y-58188815D01*
X134498809Y-58238518D01*
X134521629Y-58247971D01*
X134672631Y-58328683D01*
X134693158Y-58342399D01*
X134825521Y-58451026D01*
X134842974Y-58468479D01*
X134951601Y-58600842D01*
X134965319Y-58621372D01*
X135046029Y-58772371D01*
X135055482Y-58795190D01*
X135105185Y-58959043D01*
X135110002Y-58983263D01*
X135127393Y-59159837D01*
X135128000Y-59172187D01*
X135128000Y-69097813D01*
X135127393Y-69110163D01*
X135110002Y-69286737D01*
X135105185Y-69310957D01*
X135055482Y-69474809D01*
X135046029Y-69497629D01*
X134965319Y-69648628D01*
X134951601Y-69669158D01*
X134842974Y-69801521D01*
X134825521Y-69818974D01*
X134693158Y-69927601D01*
X134672631Y-69941317D01*
X134580417Y-69990607D01*
X134521629Y-70022029D01*
X134498810Y-70031482D01*
X134334957Y-70081185D01*
X134310740Y-70086001D01*
X134134163Y-70103393D01*
X134121813Y-70104000D01*
X112258187Y-70104000D01*
X112245837Y-70103393D01*
X112069260Y-70086001D01*
X112045043Y-70081185D01*
X111881190Y-70031482D01*
X111858371Y-70022029D01*
X111799583Y-69990607D01*
X111707369Y-69941317D01*
X111686842Y-69927601D01*
X111554479Y-69818974D01*
X111537026Y-69801521D01*
X111428399Y-69669158D01*
X111414681Y-69648628D01*
X111333971Y-69497629D01*
X111324518Y-69474809D01*
X111274815Y-69310957D01*
X111269998Y-69286737D01*
X111252607Y-69110163D01*
X111252000Y-69097813D01*
X111252000Y-65268187D01*
X111252607Y-65255837D01*
X111269998Y-65079263D01*
X111274815Y-65055043D01*
X111324518Y-64891190D01*
X111333971Y-64868371D01*
X111414681Y-64717372D01*
X111428399Y-64696842D01*
X111537026Y-64564479D01*
X111554479Y-64547026D01*
X111686842Y-64438399D01*
X111707369Y-64424683D01*
X111858371Y-64343971D01*
X111881191Y-64334518D01*
X112045043Y-64284815D01*
X112069260Y-64279999D01*
X112245837Y-64262607D01*
X112258187Y-64262000D01*
X123952000Y-64262000D01*
X123952000Y-59172187D01*
X123952607Y-59159837D01*
X123969998Y-58983263D01*
X123974815Y-58959043D01*
X124024518Y-58795190D01*
X124033971Y-58772371D01*
X124114681Y-58621372D01*
X124128399Y-58600842D01*
X124237026Y-58468479D01*
X124254479Y-58451026D01*
X124386842Y-58342399D01*
X124407369Y-58328683D01*
X124558371Y-58247971D01*
X124581191Y-58238518D01*
X124745043Y-58188815D01*
X124769260Y-58183999D01*
X124945837Y-58166607D01*
X124958187Y-58166000D01*
X134121813Y-58166000D01*
X134134163Y-58166607D01*
G37*
%TD.AperFunction*%
%TD*%
%TA.AperFunction,Conductor*%
%TO.N,Supply2+*%
G36*
X132842000Y-85476929D02*
G01*
X132840505Y-85474871D01*
X132765503Y-85384210D01*
X132752986Y-85375755D01*
X132742248Y-85381962D01*
X131182022Y-86942188D01*
X131174408Y-86956132D01*
X131174539Y-86957965D01*
X131178790Y-86964580D01*
X132741145Y-88526935D01*
X132754407Y-88534177D01*
X132764512Y-88526988D01*
X132840505Y-88435129D01*
X132842000Y-88433071D01*
X132842000Y-93096929D01*
X132840505Y-93094871D01*
X132765503Y-93004210D01*
X132752986Y-92995755D01*
X132742248Y-93001962D01*
X131182022Y-94562188D01*
X131174408Y-94576132D01*
X131174539Y-94577965D01*
X131178790Y-94584580D01*
X132741145Y-96146935D01*
X132754407Y-96154177D01*
X132764512Y-96146988D01*
X132840505Y-96055129D01*
X132842000Y-96053071D01*
X132842000Y-96520000D01*
X132390487Y-96520000D01*
X132384342Y-96508552D01*
X130822812Y-94947022D01*
X130808868Y-94939408D01*
X130807035Y-94939539D01*
X130800420Y-94943790D01*
X129235334Y-96508876D01*
X129229260Y-96520000D01*
X128778000Y-96520000D01*
X128778000Y-96053071D01*
X128779495Y-96055129D01*
X128854497Y-96145790D01*
X128867014Y-96154245D01*
X128877752Y-96148038D01*
X130437978Y-94587812D01*
X130445592Y-94573868D01*
X130445461Y-94572035D01*
X130441210Y-94565420D01*
X128878855Y-93003065D01*
X128865593Y-92995823D01*
X128855488Y-93003012D01*
X128779495Y-93094871D01*
X128778000Y-93096929D01*
X128778000Y-92628587D01*
X129228754Y-92628587D01*
X129235658Y-92641448D01*
X130797188Y-94202978D01*
X130811132Y-94210592D01*
X130812965Y-94210461D01*
X130819580Y-94206210D01*
X132384666Y-92641124D01*
X132391279Y-92629013D01*
X132382452Y-92617395D01*
X132159719Y-92455570D01*
X132153039Y-92451330D01*
X131883428Y-92303110D01*
X131876293Y-92299753D01*
X131590230Y-92186492D01*
X131582704Y-92184047D01*
X131284721Y-92107538D01*
X131276950Y-92106055D01*
X130971722Y-92067497D01*
X130963831Y-92067000D01*
X130656169Y-92067000D01*
X130648278Y-92067497D01*
X130343050Y-92106055D01*
X130335279Y-92107538D01*
X130037296Y-92184047D01*
X130029770Y-92186492D01*
X129743707Y-92299753D01*
X129736572Y-92303110D01*
X129466961Y-92451330D01*
X129460281Y-92455570D01*
X129237177Y-92617664D01*
X129228754Y-92628587D01*
X128778000Y-92628587D01*
X128778000Y-88900987D01*
X129228721Y-88900987D01*
X129237548Y-88912605D01*
X129460281Y-89074430D01*
X129466961Y-89078670D01*
X129736572Y-89226890D01*
X129743707Y-89230247D01*
X130029770Y-89343508D01*
X130037296Y-89345953D01*
X130335279Y-89422462D01*
X130343050Y-89423945D01*
X130648278Y-89462503D01*
X130656169Y-89463000D01*
X130963831Y-89463000D01*
X130971722Y-89462503D01*
X131276950Y-89423945D01*
X131284721Y-89422462D01*
X131582704Y-89345953D01*
X131590230Y-89343508D01*
X131876293Y-89230247D01*
X131883428Y-89226890D01*
X132153039Y-89078670D01*
X132159719Y-89074430D01*
X132382823Y-88912336D01*
X132391246Y-88901413D01*
X132384342Y-88888552D01*
X130822812Y-87327022D01*
X130808868Y-87319408D01*
X130807035Y-87319539D01*
X130800420Y-87323790D01*
X129235334Y-88888876D01*
X129228721Y-88900987D01*
X128778000Y-88900987D01*
X128778000Y-88433071D01*
X128779495Y-88435129D01*
X128854497Y-88525790D01*
X128867014Y-88534245D01*
X128877752Y-88528038D01*
X130437978Y-86967812D01*
X130445592Y-86953868D01*
X130445461Y-86952035D01*
X130441210Y-86945420D01*
X128878855Y-85383065D01*
X128865593Y-85375823D01*
X128855488Y-85383012D01*
X128779495Y-85474871D01*
X128778000Y-85476929D01*
X128778000Y-85008587D01*
X129228754Y-85008587D01*
X129235658Y-85021448D01*
X130797188Y-86582978D01*
X130811132Y-86590592D01*
X130812965Y-86590461D01*
X130819580Y-86586210D01*
X132384666Y-85021124D01*
X132391279Y-85009013D01*
X132382452Y-84997395D01*
X132159719Y-84835570D01*
X132153039Y-84831330D01*
X131883428Y-84683110D01*
X131876293Y-84679753D01*
X131590230Y-84566492D01*
X131582704Y-84564047D01*
X131284721Y-84487538D01*
X131276950Y-84486055D01*
X130971722Y-84447497D01*
X130963831Y-84447000D01*
X130656169Y-84447000D01*
X130648278Y-84447497D01*
X130343050Y-84486055D01*
X130335279Y-84487538D01*
X130037296Y-84564047D01*
X130029770Y-84566492D01*
X129743707Y-84679753D01*
X129736572Y-84683110D01*
X129466961Y-84831330D01*
X129460281Y-84835570D01*
X129237177Y-84997664D01*
X129228754Y-85008587D01*
X128778000Y-85008587D01*
X128778000Y-82804000D01*
X121037444Y-82804000D01*
X121159280Y-82660843D01*
X121165188Y-82652652D01*
X121285648Y-82453749D01*
X121290168Y-82444723D01*
X121377281Y-82229112D01*
X121380297Y-82219488D01*
X121431878Y-81992448D01*
X121433280Y-81983016D01*
X121443339Y-81842690D01*
X121443500Y-81838177D01*
X121443500Y-81044115D01*
X121439025Y-81028876D01*
X121437635Y-81027671D01*
X121429952Y-81026000D01*
X118807500Y-81026000D01*
X118739379Y-81005998D01*
X118692886Y-80952342D01*
X118681500Y-80900000D01*
X118681500Y-80644000D01*
X118701502Y-80575879D01*
X118755158Y-80529386D01*
X118807500Y-80518000D01*
X121425385Y-80518000D01*
X121440624Y-80513525D01*
X121441829Y-80512135D01*
X121443500Y-80504452D01*
X121443500Y-79705823D01*
X121443339Y-79701310D01*
X121433280Y-79560984D01*
X121431878Y-79551552D01*
X121380297Y-79324512D01*
X121377281Y-79314888D01*
X121290168Y-79099277D01*
X121285648Y-79090251D01*
X121165188Y-78891348D01*
X121159280Y-78883157D01*
X121037444Y-78740000D01*
X132842000Y-78740000D01*
X132842000Y-85476929D01*
G37*
%TD.AperFunction*%
%TD*%
%TA.AperFunction,Conductor*%
%TO.N,Supply2+*%
G36*
X133880163Y-78232607D02*
G01*
X134056740Y-78249999D01*
X134080957Y-78254815D01*
X134244809Y-78304518D01*
X134267629Y-78313971D01*
X134418631Y-78394683D01*
X134439158Y-78408399D01*
X134571521Y-78517026D01*
X134588974Y-78534479D01*
X134697601Y-78666842D01*
X134711319Y-78687372D01*
X134792029Y-78838371D01*
X134801482Y-78861190D01*
X134851185Y-79025043D01*
X134856002Y-79049263D01*
X134873393Y-79225837D01*
X134874000Y-79238187D01*
X134874000Y-96275813D01*
X134873393Y-96288163D01*
X134856002Y-96464737D01*
X134851185Y-96488957D01*
X134835852Y-96539505D01*
X134801482Y-96652809D01*
X134792029Y-96675629D01*
X134734934Y-96782448D01*
X134711319Y-96826628D01*
X134697601Y-96847158D01*
X134588979Y-96979515D01*
X134571517Y-96996977D01*
X134554553Y-97010899D01*
X134489205Y-97038653D01*
X134474619Y-97039500D01*
X125336095Y-97039500D01*
X125267974Y-97019498D01*
X125221481Y-96965842D01*
X125211377Y-96895568D01*
X125240871Y-96830988D01*
X125248647Y-96822787D01*
X125469608Y-96609779D01*
X125469609Y-96609778D01*
X125472335Y-96607150D01*
X125681718Y-96349964D01*
X125858687Y-96069485D01*
X125893380Y-95996258D01*
X125999049Y-95773216D01*
X126000678Y-95769778D01*
X126105635Y-95455183D01*
X126172037Y-95130257D01*
X126198923Y-94799707D01*
X126199527Y-94742000D01*
X126199153Y-94735786D01*
X126179798Y-94414738D01*
X126179798Y-94414734D01*
X126179570Y-94410960D01*
X126174581Y-94383640D01*
X126120670Y-94088457D01*
X126119987Y-94084715D01*
X126021641Y-93767991D01*
X125885958Y-93465375D01*
X125714902Y-93181252D01*
X125712575Y-93178268D01*
X125712570Y-93178261D01*
X125513287Y-92922732D01*
X125513285Y-92922730D01*
X125510951Y-92919737D01*
X125277060Y-92684618D01*
X125256227Y-92668194D01*
X125019598Y-92481651D01*
X125016617Y-92479301D01*
X124733393Y-92306760D01*
X124612909Y-92251979D01*
X124434945Y-92171063D01*
X124434937Y-92171060D01*
X124431493Y-92169494D01*
X124115288Y-92069491D01*
X123970802Y-92042321D01*
X123793083Y-92008901D01*
X123793078Y-92008900D01*
X123789359Y-92008201D01*
X123458428Y-91986511D01*
X123454648Y-91986719D01*
X123454647Y-91986719D01*
X123369029Y-91991431D01*
X123127288Y-92004735D01*
X123123561Y-92005396D01*
X123123557Y-92005396D01*
X122858350Y-92052397D01*
X122800735Y-92062608D01*
X122797110Y-92063713D01*
X122797105Y-92063714D01*
X122548529Y-92139475D01*
X122483500Y-92159294D01*
X122180179Y-92293391D01*
X122069907Y-92358996D01*
X121898424Y-92461017D01*
X121898418Y-92461021D01*
X121895164Y-92462957D01*
X121632585Y-92665536D01*
X121396244Y-92898193D01*
X121189566Y-93157558D01*
X121015545Y-93439874D01*
X121013956Y-93443321D01*
X120878287Y-93737607D01*
X120878283Y-93737617D01*
X120876700Y-93741051D01*
X120875541Y-93744651D01*
X120875538Y-93744658D01*
X120790625Y-94008340D01*
X120775043Y-94056728D01*
X120774324Y-94060444D01*
X120774322Y-94060452D01*
X120712766Y-94378613D01*
X120712765Y-94378622D01*
X120712047Y-94382332D01*
X120711780Y-94386108D01*
X120711779Y-94386113D01*
X120705053Y-94481111D01*
X120688624Y-94713145D01*
X120705114Y-95044376D01*
X120705755Y-95048107D01*
X120705756Y-95048115D01*
X120735792Y-95222911D01*
X120761277Y-95371227D01*
X120856300Y-95688964D01*
X120988807Y-95992983D01*
X120990730Y-95996254D01*
X120990732Y-95996258D01*
X121154956Y-96275612D01*
X121154961Y-96275620D01*
X121156879Y-96278882D01*
X121159180Y-96281897D01*
X121355780Y-96539505D01*
X121355785Y-96539510D01*
X121358080Y-96542518D01*
X121589496Y-96780073D01*
X121633324Y-96815375D01*
X121673827Y-96873681D01*
X121676378Y-96944632D01*
X121640165Y-97005698D01*
X121576685Y-97037493D01*
X121554284Y-97039500D01*
X120541381Y-97039500D01*
X120473260Y-97019498D01*
X120461447Y-97010899D01*
X120444483Y-96996977D01*
X120427021Y-96979515D01*
X120318399Y-96847158D01*
X120304681Y-96826628D01*
X120281067Y-96782448D01*
X120223971Y-96675629D01*
X120214518Y-96652809D01*
X120180148Y-96539505D01*
X120164815Y-96488957D01*
X120159998Y-96464737D01*
X120142607Y-96288163D01*
X120142000Y-96275813D01*
X120142000Y-85090000D01*
X114544187Y-85090000D01*
X114531837Y-85089393D01*
X114355260Y-85072001D01*
X114331043Y-85067185D01*
X114167190Y-85017482D01*
X114144371Y-85008029D01*
X114085583Y-84976607D01*
X113993369Y-84927317D01*
X113972842Y-84913601D01*
X113840479Y-84804974D01*
X113823026Y-84787521D01*
X113714399Y-84655158D01*
X113700681Y-84634628D01*
X113619971Y-84483629D01*
X113610518Y-84460809D01*
X113560815Y-84296957D01*
X113555998Y-84272737D01*
X113538607Y-84096163D01*
X113538000Y-84083813D01*
X113538000Y-79238187D01*
X113538607Y-79225837D01*
X113555998Y-79049263D01*
X113560815Y-79025043D01*
X113610518Y-78861190D01*
X113619971Y-78838371D01*
X113700681Y-78687372D01*
X113714399Y-78666842D01*
X113823026Y-78534479D01*
X113840479Y-78517026D01*
X113972842Y-78408399D01*
X113993369Y-78394683D01*
X114144371Y-78313971D01*
X114167191Y-78304518D01*
X114331043Y-78254815D01*
X114355260Y-78249999D01*
X114531837Y-78232607D01*
X114544187Y-78232000D01*
X133867813Y-78232000D01*
X133880163Y-78232607D01*
G37*
%TD.AperFunction*%
%TD*%
%TA.AperFunction,Conductor*%
%TO.N,GND*%
G36*
X195348163Y-53340607D02*
G01*
X195524740Y-53357999D01*
X195548957Y-53362815D01*
X195712809Y-53412518D01*
X195735629Y-53421971D01*
X195886631Y-53502683D01*
X195907158Y-53516399D01*
X196039521Y-53625026D01*
X196056974Y-53642479D01*
X196165601Y-53774842D01*
X196179319Y-53795372D01*
X196260029Y-53946371D01*
X196269482Y-53969190D01*
X196319185Y-54133043D01*
X196324002Y-54157263D01*
X196341393Y-54333837D01*
X196342000Y-54346187D01*
X196342000Y-58175813D01*
X196341393Y-58188163D01*
X196324002Y-58364737D01*
X196319185Y-58388957D01*
X196277252Y-58527195D01*
X196269482Y-58552809D01*
X196260029Y-58575629D01*
X196203035Y-58682259D01*
X196179319Y-58726628D01*
X196165601Y-58747158D01*
X196056974Y-58879521D01*
X196039521Y-58896974D01*
X195907158Y-59005601D01*
X195886631Y-59019317D01*
X195794417Y-59068607D01*
X195735629Y-59100029D01*
X195712810Y-59109482D01*
X195548957Y-59159185D01*
X195524740Y-59164001D01*
X195348163Y-59181393D01*
X195335813Y-59182000D01*
X153416000Y-59182000D01*
X153416000Y-60488475D01*
X153395998Y-60556596D01*
X153388949Y-60566482D01*
X153380178Y-60577608D01*
X153377946Y-60581450D01*
X153377943Y-60581455D01*
X153258415Y-60787238D01*
X153248555Y-60804213D01*
X153246890Y-60808325D01*
X153246887Y-60808330D01*
X153164997Y-61010507D01*
X153150174Y-61047103D01*
X153086999Y-61301432D01*
X153060288Y-61562126D01*
X153070577Y-61823982D01*
X153117658Y-62081776D01*
X153119067Y-62085999D01*
X153189808Y-62298034D01*
X153200594Y-62330365D01*
X153202587Y-62334353D01*
X153279618Y-62488516D01*
X153317728Y-62564787D01*
X153320257Y-62568446D01*
X153320261Y-62568453D01*
X153393653Y-62674643D01*
X153416000Y-62746281D01*
X153416000Y-64574936D01*
X153395998Y-64643057D01*
X153379095Y-64664031D01*
X151580016Y-66463110D01*
X151567626Y-66473977D01*
X151550146Y-66487390D01*
X151495958Y-66546942D01*
X151495654Y-66547276D01*
X151491555Y-66551571D01*
X151475720Y-66567406D01*
X151459083Y-66587304D01*
X151455632Y-66591259D01*
X151399914Y-66652493D01*
X151390470Y-66667548D01*
X151380401Y-66681406D01*
X151369003Y-66695038D01*
X151366222Y-66699914D01*
X151327992Y-66766937D01*
X151325296Y-66771443D01*
X151281293Y-66841590D01*
X151274665Y-66858079D01*
X151267205Y-66873509D01*
X151258405Y-66888937D01*
X151256533Y-66894224D01*
X151230775Y-66966961D01*
X151228910Y-66971897D01*
X151198034Y-67048705D01*
X151196898Y-67054191D01*
X151196896Y-67054197D01*
X151194430Y-67066106D01*
X151189825Y-67082602D01*
X151183892Y-67099356D01*
X151177420Y-67138878D01*
X151170514Y-67181049D01*
X151169552Y-67186237D01*
X151166196Y-67202442D01*
X151152767Y-67267290D01*
X151152501Y-67271901D01*
X151152501Y-67271902D01*
X151151177Y-67294861D01*
X151149730Y-67307964D01*
X151148726Y-67314098D01*
X151148726Y-67314104D01*
X151147818Y-67319646D01*
X151147906Y-67325260D01*
X151147906Y-67325262D01*
X151149484Y-67425705D01*
X151149500Y-67427684D01*
X151149500Y-73967623D01*
X151130933Y-74033458D01*
X151014223Y-74223911D01*
X151012330Y-74228481D01*
X151012328Y-74228485D01*
X150922720Y-74444819D01*
X150922718Y-74444825D01*
X150920828Y-74449388D01*
X150919676Y-74454188D01*
X150919674Y-74454193D01*
X150910336Y-74493089D01*
X150863854Y-74686698D01*
X150844706Y-74930000D01*
X150863854Y-75173302D01*
X150920828Y-75410612D01*
X150922718Y-75415175D01*
X150922720Y-75415181D01*
X151012328Y-75631515D01*
X151014223Y-75636089D01*
X151016809Y-75640309D01*
X151130933Y-75826542D01*
X151149500Y-75892377D01*
X151149500Y-77090000D01*
X151129498Y-77158121D01*
X151075842Y-77204614D01*
X151023500Y-77216000D01*
X112258187Y-77216000D01*
X112245837Y-77215393D01*
X112069260Y-77198001D01*
X112045043Y-77193185D01*
X111881190Y-77143482D01*
X111858371Y-77134029D01*
X111775998Y-77090000D01*
X111707369Y-77053317D01*
X111686842Y-77039601D01*
X111554479Y-76930974D01*
X111537026Y-76913521D01*
X111428399Y-76781158D01*
X111414681Y-76760628D01*
X111333971Y-76609629D01*
X111324518Y-76586809D01*
X111274815Y-76422957D01*
X111269998Y-76398737D01*
X111252607Y-76222163D01*
X111252000Y-76209813D01*
X111252000Y-72380187D01*
X111252607Y-72367837D01*
X111269998Y-72191263D01*
X111274815Y-72167043D01*
X111324518Y-72003190D01*
X111333971Y-71980371D01*
X111414681Y-71829372D01*
X111428399Y-71808842D01*
X111537026Y-71676479D01*
X111554479Y-71659026D01*
X111686842Y-71550399D01*
X111707369Y-71536683D01*
X111858371Y-71455971D01*
X111881191Y-71446518D01*
X112045043Y-71396815D01*
X112069260Y-71391999D01*
X112245837Y-71374607D01*
X112258187Y-71374000D01*
X134874000Y-71374000D01*
X136652000Y-69596000D01*
X136652000Y-58682259D01*
X136653078Y-58665812D01*
X136667145Y-58558966D01*
X136675658Y-58527195D01*
X136713712Y-58435324D01*
X136730159Y-58406838D01*
X136790692Y-58327950D01*
X136813950Y-58304692D01*
X136892838Y-58244159D01*
X136921324Y-58227712D01*
X137013195Y-58189658D01*
X137044966Y-58181145D01*
X137160000Y-58166000D01*
X137668000Y-58166000D01*
X137668000Y-54346187D01*
X137668607Y-54333837D01*
X137685998Y-54157263D01*
X137690815Y-54133043D01*
X137740518Y-53969190D01*
X137749971Y-53946371D01*
X137830681Y-53795372D01*
X137844399Y-53774842D01*
X137953026Y-53642479D01*
X137970479Y-53625026D01*
X138102842Y-53516399D01*
X138123369Y-53502683D01*
X138274371Y-53421971D01*
X138297191Y-53412518D01*
X138461043Y-53362815D01*
X138485260Y-53357999D01*
X138661837Y-53340607D01*
X138674187Y-53340000D01*
X195335813Y-53340000D01*
X195348163Y-53340607D01*
G37*
%TD.AperFunction*%
%TD*%
M02*
